<svg width="20" height="20" viewBox="0 0 20 20" fill="none" xmlns="http://www.w3.org/2000/svg">
<mask id="path-1-inside-1_1_106" fill="white">
<path d="M20 10.0092C19.9981 12.1326 19.3202 14.2004 18.0646 15.9129C16.809 17.6254 15.0409 18.8938 13.0163 19.5343C10.9917 20.1748 8.81576 20.1541 6.80366 19.4754C4.79157 18.7967 3.04777 17.495 1.82484 15.7591C0.601912 14.0231 -0.0366566 11.9429 0.00162604 9.81972C0.0399086 7.69657 0.753055 5.64074 2.03777 3.94997C3.32249 2.25919 5.11208 1.02128 7.14733 0.415519C9.18259 -0.190242 11.3578 -0.132398 13.358 0.580674L20 10.0092ZM4.98649 9.29452C4.98649 9.69827 9.27635 13.5834 9.27635 13.5834C9.27635 13.5834 18.2 4.5 19.2854 3.57437"/>
</mask>
<path d="M20 10.0092L21.5 10.0105L21.5004 9.53448L21.2263 9.1453L20 10.0092ZM13.358 0.580674L14.5843 -0.283185L14.3101 -0.672366L13.8617 -0.832225L13.358 0.580674ZM9.27635 13.5834L8.26943 14.6952L9.337 15.662L10.3464 14.6346L9.27635 13.5834ZM20 10.0092L18.5 10.0078C18.4983 11.8128 17.9222 13.5703 16.8549 15.026L18.0646 15.9129L19.2743 16.7998C20.7182 14.8304 21.4978 12.4525 21.5 10.0105L20 10.0092ZM18.0646 15.9129L16.8549 15.026C15.7877 16.4816 14.2847 17.5597 12.5638 18.1041L13.0163 19.5343L13.4687 20.9644C15.797 20.2278 17.8303 18.7692 19.2743 16.7998L18.0646 15.9129ZM13.0163 19.5343L12.5638 18.1041C10.8429 18.6485 8.99339 18.631 7.28311 18.0541L6.80366 19.4754L6.32421 20.8967C8.63812 21.6773 11.1404 21.701 13.4687 20.9644L13.0163 19.5343ZM6.80366 19.4754L7.28311 18.0541C5.57283 17.4772 4.09061 16.3708 3.05112 14.8952L1.82484 15.7591L0.598569 16.6229C2.00494 18.6193 4.0103 20.1162 6.32421 20.8967L6.80366 19.4754ZM1.82484 15.7591L3.05112 14.8952C2.01163 13.4196 1.46884 11.6514 1.50138 9.84676L0.00162604 9.81972L-1.49813 9.79268C-1.54216 12.2343 -0.807801 14.6265 0.598569 16.6229L1.82484 15.7591ZM0.00162604 9.81972L1.50138 9.84676C1.53392 8.04209 2.1401 6.29463 3.23211 4.85747L2.03777 3.94997L0.843439 3.04246C-0.633987 4.98685 -1.45411 7.35106 -1.49813 9.79268L0.00162604 9.81972ZM2.03777 3.94997L3.23211 4.85747C4.32412 3.42032 5.84527 2.36809 7.57523 1.85319L7.14733 0.415519L6.71943 -1.02215C4.37889 -0.325528 2.32087 1.09807 0.843439 3.04246L2.03777 3.94997ZM7.14733 0.415519L7.57523 1.85319C9.3052 1.33829 11.1542 1.38746 12.8543 1.99357L13.358 0.580674L13.8617 -0.832225C11.5615 -1.65226 9.05998 -1.71878 6.71943 -1.02215L7.14733 0.415519ZM13.358 0.580674L12.1317 1.44453L18.7737 10.873L20 10.0092L21.2263 9.1453L14.5843 -0.283185L13.358 0.580674ZM4.98649 9.29452H3.48649C3.48649 9.60152 3.57836 9.83465 3.61727 9.92663C3.66622 10.0424 3.72083 10.1368 3.76011 10.2001C3.83917 10.3275 3.92946 10.4453 4.00504 10.5386C4.16096 10.7312 4.36166 10.9508 4.57213 11.1711C4.99915 11.6181 5.55578 12.161 6.09675 12.6764C6.64113 13.195 7.18395 13.6994 7.58967 14.0732C7.79281 14.2603 7.9622 14.4153 8.08102 14.5237C8.14044 14.578 8.18725 14.6206 8.21935 14.6497C8.23539 14.6643 8.24777 14.6755 8.2562 14.6832C8.26042 14.687 8.26365 14.6899 8.26587 14.692C8.26698 14.693 8.26783 14.6937 8.26843 14.6943C8.26872 14.6945 8.26896 14.6948 8.26913 14.6949C8.26921 14.695 8.26929 14.6951 8.26933 14.6951C8.26939 14.6951 8.26943 14.6952 9.27635 13.5834C10.2833 12.4716 10.2833 12.4716 10.2833 12.4716C10.2832 12.4715 10.2832 12.4715 10.2832 12.4715C10.2831 12.4714 10.2829 12.4713 10.2827 12.4711C10.2823 12.4707 10.2816 12.47 10.2806 12.4692C10.2787 12.4674 10.2758 12.4648 10.2719 12.4612C10.2641 12.4542 10.2524 12.4435 10.237 12.4296C10.2063 12.4016 10.1609 12.3604 10.103 12.3076C9.98723 12.2019 9.82148 12.0502 9.62244 11.8669C9.22381 11.4996 8.69417 11.0074 8.16609 10.5043C7.63459 9.99796 7.11875 9.49386 6.74142 9.09886C6.54972 8.89818 6.41528 8.74799 6.33659 8.65082C6.29487 8.59929 6.29299 8.59217 6.30921 8.61832C6.31707 8.63098 6.34759 8.68068 6.38032 8.75806C6.40298 8.81166 6.48649 9.01275 6.48649 9.29452H4.98649ZM9.27635 13.5834C10.3464 14.6346 10.3464 14.6346 10.3465 14.6345C10.3465 14.6344 10.3466 14.6343 10.3468 14.6342C10.347 14.6339 10.3474 14.6335 10.348 14.633C10.349 14.6319 10.3506 14.6303 10.3528 14.6281C10.357 14.6237 10.3634 14.6172 10.3718 14.6087C10.3887 14.5915 10.4138 14.566 10.4465 14.5327C10.512 14.4661 10.6083 14.3682 10.7312 14.2432C10.977 13.9933 11.3295 13.6352 11.756 13.2026C12.6089 12.3372 13.7571 11.174 14.9389 9.98218C17.3429 7.55797 19.7784 5.1253 20.2587 4.71568L19.2854 3.57437L18.312 2.43306C17.707 2.94907 15.138 5.5209 12.8087 7.86979C11.624 9.06451 10.4735 10.23 9.6193 11.0967C9.19216 11.5301 8.83901 11.8889 8.59261 12.1393C8.46941 12.2645 8.37289 12.3627 8.30715 12.4296C8.27427 12.463 8.24909 12.4886 8.23212 12.5059C8.22363 12.5145 8.2172 12.5211 8.21288 12.5255C8.21071 12.5277 8.20908 12.5294 8.20799 12.5305C8.20744 12.531 8.20703 12.5314 8.20675 12.5317C8.20661 12.5319 8.2065 12.532 8.20643 12.5321C8.20636 12.5321 8.20632 12.5322 9.27635 13.5834Z" fill="#0DA800" mask="url(#path-1-inside-1_1_106)"/>
</svg>
