<svg width="199" height="206" viewBox="0 0 199 206" fill="none" xmlns="http://www.w3.org/2000/svg">
<path d="M56.8703 193.93C55.5838 193.56 54.6463 193.107 54.0578 192.57C53.4745 192.029 53.1828 191.362 53.1828 190.57C53.1828 189.674 53.5396 188.935 54.2531 188.352C54.9719 187.763 55.9042 187.469 57.05 187.469C57.8312 187.469 58.5266 187.62 59.1359 187.922C59.7505 188.224 60.2245 188.641 60.5578 189.172C60.8963 189.703 61.0656 190.284 61.0656 190.914H59.5578C59.5578 190.227 59.3391 189.688 58.9016 189.297C58.4641 188.901 57.8469 188.703 57.05 188.703C56.3104 188.703 55.7323 188.867 55.3156 189.195C54.9042 189.518 54.6984 189.969 54.6984 190.547C54.6984 191.01 54.8937 191.404 55.2844 191.727C55.6802 192.044 56.3495 192.336 57.2922 192.602C58.2401 192.867 58.9797 193.161 59.5109 193.484C60.0474 193.802 60.4432 194.174 60.6984 194.602C60.9588 195.029 61.0891 195.531 61.0891 196.109C61.0891 197.031 60.7297 197.771 60.0109 198.328C59.2922 198.88 58.3312 199.156 57.1281 199.156C56.3469 199.156 55.6177 199.008 54.9406 198.711C54.2635 198.409 53.7401 197.997 53.3703 197.477C53.0057 196.956 52.8234 196.365 52.8234 195.703H54.3312C54.3312 196.391 54.5838 196.935 55.0891 197.336C55.5995 197.732 56.2792 197.93 57.1281 197.93C57.9198 197.93 58.5266 197.768 58.9484 197.445C59.3703 197.122 59.5812 196.682 59.5812 196.125C59.5812 195.568 59.3859 195.138 58.9953 194.836C58.6047 194.529 57.8963 194.227 56.8703 193.93ZM62.4094 194.695C62.4094 193.867 62.5708 193.122 62.8937 192.461C63.2219 191.799 63.675 191.289 64.2531 190.93C64.8364 190.57 65.5005 190.391 66.2453 190.391C67.3963 190.391 68.326 190.789 69.0344 191.586C69.7479 192.383 70.1047 193.443 70.1047 194.766V194.867C70.1047 195.69 69.9458 196.43 69.6281 197.086C69.3156 197.737 68.8651 198.245 68.2766 198.609C67.6932 198.974 67.0213 199.156 66.2609 199.156C65.1151 199.156 64.1854 198.758 63.4719 197.961C62.7635 197.164 62.4094 196.109 62.4094 194.797V194.695ZM63.8625 194.867C63.8625 195.805 64.0786 196.557 64.5109 197.125C64.9484 197.693 65.5318 197.977 66.2609 197.977C66.9953 197.977 67.5786 197.69 68.0109 197.117C68.4432 196.539 68.6594 195.732 68.6594 194.695C68.6594 193.768 68.438 193.018 67.9953 192.445C67.5578 191.867 66.9745 191.578 66.2453 191.578C65.5318 191.578 64.9562 191.862 64.5187 192.43C64.0812 192.997 63.8625 193.81 63.8625 194.867ZM71.5344 194.695C71.5344 193.867 71.6958 193.122 72.0187 192.461C72.3469 191.799 72.8 191.289 73.3781 190.93C73.9614 190.57 74.6255 190.391 75.3703 190.391C76.5213 190.391 77.451 190.789 78.1594 191.586C78.8729 192.383 79.2297 193.443 79.2297 194.766V194.867C79.2297 195.69 79.0708 196.43 78.7531 197.086C78.4406 197.737 77.9901 198.245 77.4016 198.609C76.8182 198.974 76.1463 199.156 75.3859 199.156C74.2401 199.156 73.3104 198.758 72.5969 197.961C71.8885 197.164 71.5344 196.109 71.5344 194.797V194.695ZM72.9875 194.867C72.9875 195.805 73.2036 196.557 73.6359 197.125C74.0734 197.693 74.6568 197.977 75.3859 197.977C76.1203 197.977 76.7036 197.69 77.1359 197.117C77.5682 196.539 77.7844 195.732 77.7844 194.695C77.7844 193.768 77.563 193.018 77.1203 192.445C76.6828 191.867 76.0995 191.578 75.3703 191.578C74.6568 191.578 74.0812 191.862 73.6437 192.43C73.2062 192.997 72.9875 193.81 72.9875 194.867ZM82.4094 190.547L82.4562 191.609C83.1021 190.797 83.9458 190.391 84.9875 190.391C86.7739 190.391 87.675 191.398 87.6906 193.414V199H86.2453V193.406C86.2401 192.797 86.0995 192.346 85.8234 192.055C85.5526 191.763 85.1281 191.617 84.55 191.617C84.0812 191.617 83.6698 191.742 83.3156 191.992C82.9614 192.242 82.6854 192.57 82.4875 192.977V199H81.0422V190.547H82.4094ZM95.8 188.5V190.547H97.3781V191.664H95.8V196.906C95.8 197.245 95.8703 197.5 96.0109 197.672C96.1516 197.839 96.3911 197.922 96.7297 197.922C96.8963 197.922 97.1255 197.891 97.4172 197.828V199C97.037 199.104 96.6672 199.156 96.3078 199.156C95.662 199.156 95.175 198.961 94.8469 198.57C94.5187 198.18 94.3547 197.625 94.3547 196.906V191.664H92.8156V190.547H94.3547V188.5H95.8ZM100.519 191.57C101.159 190.784 101.993 190.391 103.019 190.391C104.805 190.391 105.706 191.398 105.722 193.414V199H104.277V193.406C104.271 192.797 104.131 192.346 103.855 192.055C103.584 191.763 103.159 191.617 102.581 191.617C102.112 191.617 101.701 191.742 101.347 191.992C100.993 192.242 100.717 192.57 100.519 192.977V199H99.0734V187H100.519V191.57ZM111.394 199.156C110.248 199.156 109.316 198.781 108.597 198.031C107.878 197.276 107.519 196.268 107.519 195.008V194.742C107.519 193.904 107.678 193.156 107.995 192.5C108.318 191.839 108.766 191.323 109.339 190.953C109.917 190.578 110.542 190.391 111.214 190.391C112.313 190.391 113.167 190.753 113.777 191.477C114.386 192.201 114.691 193.237 114.691 194.586V195.188H108.964C108.985 196.021 109.227 196.695 109.691 197.211C110.159 197.721 110.753 197.977 111.472 197.977C111.982 197.977 112.415 197.872 112.769 197.664C113.123 197.456 113.433 197.18 113.698 196.836L114.581 197.523C113.873 198.612 112.81 199.156 111.394 199.156ZM111.214 191.578C110.631 191.578 110.141 191.792 109.745 192.219C109.349 192.641 109.105 193.234 109.011 194H113.245V193.891C113.204 193.156 113.006 192.589 112.652 192.188C112.297 191.781 111.818 191.578 111.214 191.578ZM123.917 193.93C122.631 193.56 121.693 193.107 121.105 192.57C120.521 192.029 120.23 191.362 120.23 190.57C120.23 189.674 120.586 188.935 121.3 188.352C122.019 187.763 122.951 187.469 124.097 187.469C124.878 187.469 125.573 187.62 126.183 187.922C126.797 188.224 127.271 188.641 127.605 189.172C127.943 189.703 128.112 190.284 128.112 190.914H126.605C126.605 190.227 126.386 189.688 125.948 189.297C125.511 188.901 124.894 188.703 124.097 188.703C123.357 188.703 122.779 188.867 122.362 189.195C121.951 189.518 121.745 189.969 121.745 190.547C121.745 191.01 121.941 191.404 122.331 191.727C122.727 192.044 123.396 192.336 124.339 192.602C125.287 192.867 126.027 193.161 126.558 193.484C127.094 193.802 127.49 194.174 127.745 194.602C128.006 195.029 128.136 195.531 128.136 196.109C128.136 197.031 127.777 197.771 127.058 198.328C126.339 198.88 125.378 199.156 124.175 199.156C123.394 199.156 122.665 199.008 121.987 198.711C121.31 198.409 120.787 197.997 120.417 197.477C120.053 196.956 119.87 196.365 119.87 195.703H121.378C121.378 196.391 121.631 196.935 122.136 197.336C122.646 197.732 123.326 197.93 124.175 197.93C124.967 197.93 125.573 197.768 125.995 197.445C126.417 197.122 126.628 196.682 126.628 196.125C126.628 195.568 126.433 195.138 126.042 194.836C125.652 194.529 124.943 194.227 123.917 193.93ZM135.058 198.164C134.495 198.826 133.67 199.156 132.581 199.156C131.68 199.156 130.993 198.896 130.519 198.375C130.05 197.849 129.813 197.073 129.808 196.047V190.547H131.253V196.008C131.253 197.289 131.774 197.93 132.816 197.93C133.92 197.93 134.654 197.518 135.019 196.695V190.547H136.464V199H135.089L135.058 198.164ZM140.034 190.547L140.081 191.609C140.727 190.797 141.571 190.391 142.612 190.391C144.399 190.391 145.3 191.398 145.316 193.414V199H143.87V193.406C143.865 192.797 143.724 192.346 143.448 192.055C143.178 191.763 142.753 191.617 142.175 191.617C141.706 191.617 141.295 191.742 140.941 191.992C140.586 192.242 140.31 192.57 140.112 192.977V199H138.667V190.547H140.034Z" fill="#180330"/>
<path d="M11.2285 85.2891H5.27148L3.93359 89H2L7.42969 74.7812H9.07031L14.5098 89H12.5859L11.2285 85.2891ZM5.83789 83.7461H10.6719L8.25 77.0957L5.83789 83.7461ZM22.8008 78.4336L22.8496 79.6055C23.6243 78.694 24.6693 78.2383 25.9844 78.2383C27.4622 78.2383 28.4681 78.8047 29.002 79.9375C29.3535 79.4297 29.8092 79.0195 30.3691 78.707C30.9355 78.3945 31.6029 78.2383 32.3711 78.2383C34.6888 78.2383 35.8672 79.4655 35.9062 81.9199V89H34.0996V82.0273C34.0996 81.2721 33.9271 80.709 33.582 80.3379C33.237 79.9603 32.6576 79.7715 31.8438 79.7715C31.1732 79.7715 30.6165 79.9733 30.1738 80.377C29.7311 80.7741 29.474 81.3112 29.4023 81.9883V89H27.5859V82.0762C27.5859 80.5397 26.834 79.7715 25.3301 79.7715C24.1452 79.7715 23.3346 80.276 22.8984 81.2852V89H21.0918V78.4336H22.8008ZM38.1621 83.6191C38.1621 82.584 38.3639 81.653 38.7676 80.8262C39.1777 79.9993 39.7441 79.3613 40.4668 78.9121C41.196 78.4629 42.026 78.2383 42.957 78.2383C44.3958 78.2383 45.5579 78.7363 46.4434 79.7324C47.3353 80.7285 47.7812 82.0534 47.7812 83.707V83.834C47.7812 84.8626 47.5827 85.7871 47.1855 86.6074C46.7949 87.4212 46.2318 88.056 45.4961 88.5117C44.7669 88.9674 43.9271 89.1953 42.9766 89.1953C41.5443 89.1953 40.3822 88.6973 39.4902 87.7012C38.6048 86.7051 38.1621 85.3867 38.1621 83.7461V83.6191ZM39.9785 83.834C39.9785 85.0059 40.2487 85.9466 40.7891 86.6562C41.3359 87.3659 42.0651 87.7207 42.9766 87.7207C43.8945 87.7207 44.6237 87.3626 45.1641 86.6465C45.7044 85.9238 45.9746 84.9147 45.9746 83.6191C45.9746 82.4603 45.6979 81.5228 45.1445 80.8066C44.5977 80.084 43.8685 79.7227 42.957 79.7227C42.0651 79.7227 41.3457 80.0775 40.7988 80.7871C40.252 81.4967 39.9785 82.5124 39.9785 83.834ZM49.6074 83.6289C49.6074 82.0078 49.9915 80.7057 50.7598 79.7227C51.528 78.7331 52.5339 78.2383 53.7773 78.2383C55.0143 78.2383 55.9941 78.6615 56.7168 79.5078V74H58.5234V89H56.8633L56.7754 87.8672C56.0527 88.7526 55.0469 89.1953 53.7578 89.1953C52.5339 89.1953 51.5345 88.694 50.7598 87.6914C49.9915 86.6888 49.6074 85.3802 49.6074 83.7656V83.6289ZM51.4141 83.834C51.4141 85.0319 51.6615 85.9694 52.1562 86.6465C52.651 87.3236 53.3346 87.6621 54.207 87.6621C55.3529 87.6621 56.1895 87.1478 56.7168 86.1191V81.2656C56.1764 80.2695 55.3464 79.7715 54.2266 79.7715C53.3411 79.7715 52.651 80.1133 52.1562 80.7969C51.6615 81.4805 51.4141 82.4928 51.4141 83.834ZM65.7207 89.1953C64.2884 89.1953 63.123 88.7266 62.2246 87.7891C61.3262 86.8451 60.877 85.5853 60.877 84.0098V83.6777C60.877 82.6296 61.0755 81.6953 61.4727 80.875C61.8763 80.0482 62.4362 79.4036 63.1523 78.9414C63.875 78.4727 64.6562 78.2383 65.4961 78.2383C66.8698 78.2383 67.9375 78.6908 68.6992 79.5957C69.4609 80.5007 69.8418 81.7962 69.8418 83.4824V84.2344H62.6836C62.7096 85.276 63.0124 86.1191 63.5918 86.7637C64.1777 87.4017 64.9199 87.7207 65.8184 87.7207C66.4564 87.7207 66.9967 87.5905 67.4395 87.3301C67.8822 87.0697 68.2695 86.7246 68.6016 86.2949L69.7051 87.1543C68.8197 88.515 67.4915 89.1953 65.7207 89.1953ZM65.4961 79.7227C64.7669 79.7227 64.1549 79.9896 63.6602 80.5234C63.1654 81.0508 62.8594 81.793 62.7422 82.75H68.0352V82.6133C67.9831 81.6953 67.7357 80.9857 67.293 80.4844C66.8503 79.9766 66.2513 79.7227 65.4961 79.7227ZM77.0488 80.0547C76.7754 80.0091 76.4792 79.9863 76.1602 79.9863C74.9753 79.9863 74.1712 80.4909 73.748 81.5V89H71.9414V78.4336H73.6992L73.7285 79.6543C74.321 78.7103 75.1608 78.2383 76.248 78.2383C76.5996 78.2383 76.8665 78.2839 77.0488 78.375V80.0547ZM80.4277 78.4336L80.4863 79.7617C81.2936 78.7461 82.3483 78.2383 83.6504 78.2383C85.8835 78.2383 87.0098 79.498 87.0293 82.0176V89H85.2227V82.0078C85.2161 81.2461 85.0404 80.6829 84.6953 80.3184C84.3568 79.9538 83.8262 79.7715 83.1035 79.7715C82.5176 79.7715 82.0033 79.9277 81.5605 80.2402C81.1178 80.5527 80.7728 80.9629 80.5254 81.4707V89H78.7188V78.4336H80.4277ZM101.238 89C101.134 88.7917 101.049 88.4206 100.984 87.8867C100.145 88.7591 99.1419 89.1953 97.9766 89.1953C96.9349 89.1953 96.0788 88.9023 95.4082 88.3164C94.7441 87.724 94.4121 86.9753 94.4121 86.0703C94.4121 84.9701 94.8288 84.1172 95.6621 83.5117C96.502 82.8997 97.6803 82.5938 99.1973 82.5938H100.955V81.7637C100.955 81.1322 100.766 80.6309 100.389 80.2598C100.011 79.8822 99.4544 79.6934 98.7188 79.6934C98.0742 79.6934 97.5339 79.8561 97.0977 80.1816C96.6615 80.5072 96.4434 80.901 96.4434 81.3633H94.627C94.627 80.8359 94.8125 80.3281 95.1836 79.8398C95.5612 79.3451 96.069 78.9544 96.707 78.668C97.3516 78.3815 98.0579 78.2383 98.8262 78.2383C100.044 78.2383 100.997 78.5443 101.688 79.1562C102.378 79.7617 102.736 80.5983 102.762 81.666V86.5293C102.762 87.4993 102.885 88.2708 103.133 88.8438V89H101.238ZM98.2402 87.623C98.8066 87.623 99.3438 87.4766 99.8516 87.1836C100.359 86.8906 100.727 86.5098 100.955 86.041V83.873H99.5391C97.3255 83.873 96.2188 84.5208 96.2188 85.8164C96.2188 86.3828 96.4076 86.8255 96.7852 87.1445C97.1628 87.4635 97.6478 87.623 98.2402 87.623ZM107.303 78.4336L107.361 79.7617C108.169 78.7461 109.223 78.2383 110.525 78.2383C112.758 78.2383 113.885 79.498 113.904 82.0176V89H112.098V82.0078C112.091 81.2461 111.915 80.6829 111.57 80.3184C111.232 79.9538 110.701 79.7715 109.979 79.7715C109.393 79.7715 108.878 79.9277 108.436 80.2402C107.993 80.5527 107.648 80.9629 107.4 81.4707V89H105.594V78.4336H107.303ZM116.189 83.6289C116.189 82.0078 116.574 80.7057 117.342 79.7227C118.11 78.7331 119.116 78.2383 120.359 78.2383C121.596 78.2383 122.576 78.6615 123.299 79.5078V74H125.105V89H123.445L123.357 87.8672C122.635 88.7526 121.629 89.1953 120.34 89.1953C119.116 89.1953 118.117 88.694 117.342 87.6914C116.574 86.6888 116.189 85.3802 116.189 83.7656V83.6289ZM117.996 83.834C117.996 85.0319 118.243 85.9694 118.738 86.6465C119.233 87.3236 119.917 87.6621 120.789 87.6621C121.935 87.6621 122.771 87.1478 123.299 86.1191V81.2656C122.758 80.2695 121.928 79.7715 120.809 79.7715C119.923 79.7715 119.233 80.1133 118.738 80.7969C118.243 81.4805 117.996 82.4928 117.996 83.834ZM137.264 89.1953C135.831 89.1953 134.666 88.7266 133.768 87.7891C132.869 86.8451 132.42 85.5853 132.42 84.0098V83.6777C132.42 82.6296 132.618 81.6953 133.016 80.875C133.419 80.0482 133.979 79.4036 134.695 78.9414C135.418 78.4727 136.199 78.2383 137.039 78.2383C138.413 78.2383 139.48 78.6908 140.242 79.5957C141.004 80.5007 141.385 81.7962 141.385 83.4824V84.2344H134.227C134.253 85.276 134.555 86.1191 135.135 86.7637C135.721 87.4017 136.463 87.7207 137.361 87.7207C137.999 87.7207 138.54 87.5905 138.982 87.3301C139.425 87.0697 139.812 86.7246 140.145 86.2949L141.248 87.1543C140.363 88.515 139.035 89.1953 137.264 89.1953ZM137.039 79.7227C136.31 79.7227 135.698 79.9896 135.203 80.5234C134.708 81.0508 134.402 81.793 134.285 82.75H139.578V82.6133C139.526 81.6953 139.279 80.9857 138.836 80.4844C138.393 79.9766 137.794 79.7227 137.039 79.7227ZM145.447 89H143.641V74H145.447V89ZM152.732 89.1953C151.3 89.1953 150.135 88.7266 149.236 87.7891C148.338 86.8451 147.889 85.5853 147.889 84.0098V83.6777C147.889 82.6296 148.087 81.6953 148.484 80.875C148.888 80.0482 149.448 79.4036 150.164 78.9414C150.887 78.4727 151.668 78.2383 152.508 78.2383C153.882 78.2383 154.949 78.6908 155.711 79.5957C156.473 80.5007 156.854 81.7962 156.854 83.4824V84.2344H149.695C149.721 85.276 150.024 86.1191 150.604 86.7637C151.189 87.4017 151.932 87.7207 152.83 87.7207C153.468 87.7207 154.008 87.5905 154.451 87.3301C154.894 87.0697 155.281 86.7246 155.613 86.2949L156.717 87.1543C155.831 88.515 154.503 89.1953 152.732 89.1953ZM152.508 79.7227C151.779 79.7227 151.167 79.9896 150.672 80.5234C150.177 81.0508 149.871 81.793 149.754 82.75H155.047V82.6133C154.995 81.6953 154.747 80.9857 154.305 80.4844C153.862 79.9766 153.263 79.7227 152.508 79.7227ZM158.523 83.6289C158.523 81.9818 158.904 80.6732 159.666 79.7031C160.428 78.7266 161.437 78.2383 162.693 78.2383C163.982 78.2383 164.988 78.694 165.711 79.6055L165.799 78.4336H167.449V88.7461C167.449 90.1133 167.042 91.1908 166.229 91.9785C165.421 92.7663 164.334 93.1602 162.967 93.1602C162.205 93.1602 161.46 92.9974 160.73 92.6719C160.001 92.3464 159.445 91.9004 159.061 91.334L159.998 90.25C160.773 91.207 161.72 91.6855 162.84 91.6855C163.719 91.6855 164.402 91.4382 164.891 90.9434C165.385 90.4486 165.633 89.752 165.633 88.8535V87.9453C164.91 88.7786 163.924 89.1953 162.674 89.1953C161.437 89.1953 160.434 88.6973 159.666 87.7012C158.904 86.7051 158.523 85.3477 158.523 83.6289ZM160.34 83.834C160.34 85.0254 160.584 85.9629 161.072 86.6465C161.561 87.3236 162.244 87.6621 163.123 87.6621C164.262 87.6621 165.099 87.1445 165.633 86.1094V81.2852C165.079 80.276 164.249 79.7715 163.143 79.7715C162.264 79.7715 161.577 80.1133 161.082 80.7969C160.587 81.4805 160.34 82.4928 160.34 83.834ZM176.707 89C176.603 88.7917 176.518 88.4206 176.453 87.8867C175.613 88.7591 174.611 89.1953 173.445 89.1953C172.404 89.1953 171.548 88.9023 170.877 88.3164C170.213 87.724 169.881 86.9753 169.881 86.0703C169.881 84.9701 170.298 84.1172 171.131 83.5117C171.971 82.8997 173.149 82.5938 174.666 82.5938H176.424V81.7637C176.424 81.1322 176.235 80.6309 175.857 80.2598C175.48 79.8822 174.923 79.6934 174.188 79.6934C173.543 79.6934 173.003 79.8561 172.566 80.1816C172.13 80.5072 171.912 80.901 171.912 81.3633H170.096C170.096 80.8359 170.281 80.3281 170.652 79.8398C171.03 79.3451 171.538 78.9544 172.176 78.668C172.82 78.3815 173.527 78.2383 174.295 78.2383C175.512 78.2383 176.466 78.5443 177.156 79.1562C177.846 79.7617 178.204 80.5983 178.23 81.666V86.5293C178.23 87.4993 178.354 88.2708 178.602 88.8438V89H176.707ZM173.709 87.623C174.275 87.623 174.812 87.4766 175.32 87.1836C175.828 86.8906 176.196 86.5098 176.424 86.041V83.873H175.008C172.794 83.873 171.688 84.5208 171.688 85.8164C171.688 86.3828 171.876 86.8255 172.254 87.1445C172.632 87.4635 173.117 87.623 173.709 87.623ZM182.771 78.4336L182.83 79.7617C183.637 78.7461 184.692 78.2383 185.994 78.2383C188.227 78.2383 189.354 79.498 189.373 82.0176V89H187.566V82.0078C187.56 81.2461 187.384 80.6829 187.039 80.3184C186.701 79.9538 186.17 79.7715 185.447 79.7715C184.861 79.7715 184.347 79.9277 183.904 80.2402C183.462 80.5527 183.117 80.9629 182.869 81.4707V89H181.062V78.4336H182.771ZM194.549 75.875V78.4336H196.521V79.8301H194.549V86.3828C194.549 86.806 194.637 87.125 194.812 87.3398C194.988 87.5482 195.288 87.6523 195.711 87.6523C195.919 87.6523 196.206 87.6133 196.57 87.5352V89C196.095 89.1302 195.633 89.1953 195.184 89.1953C194.376 89.1953 193.768 88.9512 193.357 88.4629C192.947 87.9746 192.742 87.2812 192.742 86.3828V79.8301H190.818V78.4336H192.742V75.875H194.549ZM17.791 117.51L19.8223 109.434H21.6289L18.5527 120H17.0879L14.5195 111.992L12.0195 120H10.5547L7.48828 109.434H9.28516L11.3652 117.344L13.8262 109.434H15.2812L17.791 117.51ZM27.8594 120.195C26.4271 120.195 25.2617 119.727 24.3633 118.789C23.4648 117.845 23.0156 116.585 23.0156 115.01V114.678C23.0156 113.63 23.2142 112.695 23.6113 111.875C24.015 111.048 24.5749 110.404 25.291 109.941C26.0137 109.473 26.7949 109.238 27.6348 109.238C29.0085 109.238 30.0762 109.691 30.8379 110.596C31.5996 111.501 31.9805 112.796 31.9805 114.482V115.234H24.8223C24.8483 116.276 25.151 117.119 25.7305 117.764C26.3164 118.402 27.0586 118.721 27.957 118.721C28.5951 118.721 29.1354 118.59 29.5781 118.33C30.0208 118.07 30.4082 117.725 30.7402 117.295L31.8438 118.154C30.9583 119.515 29.6302 120.195 27.8594 120.195ZM27.6348 110.723C26.9056 110.723 26.2936 110.99 25.7988 111.523C25.304 112.051 24.998 112.793 24.8809 113.75H30.1738V113.613C30.1217 112.695 29.8743 111.986 29.4316 111.484C28.9889 110.977 28.39 110.723 27.6348 110.723ZM43.0254 114.834C43.0254 116.449 42.6543 117.747 41.9121 118.73C41.1699 119.707 40.1738 120.195 38.9238 120.195C37.5892 120.195 36.5573 119.723 35.8281 118.779L35.7402 120H34.0801V105H35.8867V110.596C36.6159 109.691 37.6217 109.238 38.9043 109.238C40.1868 109.238 41.1927 109.723 41.9219 110.693C42.6576 111.663 43.0254 112.992 43.0254 114.678V114.834ZM41.2188 114.629C41.2188 113.398 40.9811 112.448 40.5059 111.777C40.0306 111.107 39.347 110.771 38.4551 110.771C37.2637 110.771 36.4076 111.325 35.8867 112.432V117.002C36.4401 118.109 37.3027 118.662 38.4746 118.662C39.3405 118.662 40.0143 118.327 40.4961 117.656C40.9779 116.986 41.2188 115.977 41.2188 114.629ZM51.4629 117.197C51.4629 116.709 51.2773 116.331 50.9062 116.064C50.5417 115.791 49.9004 115.557 48.9824 115.361C48.071 115.166 47.3451 114.932 46.8047 114.658C46.2708 114.385 45.8737 114.059 45.6133 113.682C45.3594 113.304 45.2324 112.855 45.2324 112.334C45.2324 111.468 45.597 110.736 46.3262 110.137C47.0618 109.538 47.9993 109.238 49.1387 109.238C50.3366 109.238 51.3066 109.548 52.0488 110.166C52.7975 110.785 53.1719 111.576 53.1719 112.539H51.3555C51.3555 112.044 51.1439 111.618 50.7207 111.26C50.304 110.902 49.7767 110.723 49.1387 110.723C48.4811 110.723 47.9668 110.866 47.5957 111.152C47.2246 111.439 47.0391 111.813 47.0391 112.275C47.0391 112.712 47.2116 113.04 47.5566 113.262C47.9017 113.483 48.5234 113.695 49.4219 113.896C50.3268 114.098 51.0592 114.339 51.6191 114.619C52.179 114.899 52.5924 115.238 52.8594 115.635C53.1328 116.025 53.2695 116.504 53.2695 117.07C53.2695 118.014 52.8919 118.773 52.1367 119.346C51.3815 119.912 50.4017 120.195 49.1973 120.195C48.3509 120.195 47.6022 120.046 46.9512 119.746C46.3001 119.447 45.7891 119.03 45.418 118.496C45.0534 117.956 44.8711 117.373 44.8711 116.748H46.6777C46.7103 117.354 46.9512 117.835 47.4004 118.193C47.8561 118.545 48.4551 118.721 49.1973 118.721C49.8809 118.721 50.4277 118.584 50.8379 118.311C51.2546 118.031 51.4629 117.66 51.4629 117.197ZM57.5859 120H55.7793V109.434H57.5859V120ZM55.6328 106.631C55.6328 106.338 55.7207 106.09 55.8965 105.889C56.0788 105.687 56.3457 105.586 56.6973 105.586C57.0488 105.586 57.3158 105.687 57.498 105.889C57.6803 106.09 57.7715 106.338 57.7715 106.631C57.7715 106.924 57.6803 107.168 57.498 107.363C57.3158 107.559 57.0488 107.656 56.6973 107.656C56.3457 107.656 56.0788 107.559 55.8965 107.363C55.7207 107.168 55.6328 106.924 55.6328 106.631ZM62.9375 106.875V109.434H64.9102V110.83H62.9375V117.383C62.9375 117.806 63.0254 118.125 63.2012 118.34C63.377 118.548 63.6764 118.652 64.0996 118.652C64.3079 118.652 64.5944 118.613 64.959 118.535V120C64.4837 120.13 64.0215 120.195 63.5723 120.195C62.765 120.195 62.1562 119.951 61.7461 119.463C61.3359 118.975 61.1309 118.281 61.1309 117.383V110.83H59.207V109.434H61.1309V106.875H62.9375ZM71.4141 120.195C69.9818 120.195 68.8164 119.727 67.918 118.789C67.0195 117.845 66.5703 116.585 66.5703 115.01V114.678C66.5703 113.63 66.7689 112.695 67.166 111.875C67.5697 111.048 68.1296 110.404 68.8457 109.941C69.5684 109.473 70.3496 109.238 71.1895 109.238C72.5632 109.238 73.6309 109.691 74.3926 110.596C75.1543 111.501 75.5352 112.796 75.5352 114.482V115.234H68.377C68.403 116.276 68.7057 117.119 69.2852 117.764C69.8711 118.402 70.6133 118.721 71.5117 118.721C72.1497 118.721 72.6901 118.59 73.1328 118.33C73.5755 118.07 73.9629 117.725 74.2949 117.295L75.3984 118.154C74.513 119.515 73.1849 120.195 71.4141 120.195ZM71.1895 110.723C70.4603 110.723 69.8483 110.99 69.3535 111.523C68.8587 112.051 68.5527 112.793 68.4355 113.75H73.7285V113.613C73.6764 112.695 73.429 111.986 72.9863 111.484C72.5436 110.977 71.9447 110.723 71.1895 110.723ZM77.5762 122.832L76.5508 122.129C77.1628 121.276 77.4818 120.397 77.5078 119.492V117.861H79.2754V119.277C79.2754 119.935 79.1126 120.592 78.7871 121.25C78.4681 121.908 78.0645 122.435 77.5762 122.832ZM86.082 114.629C86.082 113.008 86.4661 111.706 87.2344 110.723C88.0026 109.733 89.0085 109.238 90.252 109.238C91.4889 109.238 92.4688 109.661 93.1914 110.508V105H94.998V120H93.3379L93.25 118.867C92.5273 119.753 91.5215 120.195 90.2324 120.195C89.0085 120.195 88.0091 119.694 87.2344 118.691C86.4661 117.689 86.082 116.38 86.082 114.766V114.629ZM87.8887 114.834C87.8887 116.032 88.1361 116.969 88.6309 117.646C89.1257 118.324 89.8092 118.662 90.6816 118.662C91.8275 118.662 92.6641 118.148 93.1914 117.119V112.266C92.651 111.27 91.821 110.771 90.7012 110.771C89.8158 110.771 89.1257 111.113 88.6309 111.797C88.1361 112.48 87.8887 113.493 87.8887 114.834ZM102.195 120.195C100.763 120.195 99.5977 119.727 98.6992 118.789C97.8008 117.845 97.3516 116.585 97.3516 115.01V114.678C97.3516 113.63 97.5501 112.695 97.9473 111.875C98.3509 111.048 98.9108 110.404 99.627 109.941C100.35 109.473 101.131 109.238 101.971 109.238C103.344 109.238 104.412 109.691 105.174 110.596C105.936 111.501 106.316 112.796 106.316 114.482V115.234H99.1582C99.1842 116.276 99.487 117.119 100.066 117.764C100.652 118.402 101.395 118.721 102.293 118.721C102.931 118.721 103.471 118.59 103.914 118.33C104.357 118.07 104.744 117.725 105.076 117.295L106.18 118.154C105.294 119.515 103.966 120.195 102.195 120.195ZM101.971 110.723C101.242 110.723 100.63 110.99 100.135 111.523C99.64 112.051 99.334 112.793 99.2168 113.75H104.51V113.613C104.458 112.695 104.21 111.986 103.768 111.484C103.325 110.977 102.726 110.723 101.971 110.723ZM114.568 117.197C114.568 116.709 114.383 116.331 114.012 116.064C113.647 115.791 113.006 115.557 112.088 115.361C111.176 115.166 110.451 114.932 109.91 114.658C109.376 114.385 108.979 114.059 108.719 113.682C108.465 113.304 108.338 112.855 108.338 112.334C108.338 111.468 108.702 110.736 109.432 110.137C110.167 109.538 111.105 109.238 112.244 109.238C113.442 109.238 114.412 109.548 115.154 110.166C115.903 110.785 116.277 111.576 116.277 112.539H114.461C114.461 112.044 114.249 111.618 113.826 111.26C113.41 110.902 112.882 110.723 112.244 110.723C111.587 110.723 111.072 110.866 110.701 111.152C110.33 111.439 110.145 111.813 110.145 112.275C110.145 112.712 110.317 113.04 110.662 113.262C111.007 113.483 111.629 113.695 112.527 113.896C113.432 114.098 114.165 114.339 114.725 114.619C115.285 114.899 115.698 115.238 115.965 115.635C116.238 116.025 116.375 116.504 116.375 117.07C116.375 118.014 115.997 118.773 115.242 119.346C114.487 119.912 113.507 120.195 112.303 120.195C111.456 120.195 110.708 120.046 110.057 119.746C109.406 119.447 108.895 119.03 108.523 118.496C108.159 117.956 107.977 117.373 107.977 116.748H109.783C109.816 117.354 110.057 117.835 110.506 118.193C110.962 118.545 111.561 118.721 112.303 118.721C112.986 118.721 113.533 118.584 113.943 118.311C114.36 118.031 114.568 117.66 114.568 117.197ZM120.691 120H118.885V109.434H120.691V120ZM118.738 106.631C118.738 106.338 118.826 106.09 119.002 105.889C119.184 105.687 119.451 105.586 119.803 105.586C120.154 105.586 120.421 105.687 120.604 105.889C120.786 106.09 120.877 106.338 120.877 106.631C120.877 106.924 120.786 107.168 120.604 107.363C120.421 107.559 120.154 107.656 119.803 107.656C119.451 107.656 119.184 107.559 119.002 107.363C118.826 107.168 118.738 106.924 118.738 106.631ZM123.162 114.629C123.162 112.982 123.543 111.673 124.305 110.703C125.066 109.727 126.076 109.238 127.332 109.238C128.621 109.238 129.627 109.694 130.35 110.605L130.438 109.434H132.088V119.746C132.088 121.113 131.681 122.191 130.867 122.979C130.06 123.766 128.973 124.16 127.605 124.16C126.844 124.16 126.098 123.997 125.369 123.672C124.64 123.346 124.083 122.9 123.699 122.334L124.637 121.25C125.411 122.207 126.359 122.686 127.479 122.686C128.357 122.686 129.041 122.438 129.529 121.943C130.024 121.449 130.271 120.752 130.271 119.854V118.945C129.549 119.779 128.562 120.195 127.312 120.195C126.076 120.195 125.073 119.697 124.305 118.701C123.543 117.705 123.162 116.348 123.162 114.629ZM124.979 114.834C124.979 116.025 125.223 116.963 125.711 117.646C126.199 118.324 126.883 118.662 127.762 118.662C128.901 118.662 129.738 118.145 130.271 117.109V112.285C129.718 111.276 128.888 110.771 127.781 110.771C126.902 110.771 126.215 111.113 125.721 111.797C125.226 112.48 124.979 113.493 124.979 114.834ZM136.531 109.434L136.59 110.762C137.397 109.746 138.452 109.238 139.754 109.238C141.987 109.238 143.113 110.498 143.133 113.018V120H141.326V113.008C141.32 112.246 141.144 111.683 140.799 111.318C140.46 110.954 139.93 110.771 139.207 110.771C138.621 110.771 138.107 110.928 137.664 111.24C137.221 111.553 136.876 111.963 136.629 112.471V120H134.822V109.434H136.531ZM150.242 120.195C148.81 120.195 147.645 119.727 146.746 118.789C145.848 117.845 145.398 116.585 145.398 115.01V114.678C145.398 113.63 145.597 112.695 145.994 111.875C146.398 111.048 146.958 110.404 147.674 109.941C148.396 109.473 149.178 109.238 150.018 109.238C151.391 109.238 152.459 109.691 153.221 110.596C153.982 111.501 154.363 112.796 154.363 114.482V115.234H147.205C147.231 116.276 147.534 117.119 148.113 117.764C148.699 118.402 149.441 118.721 150.34 118.721C150.978 118.721 151.518 118.59 151.961 118.33C152.404 118.07 152.791 117.725 153.123 117.295L154.227 118.154C153.341 119.515 152.013 120.195 150.242 120.195ZM150.018 110.723C149.288 110.723 148.676 110.99 148.182 111.523C147.687 112.051 147.381 112.793 147.264 113.75H152.557V113.613C152.505 112.695 152.257 111.986 151.814 111.484C151.372 110.977 150.773 110.723 150.018 110.723ZM156.023 114.629C156.023 113.008 156.408 111.706 157.176 110.723C157.944 109.733 158.95 109.238 160.193 109.238C161.43 109.238 162.41 109.661 163.133 110.508V105H164.939V120H163.279L163.191 118.867C162.469 119.753 161.463 120.195 160.174 120.195C158.95 120.195 157.951 119.694 157.176 118.691C156.408 117.689 156.023 116.38 156.023 114.766V114.629ZM157.83 114.834C157.83 116.032 158.077 116.969 158.572 117.646C159.067 118.324 159.751 118.662 160.623 118.662C161.769 118.662 162.605 118.148 163.133 117.119V112.266C162.592 111.27 161.762 110.771 160.643 110.771C159.757 110.771 159.067 111.113 158.572 111.797C158.077 112.48 157.83 113.493 157.83 114.834ZM181.658 114.834C181.658 116.449 181.287 117.747 180.545 118.73C179.803 119.707 178.807 120.195 177.557 120.195C176.222 120.195 175.19 119.723 174.461 118.779L174.373 120H172.713V105H174.52V110.596C175.249 109.691 176.255 109.238 177.537 109.238C178.82 109.238 179.826 109.723 180.555 110.693C181.29 111.663 181.658 112.992 181.658 114.678V114.834ZM179.852 114.629C179.852 113.398 179.614 112.448 179.139 111.777C178.663 111.107 177.98 110.771 177.088 110.771C175.896 110.771 175.04 111.325 174.52 112.432V117.002C175.073 118.109 175.936 118.662 177.107 118.662C177.973 118.662 178.647 118.327 179.129 117.656C179.611 116.986 179.852 115.977 179.852 114.629ZM187.283 117.354L189.744 109.434H191.678L187.43 121.631C186.772 123.389 185.727 124.268 184.295 124.268L183.953 124.238L183.279 124.111V122.646L183.768 122.686C184.38 122.686 184.855 122.562 185.193 122.314C185.538 122.067 185.822 121.615 186.043 120.957L186.443 119.883L182.674 109.434H184.646L187.283 117.354ZM72.5469 151V136.781H77.1953C78.7383 136.781 79.8971 137.1 80.6719 137.738C81.4531 138.376 81.8438 139.32 81.8438 140.57C81.8438 141.234 81.6549 141.824 81.2773 142.338C80.8997 142.846 80.3854 143.24 79.7344 143.52C80.5026 143.734 81.1081 144.145 81.5508 144.75C82 145.349 82.2246 146.065 82.2246 146.898C82.2246 148.174 81.8112 149.177 80.9844 149.906C80.1576 150.635 78.9889 151 77.4785 151H72.5469ZM74.4219 144.35V149.467H77.5176C78.39 149.467 79.0768 149.242 79.5781 148.793C80.0859 148.337 80.3398 147.712 80.3398 146.918C80.3398 145.206 79.4089 144.35 77.5469 144.35H74.4219ZM74.4219 142.846H77.2539C78.0742 142.846 78.7285 142.641 79.2168 142.23C79.7116 141.82 79.959 141.264 79.959 140.561C79.959 139.779 79.7311 139.213 79.2754 138.861C78.8197 138.503 78.1263 138.324 77.1953 138.324H74.4219V142.846ZM95.4668 146.488C95.291 147.992 94.7344 149.154 93.7969 149.975C92.8659 150.788 91.6257 151.195 90.0762 151.195C88.3965 151.195 87.0488 150.593 86.0332 149.389C85.0241 148.184 84.5195 146.573 84.5195 144.555V143.188C84.5195 141.866 84.7539 140.704 85.2227 139.701C85.6979 138.699 86.3685 137.93 87.2344 137.396C88.1003 136.856 89.1029 136.586 90.2422 136.586C91.7526 136.586 92.9635 137.009 93.875 137.855C94.7865 138.695 95.3171 139.861 95.4668 141.352H93.582C93.4193 140.219 93.0645 139.398 92.5176 138.891C91.9772 138.383 91.2188 138.129 90.2422 138.129C89.0443 138.129 88.1035 138.572 87.4199 139.457C86.7428 140.342 86.4043 141.602 86.4043 143.236V144.613C86.4043 146.156 86.7266 147.383 87.3711 148.295C88.0156 149.206 88.9173 149.662 90.0762 149.662C91.1178 149.662 91.9154 149.428 92.4688 148.959C93.0286 148.484 93.3997 147.66 93.582 146.488H95.4668ZM100.457 136.781L105.105 148.383L109.754 136.781H112.186V151H110.311V145.463L110.486 139.486L105.818 151H104.383L99.7246 139.516L99.9102 145.463V151H98.0352V136.781H100.457ZM126.424 151H124.539V144.428H117.371V151H115.496V136.781H117.371V142.895H124.539V136.781H126.424V151Z" fill="#180330"/>
<path d="M115.56 23.0156C115.52 22.9422 115.457 22.8743 115.373 22.8158C115.289 22.7573 115.186 22.7094 115.071 22.6749C114.956 22.6404 114.831 22.6199 114.703 22.6147C114.574 22.6095 114.446 22.6197 114.324 22.6447C114.08 22.6989 113.882 22.8079 113.77 22.9487C113.658 23.0894 113.641 23.2507 113.724 23.3986C116.494 28.3698 117.955 33.57 118.054 38.8115H91.062C90.8236 38.8319 90.6055 38.9032 90.4477 39.0124C90.29 39.1216 90.2031 39.2612 90.2031 39.4058C90.2031 39.5503 90.29 39.69 90.4477 39.7991C90.6055 39.9083 90.8236 39.9796 91.062 40H119.026C119.155 39.9994 119.282 39.9835 119.401 39.9533C119.52 39.9231 119.628 39.8792 119.718 39.824C119.808 39.7688 119.88 39.7035 119.928 39.6317C119.977 39.5599 120.001 39.4832 120 39.4058C120.004 33.8343 118.504 28.2993 115.56 23.0156ZM119.508 7.02281C114.61 4.01745 107.974 2.25847 100.974 2.11044V0.584634C100.974 0.429579 100.871 0.280875 100.689 0.171235C100.506 0.0615952 100.258 0 100 0C99.7417 0 99.4939 0.0615952 99.3113 0.171235C99.1286 0.280875 99.026 0.429579 99.026 0.584634V2.11044C92.0263 2.25847 85.3898 4.01745 80.492 7.02281C80.3088 7.13501 80.2062 7.28586 80.2062 7.44298C80.2062 7.60009 80.3088 7.75094 80.492 7.86315C80.5816 7.91817 80.6886 7.9619 80.8068 7.99175C80.9249 8.02161 81.0518 8.03698 81.18 8.03698C81.3082 8.03698 81.4351 8.02161 81.5533 7.99175C81.6714 7.9619 81.7784 7.91817 81.868 7.86315C82.9916 7.17685 84.2196 6.5551 85.536 6.006L88.958 16.4502L88.806 16.6351C83.0233 23.7244 80.0116 31.5123 80 39.4058C79.999 39.4832 80.0233 39.5599 80.0717 39.6317C80.1201 39.7035 80.1915 39.7688 80.282 39.824C80.3724 39.8792 80.4801 39.9231 80.5988 39.9533C80.7176 39.9835 80.8451 39.9994 80.974 40H87.816C88.0544 39.9796 88.2725 39.9083 88.4303 39.7991C88.5881 39.69 88.675 39.5503 88.675 39.4058C88.675 39.2612 88.5881 39.1216 88.4303 39.0124C88.2725 38.9032 88.0544 38.8319 87.816 38.8115H81.954C82.1134 31.304 85.0509 23.9117 90.554 17.1693L90.586 17.1297H109.426L109.458 17.1693C110.604 18.5681 111.64 19.9983 112.564 21.455C112.633 21.566 112.757 21.6618 112.92 21.7295C113.082 21.7973 113.274 21.8338 113.472 21.8343C113.632 21.8343 113.791 21.8106 113.932 21.7654C114.074 21.7201 114.195 21.6546 114.285 21.5747C114.374 21.4948 114.43 21.4029 114.446 21.3071C114.463 21.2113 114.44 21.1145 114.38 21.0252C113.434 19.5337 112.373 18.0696 111.2 16.6375L111.048 16.4526L114.47 6.0084C115.786 6.55752 117.013 7.17927 118.136 7.86555C118.226 7.92061 118.333 7.96436 118.451 7.99423C118.57 8.0241 118.697 8.03948 118.825 8.03948C118.953 8.03948 119.08 8.0241 119.199 7.99423C119.317 7.96436 119.424 7.92061 119.514 7.86555C119.698 7.75277 119.8 7.60114 119.799 7.44344C119.798 7.28574 119.693 7.13464 119.508 7.02281ZM107.46 3.95918C107.028 4.94908 106.061 5.8251 104.711 6.45028C103.362 7.07547 101.705 7.41456 100 7.41456C98.2951 7.41456 96.6383 7.07547 95.2886 6.45028C93.9388 5.8251 92.9723 4.94908 92.54 3.95918C97.4014 3.06362 102.599 3.06362 107.46 3.95918ZM109.224 15.9412H90.778L87.3 5.33253C88.391 4.95382 89.5275 4.62438 90.7 4.34694C91.2258 5.4447 92.2673 6.4283 93.7 7.18007C95.4449 8.0979 97.6859 8.6039 100.006 8.6039C102.326 8.6039 104.567 8.0979 106.312 7.18007C107.745 6.4283 108.786 5.4447 109.312 4.34694C110.484 4.62438 111.621 4.95382 112.712 5.33253L109.224 15.9412Z" fill="black"/>
</svg>
