<svg width="223" height="260" viewBox="0 0 223 260" fill="none" xmlns="http://www.w3.org/2000/svg">
<path d="M55.0671 224.398H52.3953V229H50.8875V217.625H54.6531C55.9343 217.625 56.9187 217.917 57.6062 218.5C58.2989 219.083 58.6453 219.932 58.6453 221.047C58.6453 221.755 58.4526 222.372 58.0671 222.898C57.6869 223.424 57.1557 223.818 56.4734 224.078L59.1453 228.906V229H57.5359L55.0671 224.398ZM52.3953 223.172H54.7C55.4447 223.172 56.0359 222.979 56.4734 222.594C56.9161 222.208 57.1375 221.693 57.1375 221.047C57.1375 220.344 56.9265 219.805 56.5046 219.43C56.088 219.055 55.4838 218.865 54.6921 218.859H52.3953V223.172ZM60.1453 224.695C60.1453 223.867 60.3067 223.122 60.6296 222.461C60.9578 221.799 61.4109 221.289 61.989 220.93C62.5723 220.57 63.2364 220.391 63.9812 220.391C65.1322 220.391 66.0619 220.789 66.7703 221.586C67.4838 222.383 67.8406 223.443 67.8406 224.766V224.867C67.8406 225.69 67.6817 226.43 67.364 227.086C67.0515 227.737 66.601 228.245 66.0125 228.609C65.4291 228.974 64.7572 229.156 63.9968 229.156C62.851 229.156 61.9213 228.758 61.2078 227.961C60.4994 227.164 60.1453 226.109 60.1453 224.797V224.695ZM61.5984 224.867C61.5984 225.805 61.8145 226.557 62.2468 227.125C62.6843 227.693 63.2677 227.977 63.9968 227.977C64.7312 227.977 65.3145 227.69 65.7468 227.117C66.1791 226.539 66.3953 225.732 66.3953 224.695C66.3953 223.768 66.1739 223.018 65.7312 222.445C65.2937 221.867 64.7104 221.578 63.9812 221.578C63.2677 221.578 62.6921 221.862 62.2546 222.43C61.8171 222.997 61.5984 223.81 61.5984 224.867ZM69.3015 224.703C69.3015 223.406 69.6088 222.365 70.2234 221.578C70.838 220.786 71.6427 220.391 72.6375 220.391C73.627 220.391 74.4109 220.729 74.989 221.406V217H76.4343V229H75.1062L75.0359 228.094C74.4578 228.802 73.6531 229.156 72.6218 229.156C71.6427 229.156 70.8432 228.755 70.2234 227.953C69.6088 227.151 69.3015 226.104 69.3015 224.812V224.703ZM70.7468 224.867C70.7468 225.826 70.9447 226.576 71.3406 227.117C71.7364 227.659 72.2833 227.93 72.9812 227.93C73.8979 227.93 74.5671 227.518 74.989 226.695V222.812C74.5567 222.016 73.8927 221.617 72.9968 221.617C72.2885 221.617 71.7364 221.891 71.3406 222.438C70.9447 222.984 70.7468 223.794 70.7468 224.867ZM82.1921 229.156C81.0463 229.156 80.114 228.781 79.3953 228.031C78.6765 227.276 78.3171 226.268 78.3171 225.008V224.742C78.3171 223.904 78.476 223.156 78.7937 222.5C79.1166 221.839 79.5645 221.323 80.1375 220.953C80.7156 220.578 81.3406 220.391 82.0125 220.391C83.1114 220.391 83.9656 220.753 84.575 221.477C85.1843 222.201 85.489 223.237 85.489 224.586V225.188H79.7625C79.7833 226.021 80.0255 226.695 80.489 227.211C80.9578 227.721 81.5515 227.977 82.2703 227.977C82.7807 227.977 83.213 227.872 83.5671 227.664C83.9213 227.456 84.2312 227.18 84.4968 226.836L85.3796 227.523C84.6713 228.612 83.6088 229.156 82.1921 229.156ZM82.0125 221.578C81.4291 221.578 80.9395 221.792 80.5437 222.219C80.1479 222.641 79.9031 223.234 79.8093 224H84.0437V223.891C84.002 223.156 83.8041 222.589 83.45 222.188C83.0958 221.781 82.6166 221.578 82.0125 221.578ZM91.2546 221.844C91.0359 221.807 90.7989 221.789 90.5437 221.789C89.5958 221.789 88.9526 222.193 88.614 223V229H87.1687V220.547H88.575L88.5984 221.523C89.0723 220.768 89.7442 220.391 90.614 220.391C90.8953 220.391 91.1088 220.427 91.2546 220.5V221.844ZM94.1609 229H92.7156V220.547H94.1609V229ZM92.5984 218.305C92.5984 218.07 92.6687 217.872 92.8093 217.711C92.9552 217.549 93.1687 217.469 93.45 217.469C93.7312 217.469 93.9447 217.549 94.0906 217.711C94.2364 217.872 94.3093 218.07 94.3093 218.305C94.3093 218.539 94.2364 218.734 94.0906 218.891C93.9447 219.047 93.7312 219.125 93.45 219.125C93.1687 219.125 92.9552 219.047 92.8093 218.891C92.6687 218.734 92.5984 218.539 92.5984 218.305ZM99.8718 227.977C100.387 227.977 100.838 227.82 101.223 227.508C101.609 227.195 101.822 226.805 101.864 226.336H103.231C103.205 226.82 103.038 227.281 102.731 227.719C102.424 228.156 102.012 228.505 101.497 228.766C100.986 229.026 100.445 229.156 99.8718 229.156C98.7208 229.156 97.8041 228.773 97.1218 228.008C96.4447 227.237 96.1062 226.185 96.1062 224.852V224.609C96.1062 223.786 96.2572 223.055 96.5593 222.414C96.8614 221.773 97.2937 221.276 97.8562 220.922C98.4239 220.568 99.0932 220.391 99.864 220.391C100.812 220.391 101.598 220.674 102.223 221.242C102.854 221.81 103.19 222.547 103.231 223.453H101.864C101.822 222.906 101.614 222.458 101.239 222.109C100.869 221.755 100.411 221.578 99.864 221.578C99.1296 221.578 98.5593 221.844 98.1531 222.375C97.752 222.901 97.5515 223.664 97.5515 224.664V224.938C97.5515 225.911 97.752 226.661 98.1531 227.188C98.5541 227.714 99.127 227.977 99.8718 227.977ZM107.216 225.086L106.309 226.031V229H104.864V217H106.309V224.258L107.083 223.328L109.716 220.547H111.473L108.184 224.078L111.856 229H110.161L107.216 225.086ZM116.583 224.703C116.583 223.406 116.89 222.365 117.505 221.578C118.119 220.786 118.924 220.391 119.919 220.391C120.908 220.391 121.692 220.729 122.27 221.406V217H123.716V229H122.387L122.317 228.094C121.739 228.802 120.934 229.156 119.903 229.156C118.924 229.156 118.124 228.755 117.505 227.953C116.89 227.151 116.583 226.104 116.583 224.812V224.703ZM118.028 224.867C118.028 225.826 118.226 226.576 118.622 227.117C119.018 227.659 119.565 227.93 120.262 227.93C121.179 227.93 121.848 227.518 122.27 226.695V222.812C121.838 222.016 121.174 221.617 120.278 221.617C119.57 221.617 119.018 221.891 118.622 222.438C118.226 222.984 118.028 223.794 118.028 224.867ZM129.473 229.156C128.328 229.156 127.395 228.781 126.677 228.031C125.958 227.276 125.598 226.268 125.598 225.008V224.742C125.598 223.904 125.757 223.156 126.075 222.5C126.398 221.839 126.846 221.323 127.419 220.953C127.997 220.578 128.622 220.391 129.294 220.391C130.393 220.391 131.247 220.753 131.856 221.477C132.466 222.201 132.77 223.237 132.77 224.586V225.188H127.044C127.065 226.021 127.307 226.695 127.77 227.211C128.239 227.721 128.833 227.977 129.552 227.977C130.062 227.977 130.494 227.872 130.848 227.664C131.203 227.456 131.512 227.18 131.778 226.836L132.661 227.523C131.953 228.612 130.89 229.156 129.473 229.156ZM129.294 221.578C128.71 221.578 128.221 221.792 127.825 222.219C127.429 222.641 127.184 223.234 127.091 224H131.325V223.891C131.283 223.156 131.085 222.589 130.731 222.188C130.377 221.781 129.898 221.578 129.294 221.578ZM142.817 224.398H140.145V229H138.637V217.625H142.403C143.684 217.625 144.669 217.917 145.356 218.5C146.049 219.083 146.395 219.932 146.395 221.047C146.395 221.755 146.203 222.372 145.817 222.898C145.437 223.424 144.906 223.818 144.223 224.078L146.895 228.906V229H145.286L142.817 224.398ZM140.145 223.172H142.45C143.195 223.172 143.786 222.979 144.223 222.594C144.666 222.208 144.887 221.693 144.887 221.047C144.887 220.344 144.677 219.805 144.255 219.43C143.838 219.055 143.234 218.865 142.442 218.859H140.145V223.172ZM147.895 224.695C147.895 223.867 148.057 223.122 148.38 222.461C148.708 221.799 149.161 221.289 149.739 220.93C150.322 220.57 150.986 220.391 151.731 220.391C152.882 220.391 153.812 220.789 154.52 221.586C155.234 222.383 155.591 223.443 155.591 224.766V224.867C155.591 225.69 155.432 226.43 155.114 227.086C154.802 227.737 154.351 228.245 153.762 228.609C153.179 228.974 152.507 229.156 151.747 229.156C150.601 229.156 149.671 228.758 148.958 227.961C148.249 227.164 147.895 226.109 147.895 224.797V224.695ZM149.348 224.867C149.348 225.805 149.565 226.557 149.997 227.125C150.434 227.693 151.018 227.977 151.747 227.977C152.481 227.977 153.065 227.69 153.497 227.117C153.929 226.539 154.145 225.732 154.145 224.695C154.145 223.768 153.924 223.018 153.481 222.445C153.044 221.867 152.46 221.578 151.731 221.578C151.018 221.578 150.442 221.862 150.005 222.43C149.567 222.997 149.348 223.81 149.348 224.867ZM157.052 224.703C157.052 223.406 157.359 222.365 157.973 221.578C158.588 220.786 159.393 220.391 160.387 220.391C161.377 220.391 162.161 220.729 162.739 221.406V217H164.184V229H162.856L162.786 228.094C162.208 228.802 161.403 229.156 160.372 229.156C159.393 229.156 158.593 228.755 157.973 227.953C157.359 227.151 157.052 226.104 157.052 224.812V224.703ZM158.497 224.867C158.497 225.826 158.695 226.576 159.091 227.117C159.486 227.659 160.033 227.93 160.731 227.93C161.648 227.93 162.317 227.518 162.739 226.695V222.812C162.307 222.016 161.643 221.617 160.747 221.617C160.038 221.617 159.486 221.891 159.091 222.438C158.695 222.984 158.497 223.794 158.497 224.867ZM169.942 229.156C168.796 229.156 167.864 228.781 167.145 228.031C166.427 227.276 166.067 226.268 166.067 225.008V224.742C166.067 223.904 166.226 223.156 166.544 222.5C166.867 221.839 167.315 221.323 167.887 220.953C168.466 220.578 169.091 220.391 169.762 220.391C170.861 220.391 171.716 220.753 172.325 221.477C172.934 222.201 173.239 223.237 173.239 224.586V225.188H167.512C167.533 226.021 167.775 226.695 168.239 227.211C168.708 227.721 169.302 227.977 170.02 227.977C170.531 227.977 170.963 227.872 171.317 227.664C171.671 227.456 171.981 227.18 172.247 226.836L173.13 227.523C172.421 228.612 171.359 229.156 169.942 229.156ZM169.762 221.578C169.179 221.578 168.69 221.792 168.294 222.219C167.898 222.641 167.653 223.234 167.559 224H171.794V223.891C171.752 223.156 171.554 222.589 171.2 222.188C170.846 221.781 170.367 221.578 169.762 221.578Z" fill="#180330"/>
<path d="M71.1453 247.93C69.8588 247.56 68.9213 247.107 68.3328 246.57C67.7494 246.029 67.4578 245.362 67.4578 244.57C67.4578 243.674 67.8145 242.935 68.5281 242.352C69.2468 241.763 70.1791 241.469 71.325 241.469C72.1062 241.469 72.8015 241.62 73.4109 241.922C74.0255 242.224 74.4994 242.641 74.8328 243.172C75.1713 243.703 75.3406 244.284 75.3406 244.914H73.8328C73.8328 244.227 73.614 243.688 73.1765 243.297C72.739 242.901 72.1218 242.703 71.325 242.703C70.5854 242.703 70.0072 242.867 69.5906 243.195C69.1791 243.518 68.9734 243.969 68.9734 244.547C68.9734 245.01 69.1687 245.404 69.5593 245.727C69.9552 246.044 70.6244 246.336 71.5671 246.602C72.5151 246.867 73.2546 247.161 73.7859 247.484C74.3223 247.802 74.7182 248.174 74.9734 248.602C75.2338 249.029 75.364 249.531 75.364 250.109C75.364 251.031 75.0046 251.771 74.2859 252.328C73.5671 252.88 72.6062 253.156 71.4031 253.156C70.6218 253.156 69.8927 253.008 69.2156 252.711C68.5385 252.409 68.0151 251.997 67.6453 251.477C67.2807 250.956 67.0984 250.365 67.0984 249.703H68.6062C68.6062 250.391 68.8588 250.935 69.364 251.336C69.8744 251.732 70.5541 251.93 71.4031 251.93C72.1947 251.93 72.8015 251.768 73.2234 251.445C73.6453 251.122 73.8562 250.682 73.8562 250.125C73.8562 249.568 73.6609 249.138 73.2703 248.836C72.8796 248.529 72.1713 248.227 71.1453 247.93ZM84.2078 248.867C84.2078 250.154 83.9135 251.19 83.325 251.977C82.7364 252.763 81.9395 253.156 80.9343 253.156C79.9083 253.156 79.101 252.831 78.5125 252.18V256.25H77.0671V244.547H78.3875L78.4578 245.484C79.0463 244.755 79.864 244.391 80.9109 244.391C81.9265 244.391 82.7286 244.773 83.3171 245.539C83.9109 246.305 84.2078 247.37 84.2078 248.734V248.867ZM82.7625 248.703C82.7625 247.75 82.5593 246.997 82.1531 246.445C81.7468 245.893 81.1895 245.617 80.4812 245.617C79.6062 245.617 78.95 246.005 78.5125 246.781V250.82C78.9447 251.591 79.6062 251.977 80.4968 251.977C81.1895 251.977 81.739 251.703 82.1453 251.156C82.5567 250.604 82.7625 249.786 82.7625 248.703ZM87.6218 253H86.1765V244.547H87.6218V253ZM86.0593 242.305C86.0593 242.07 86.1296 241.872 86.2703 241.711C86.4161 241.549 86.6296 241.469 86.9109 241.469C87.1921 241.469 87.4057 241.549 87.5515 241.711C87.6973 241.872 87.7703 242.07 87.7703 242.305C87.7703 242.539 87.6973 242.734 87.5515 242.891C87.4057 243.047 87.1921 243.125 86.9109 243.125C86.6296 243.125 86.4161 243.047 86.2703 242.891C86.1296 242.734 86.0593 242.539 86.0593 242.305ZM91.3093 244.547L91.3562 245.609C92.002 244.797 92.8458 244.391 93.8875 244.391C95.6739 244.391 96.575 245.398 96.5906 247.414V253H95.1453V247.406C95.1401 246.797 94.9994 246.346 94.7234 246.055C94.4526 245.763 94.0281 245.617 93.45 245.617C92.9812 245.617 92.5697 245.742 92.2156 245.992C91.8614 246.242 91.5854 246.57 91.3875 246.977V253H89.9421V244.547H91.3093ZM100.137 244.547L100.184 245.609C100.83 244.797 101.674 244.391 102.716 244.391C104.502 244.391 105.403 245.398 105.419 247.414V253H103.973V247.406C103.968 246.797 103.828 246.346 103.552 246.055C103.281 245.763 102.856 245.617 102.278 245.617C101.809 245.617 101.398 245.742 101.044 245.992C100.69 246.242 100.413 246.57 100.216 246.977V253H98.7703V244.547H100.137ZM120.161 249.391C120.02 250.594 119.575 251.523 118.825 252.18C118.08 252.831 117.088 253.156 115.848 253.156C114.505 253.156 113.427 252.674 112.614 251.711C111.807 250.747 111.403 249.458 111.403 247.844V246.75C111.403 245.693 111.591 244.763 111.966 243.961C112.346 243.159 112.882 242.544 113.575 242.117C114.268 241.685 115.07 241.469 115.981 241.469C117.19 241.469 118.158 241.807 118.887 242.484C119.617 243.156 120.041 244.089 120.161 245.281H118.653C118.523 244.375 118.239 243.719 117.802 243.312C117.369 242.906 116.762 242.703 115.981 242.703C115.023 242.703 114.27 243.057 113.723 243.766C113.182 244.474 112.911 245.482 112.911 246.789V247.891C112.911 249.125 113.169 250.107 113.684 250.836C114.2 251.565 114.921 251.93 115.848 251.93C116.682 251.93 117.32 251.742 117.762 251.367C118.21 250.987 118.507 250.328 118.653 249.391H120.161ZM121.606 248.695C121.606 247.867 121.768 247.122 122.091 246.461C122.419 245.799 122.872 245.289 123.45 244.93C124.033 244.57 124.697 244.391 125.442 244.391C126.593 244.391 127.523 244.789 128.231 245.586C128.945 246.383 129.302 247.443 129.302 248.766V248.867C129.302 249.69 129.143 250.43 128.825 251.086C128.512 251.737 128.062 252.245 127.473 252.609C126.89 252.974 126.218 253.156 125.458 253.156C124.312 253.156 123.382 252.758 122.669 251.961C121.96 251.164 121.606 250.109 121.606 248.797V248.695ZM123.059 248.867C123.059 249.805 123.275 250.557 123.708 251.125C124.145 251.693 124.729 251.977 125.458 251.977C126.192 251.977 126.775 251.69 127.208 251.117C127.64 250.539 127.856 249.732 127.856 248.695C127.856 247.768 127.635 247.018 127.192 246.445C126.755 245.867 126.171 245.578 125.442 245.578C124.729 245.578 124.153 245.862 123.716 246.43C123.278 246.997 123.059 247.81 123.059 248.867ZM131.825 253V245.664H130.489V244.547H131.825V243.68C131.825 242.773 132.067 242.073 132.552 241.578C133.036 241.083 133.721 240.836 134.606 240.836C134.94 240.836 135.27 240.88 135.598 240.969L135.52 242.141C135.275 242.094 135.015 242.07 134.739 242.07C134.27 242.07 133.908 242.208 133.653 242.484C133.398 242.755 133.27 243.146 133.27 243.656V244.547H135.075V245.664H133.27V253H131.825ZM137.387 253V245.664H136.052V244.547H137.387V243.68C137.387 242.773 137.63 242.073 138.114 241.578C138.598 241.083 139.283 240.836 140.169 240.836C140.502 240.836 140.833 240.88 141.161 240.969L141.083 242.141C140.838 242.094 140.578 242.07 140.302 242.07C139.833 242.07 139.471 242.208 139.216 242.484C138.96 242.755 138.833 243.146 138.833 243.656V244.547H140.637V245.664H138.833V253H137.387ZM145.559 253.156C144.413 253.156 143.481 252.781 142.762 252.031C142.044 251.276 141.684 250.268 141.684 249.008V248.742C141.684 247.904 141.843 247.156 142.161 246.5C142.484 245.839 142.932 245.323 143.505 244.953C144.083 244.578 144.708 244.391 145.38 244.391C146.479 244.391 147.333 244.753 147.942 245.477C148.552 246.201 148.856 247.237 148.856 248.586V249.188H143.13C143.15 250.021 143.393 250.695 143.856 251.211C144.325 251.721 144.919 251.977 145.637 251.977C146.148 251.977 146.58 251.872 146.934 251.664C147.288 251.456 147.598 251.18 147.864 250.836L148.747 251.523C148.038 252.612 146.976 253.156 145.559 253.156ZM145.38 245.578C144.796 245.578 144.307 245.792 143.911 246.219C143.515 246.641 143.27 247.234 143.177 248H147.411V247.891C147.369 247.156 147.171 246.589 146.817 246.188C146.463 245.781 145.984 245.578 145.38 245.578ZM154.044 253.156C152.898 253.156 151.966 252.781 151.247 252.031C150.528 251.276 150.169 250.268 150.169 249.008V248.742C150.169 247.904 150.328 247.156 150.645 246.5C150.968 245.839 151.416 245.323 151.989 244.953C152.567 244.578 153.192 244.391 153.864 244.391C154.963 244.391 155.817 244.753 156.427 245.477C157.036 246.201 157.341 247.237 157.341 248.586V249.188H151.614C151.635 250.021 151.877 250.695 152.341 251.211C152.809 251.721 153.403 251.977 154.122 251.977C154.632 251.977 155.065 251.872 155.419 251.664C155.773 251.456 156.083 251.18 156.348 250.836L157.231 251.523C156.523 252.612 155.46 253.156 154.044 253.156ZM153.864 245.578C153.281 245.578 152.791 245.792 152.395 246.219C151.999 246.641 151.755 247.234 151.661 248H155.895V247.891C155.854 247.156 155.656 246.589 155.302 246.188C154.947 245.781 154.468 245.578 153.864 245.578Z" fill="#180330"/>
<path d="M18.7168 73.8145L19.752 74.5176C19.1465 75.3444 18.834 76.2363 18.8145 77.1934V78.5215H17.0176V77.3887C17.0176 76.7246 17.1738 76.0671 17.4863 75.416C17.8053 74.765 18.2155 74.2311 18.7168 73.8145ZM21.793 73.8145L22.8281 74.5176C22.2227 75.3444 21.9102 76.2363 21.8906 77.1934V78.5215H20.0938V77.3887C20.0938 76.7246 20.25 76.0671 20.5625 75.416C20.8815 74.765 21.2917 74.2311 21.793 73.8145ZM28.9121 82.6621C27.304 82.1999 26.1322 81.6335 25.3965 80.9629C24.6673 80.2858 24.3027 79.4525 24.3027 78.4629C24.3027 77.3431 24.7487 76.4186 25.6406 75.6895C26.5391 74.9538 27.7044 74.5859 29.1367 74.5859C30.1133 74.5859 30.9824 74.7747 31.7441 75.1523C32.5124 75.5299 33.1048 76.0508 33.5215 76.7148C33.9447 77.3789 34.1562 78.1048 34.1562 78.8926H32.2715C32.2715 78.0332 31.998 77.3594 31.4512 76.8711C30.9043 76.3763 30.1328 76.1289 29.1367 76.1289C28.2122 76.1289 27.4896 76.334 26.9688 76.7441C26.4544 77.1478 26.1973 77.7109 26.1973 78.4336C26.1973 79.013 26.4414 79.5046 26.9297 79.9082C27.4245 80.3053 28.2611 80.6699 29.4395 81.002C30.6243 81.334 31.5488 81.7018 32.2129 82.1055C32.8835 82.5026 33.3783 82.9681 33.6973 83.502C34.0228 84.0358 34.1855 84.6641 34.1855 85.3867C34.1855 86.5391 33.7363 87.4635 32.8379 88.1602C31.9395 88.8503 30.7383 89.1953 29.2344 89.1953C28.2578 89.1953 27.3464 89.0098 26.5 88.6387C25.6536 88.2611 24.9993 87.7467 24.5371 87.0957C24.0814 86.4447 23.8535 85.7057 23.8535 84.8789H25.7383C25.7383 85.7383 26.054 86.4186 26.6855 86.9199C27.3236 87.4147 28.1732 87.6621 29.2344 87.6621C30.224 87.6621 30.9824 87.4603 31.5098 87.0566C32.0371 86.653 32.3008 86.1029 32.3008 85.4062C32.3008 84.7096 32.0566 84.1725 31.5684 83.7949C31.0801 83.4108 30.1947 83.0332 28.9121 82.6621ZM45.6699 86.5098L47.7012 78.4336H49.5078L46.4316 89H44.9668L42.3984 80.9922L39.8984 89H38.4336L35.3672 78.4336H37.1641L39.2441 86.3438L41.7051 78.4336H43.1602L45.6699 86.5098ZM55.7383 89.1953C54.306 89.1953 53.1406 88.7266 52.2422 87.7891C51.3438 86.8451 50.8945 85.5853 50.8945 84.0098V83.6777C50.8945 82.6296 51.0931 81.6953 51.4902 80.875C51.8939 80.0482 52.4538 79.4036 53.1699 78.9414C53.8926 78.4727 54.6738 78.2383 55.5137 78.2383C56.8874 78.2383 57.9551 78.6908 58.7168 79.5957C59.4785 80.5007 59.8594 81.7962 59.8594 83.4824V84.2344H52.7012C52.7272 85.276 53.0299 86.1191 53.6094 86.7637C54.1953 87.4017 54.9375 87.7207 55.8359 87.7207C56.474 87.7207 57.0143 87.5905 57.457 87.3301C57.8997 87.0697 58.2871 86.7246 58.6191 86.2949L59.7227 87.1543C58.8372 88.515 57.5091 89.1953 55.7383 89.1953ZM55.5137 79.7227C54.7845 79.7227 54.1725 79.9896 53.6777 80.5234C53.1829 81.0508 52.877 81.793 52.7598 82.75H58.0527V82.6133C58.0007 81.6953 57.7533 80.9857 57.3105 80.4844C56.8678 79.9766 56.2689 79.7227 55.5137 79.7227ZM63.9219 89H62.1152V74H63.9219V89ZM68.7852 89H66.9785V74H68.7852V89ZM78.4531 79.7129C79.2539 78.7298 80.2956 78.2383 81.5781 78.2383C83.8112 78.2383 84.9375 79.498 84.957 82.0176V89H83.1504V82.0078C83.1439 81.2461 82.9681 80.6829 82.623 80.3184C82.2845 79.9538 81.7539 79.7715 81.0312 79.7715C80.4453 79.7715 79.931 79.9277 79.4883 80.2402C79.0456 80.5527 78.7005 80.9629 78.4531 81.4707V89H76.6465V74H78.4531V79.7129ZM94.1855 89C94.0814 88.7917 93.9967 88.4206 93.9316 87.8867C93.0918 88.7591 92.0892 89.1953 90.9238 89.1953C89.8822 89.1953 89.026 88.9023 88.3555 88.3164C87.6914 87.724 87.3594 86.9753 87.3594 86.0703C87.3594 84.9701 87.776 84.1172 88.6094 83.5117C89.4492 82.8997 90.6276 82.5938 92.1445 82.5938H93.9023V81.7637C93.9023 81.1322 93.7135 80.6309 93.3359 80.2598C92.9583 79.8822 92.4017 79.6934 91.666 79.6934C91.0215 79.6934 90.4811 79.8561 90.0449 80.1816C89.6087 80.5072 89.3906 80.901 89.3906 81.3633H87.5742C87.5742 80.8359 87.7598 80.3281 88.1309 79.8398C88.5085 79.3451 89.0163 78.9544 89.6543 78.668C90.2988 78.3815 91.0052 78.2383 91.7734 78.2383C92.9909 78.2383 93.9447 78.5443 94.6348 79.1562C95.3249 79.7617 95.6829 80.5983 95.709 81.666V86.5293C95.709 87.4993 95.8327 88.2708 96.0801 88.8438V89H94.1855ZM91.1875 87.623C91.7539 87.623 92.291 87.4766 92.7988 87.1836C93.3066 86.8906 93.6745 86.5098 93.9023 86.041V83.873H92.4863C90.2728 83.873 89.166 84.5208 89.166 85.8164C89.166 86.3828 89.3548 86.8255 89.7324 87.1445C90.11 87.4635 90.5951 87.623 91.1875 87.623ZM104.693 86.1973C104.693 85.709 104.508 85.3314 104.137 85.0645C103.772 84.791 103.131 84.5566 102.213 84.3613C101.301 84.166 100.576 83.9316 100.035 83.6582C99.5013 83.3848 99.1042 83.0592 98.8438 82.6816C98.5898 82.304 98.4629 81.8548 98.4629 81.334C98.4629 80.4681 98.8275 79.7357 99.5566 79.1367C100.292 78.5378 101.23 78.2383 102.369 78.2383C103.567 78.2383 104.537 78.5475 105.279 79.166C106.028 79.7845 106.402 80.5755 106.402 81.5391H104.586C104.586 81.0443 104.374 80.6178 103.951 80.2598C103.535 79.9017 103.007 79.7227 102.369 79.7227C101.712 79.7227 101.197 79.8659 100.826 80.1523C100.455 80.4388 100.27 80.8132 100.27 81.2754C100.27 81.7116 100.442 82.0404 100.787 82.2617C101.132 82.4831 101.754 82.6947 102.652 82.8965C103.557 83.0983 104.29 83.3392 104.85 83.6191C105.41 83.8991 105.823 84.2376 106.09 84.6348C106.363 85.0254 106.5 85.5039 106.5 86.0703C106.5 87.0143 106.122 87.7728 105.367 88.3457C104.612 88.9121 103.632 89.1953 102.428 89.1953C101.581 89.1953 100.833 89.0456 100.182 88.7461C99.5306 88.4466 99.0195 88.0299 98.6484 87.4961C98.2839 86.9557 98.1016 86.373 98.1016 85.748H99.9082C99.9408 86.3535 100.182 86.8353 100.631 87.1934C101.087 87.5449 101.686 87.7207 102.428 87.7207C103.111 87.7207 103.658 87.584 104.068 87.3105C104.485 87.0306 104.693 86.6595 104.693 86.1973ZM122.76 83.834C122.76 85.4486 122.389 86.7474 121.646 87.7305C120.904 88.707 119.908 89.1953 118.658 89.1953C117.324 89.1953 116.292 88.7233 115.562 87.7793L115.475 89H113.814V74H115.621V79.5957C116.35 78.6908 117.356 78.2383 118.639 78.2383C119.921 78.2383 120.927 78.7233 121.656 79.6934C122.392 80.6634 122.76 81.9915 122.76 83.6777V83.834ZM120.953 83.6289C120.953 82.3984 120.715 81.4479 120.24 80.7773C119.765 80.1068 119.081 79.7715 118.189 79.7715C116.998 79.7715 116.142 80.3249 115.621 81.4316V86.002C116.174 87.1087 117.037 87.6621 118.209 87.6621C119.075 87.6621 119.749 87.3268 120.23 86.6562C120.712 85.9857 120.953 84.9766 120.953 83.6289ZM129.43 89.1953C127.997 89.1953 126.832 88.7266 125.934 87.7891C125.035 86.8451 124.586 85.5853 124.586 84.0098V83.6777C124.586 82.6296 124.785 81.6953 125.182 80.875C125.585 80.0482 126.145 79.4036 126.861 78.9414C127.584 78.4727 128.365 78.2383 129.205 78.2383C130.579 78.2383 131.646 78.6908 132.408 79.5957C133.17 80.5007 133.551 81.7962 133.551 83.4824V84.2344H126.393C126.419 85.276 126.721 86.1191 127.301 86.7637C127.887 87.4017 128.629 87.7207 129.527 87.7207C130.165 87.7207 130.706 87.5905 131.148 87.3301C131.591 87.0697 131.979 86.7246 132.311 86.2949L133.414 87.1543C132.529 88.515 131.201 89.1953 129.43 89.1953ZM129.205 79.7227C128.476 79.7227 127.864 79.9896 127.369 80.5234C126.874 81.0508 126.568 81.793 126.451 82.75H131.744V82.6133C131.692 81.6953 131.445 80.9857 131.002 80.4844C130.559 79.9766 129.96 79.7227 129.205 79.7227ZM140.035 89.1953C138.603 89.1953 137.438 88.7266 136.539 87.7891C135.641 86.8451 135.191 85.5853 135.191 84.0098V83.6777C135.191 82.6296 135.39 81.6953 135.787 80.875C136.191 80.0482 136.751 79.4036 137.467 78.9414C138.189 78.4727 138.971 78.2383 139.811 78.2383C141.184 78.2383 142.252 78.6908 143.014 79.5957C143.775 80.5007 144.156 81.7962 144.156 83.4824V84.2344H136.998C137.024 85.276 137.327 86.1191 137.906 86.7637C138.492 87.4017 139.234 87.7207 140.133 87.7207C140.771 87.7207 141.311 87.5905 141.754 87.3301C142.197 87.0697 142.584 86.7246 142.916 86.2949L144.02 87.1543C143.134 88.515 141.806 89.1953 140.035 89.1953ZM139.811 79.7227C139.081 79.7227 138.469 79.9896 137.975 80.5234C137.48 81.0508 137.174 81.793 137.057 82.75H142.35V82.6133C142.298 81.6953 142.05 80.9857 141.607 80.4844C141.165 79.9766 140.566 79.7227 139.811 79.7227ZM147.965 78.4336L148.023 79.7617C148.831 78.7461 149.885 78.2383 151.188 78.2383C153.421 78.2383 154.547 79.498 154.566 82.0176V89H152.76V82.0078C152.753 81.2461 152.577 80.6829 152.232 80.3184C151.894 79.9538 151.363 79.7715 150.641 79.7715C150.055 79.7715 149.54 79.9277 149.098 80.2402C148.655 80.5527 148.31 80.9629 148.062 81.4707V89H146.256V78.4336H147.965ZM164.215 89H162.408V74H164.215V89ZM169.078 89H167.271V78.4336H169.078V89ZM167.125 75.6309C167.125 75.3379 167.213 75.0905 167.389 74.8887C167.571 74.6868 167.838 74.5859 168.189 74.5859C168.541 74.5859 168.808 74.6868 168.99 74.8887C169.173 75.0905 169.264 75.3379 169.264 75.6309C169.264 75.9238 169.173 76.168 168.99 76.3633C168.808 76.5586 168.541 76.6562 168.189 76.6562C167.838 76.6562 167.571 76.5586 167.389 76.3633C167.213 76.168 167.125 75.9238 167.125 75.6309ZM174.928 84.1074L173.795 85.2891V89H171.988V74H173.795V83.0723L174.762 81.9102L178.053 78.4336H180.25L176.139 82.8477L180.729 89H178.609L174.928 84.1074ZM186.305 89.1953C184.872 89.1953 183.707 88.7266 182.809 87.7891C181.91 86.8451 181.461 85.5853 181.461 84.0098V83.6777C181.461 82.6296 181.66 81.6953 182.057 80.875C182.46 80.0482 183.02 79.4036 183.736 78.9414C184.459 78.4727 185.24 78.2383 186.08 78.2383C187.454 78.2383 188.521 78.6908 189.283 79.5957C190.045 80.5007 190.426 81.7962 190.426 83.4824V84.2344H183.268C183.294 85.276 183.596 86.1191 184.176 86.7637C184.762 87.4017 185.504 87.7207 186.402 87.7207C187.04 87.7207 187.581 87.5905 188.023 87.3301C188.466 87.0697 188.854 86.7246 189.186 86.2949L190.289 87.1543C189.404 88.515 188.076 89.1953 186.305 89.1953ZM186.08 79.7227C185.351 79.7227 184.739 79.9896 184.244 80.5234C183.749 81.0508 183.443 81.793 183.326 82.75H188.619V82.6133C188.567 81.6953 188.32 80.9857 187.877 80.4844C187.434 79.9766 186.835 79.7227 186.08 79.7227ZM204.01 89C203.906 88.7917 203.821 88.4206 203.756 87.8867C202.916 88.7591 201.913 89.1953 200.748 89.1953C199.706 89.1953 198.85 88.9023 198.18 88.3164C197.516 87.724 197.184 86.9753 197.184 86.0703C197.184 84.9701 197.6 84.1172 198.434 83.5117C199.273 82.8997 200.452 82.5938 201.969 82.5938H203.727V81.7637C203.727 81.1322 203.538 80.6309 203.16 80.2598C202.783 79.8822 202.226 79.6934 201.49 79.6934C200.846 79.6934 200.305 79.8561 199.869 80.1816C199.433 80.5072 199.215 80.901 199.215 81.3633H197.398C197.398 80.8359 197.584 80.3281 197.955 79.8398C198.333 79.3451 198.84 78.9544 199.479 78.668C200.123 78.3815 200.829 78.2383 201.598 78.2383C202.815 78.2383 203.769 78.5443 204.459 79.1562C205.149 79.7617 205.507 80.5983 205.533 81.666V86.5293C205.533 87.4993 205.657 88.2708 205.904 88.8438V89H204.01ZM201.012 87.623C201.578 87.623 202.115 87.4766 202.623 87.1836C203.131 86.8906 203.499 86.5098 203.727 86.041V83.873H202.311C200.097 83.873 198.99 84.5208 198.99 85.8164C198.99 86.3828 199.179 86.8255 199.557 87.1445C199.934 87.4635 200.419 87.623 201.012 87.623ZM46.7832 117.197C46.7832 116.709 46.5977 116.331 46.2266 116.064C45.862 115.791 45.2207 115.557 44.3027 115.361C43.3913 115.166 42.6654 114.932 42.125 114.658C41.5911 114.385 41.194 114.059 40.9336 113.682C40.6797 113.304 40.5527 112.855 40.5527 112.334C40.5527 111.468 40.9173 110.736 41.6465 110.137C42.3822 109.538 43.3197 109.238 44.459 109.238C45.6569 109.238 46.627 109.548 47.3691 110.166C48.1178 110.785 48.4922 111.576 48.4922 112.539H46.6758C46.6758 112.044 46.4642 111.618 46.041 111.26C45.6243 110.902 45.097 110.723 44.459 110.723C43.8014 110.723 43.2871 110.866 42.916 111.152C42.5449 111.439 42.3594 111.813 42.3594 112.275C42.3594 112.712 42.5319 113.04 42.877 113.262C43.222 113.483 43.8438 113.695 44.7422 113.896C45.6471 114.098 46.3796 114.339 46.9395 114.619C47.4993 114.899 47.9128 115.238 48.1797 115.635C48.4531 116.025 48.5898 116.504 48.5898 117.07C48.5898 118.014 48.2122 118.773 47.457 119.346C46.7018 119.912 45.722 120.195 44.5176 120.195C43.6712 120.195 42.9225 120.046 42.2715 119.746C41.6204 119.447 41.1094 119.03 40.7383 118.496C40.3737 117.956 40.1914 117.373 40.1914 116.748H41.998C42.0306 117.354 42.2715 117.835 42.7207 118.193C43.1764 118.545 43.7754 118.721 44.5176 118.721C45.2012 118.721 45.748 118.584 46.1582 118.311C46.5749 118.031 46.7832 117.66 46.7832 117.197ZM59.8691 114.834C59.8691 116.442 59.5013 117.738 58.7656 118.721C58.0299 119.704 57.0339 120.195 55.7773 120.195C54.4948 120.195 53.4857 119.788 52.75 118.975V124.062H50.9434V109.434H52.5938L52.6816 110.605C53.4173 109.694 54.4395 109.238 55.748 109.238C57.0176 109.238 58.0202 109.717 58.7559 110.674C59.498 111.631 59.8691 112.962 59.8691 114.668V114.834ZM58.0625 114.629C58.0625 113.438 57.8086 112.497 57.3008 111.807C56.793 111.117 56.0964 110.771 55.2109 110.771C54.1172 110.771 53.2969 111.257 52.75 112.227V117.275C53.2904 118.239 54.1172 118.721 55.2305 118.721C56.0964 118.721 56.7832 118.379 57.291 117.695C57.8053 117.005 58.0625 115.983 58.0625 114.629ZM67.2812 111.055C67.0078 111.009 66.7116 110.986 66.3926 110.986C65.2077 110.986 64.4036 111.491 63.9805 112.5V120H62.1738V109.434H63.9316L63.9609 110.654C64.5534 109.71 65.3932 109.238 66.4805 109.238C66.832 109.238 67.099 109.284 67.2812 109.375V111.055ZM70.9141 120H69.1074V109.434H70.9141V120ZM68.9609 106.631C68.9609 106.338 69.0488 106.09 69.2246 105.889C69.4069 105.687 69.6738 105.586 70.0254 105.586C70.377 105.586 70.6439 105.687 70.8262 105.889C71.0085 106.09 71.0996 106.338 71.0996 106.631C71.0996 106.924 71.0085 107.168 70.8262 107.363C70.6439 107.559 70.377 107.656 70.0254 107.656C69.6738 107.656 69.4069 107.559 69.2246 107.363C69.0488 107.168 68.9609 106.924 68.9609 106.631ZM75.5234 109.434L75.582 110.762C76.3893 109.746 77.444 109.238 78.7461 109.238C80.9792 109.238 82.1055 110.498 82.125 113.018V120H80.3184V113.008C80.3118 112.246 80.1361 111.683 79.791 111.318C79.4525 110.954 78.9219 110.771 78.1992 110.771C77.6133 110.771 77.099 110.928 76.6562 111.24C76.2135 111.553 75.8685 111.963 75.6211 112.471V120H73.8145V109.434H75.5234ZM84.4199 114.629C84.4199 112.982 84.8008 111.673 85.5625 110.703C86.3242 109.727 87.3333 109.238 88.5898 109.238C89.8789 109.238 90.8848 109.694 91.6074 110.605L91.6953 109.434H93.3457V119.746C93.3457 121.113 92.9388 122.191 92.125 122.979C91.3177 123.766 90.2305 124.16 88.8633 124.16C88.1016 124.16 87.3561 123.997 86.627 123.672C85.8978 123.346 85.3411 122.9 84.957 122.334L85.8945 121.25C86.6693 122.207 87.6165 122.686 88.7363 122.686C89.6152 122.686 90.2988 122.438 90.7871 121.943C91.2819 121.449 91.5293 120.752 91.5293 119.854V118.945C90.8066 119.779 89.8203 120.195 88.5703 120.195C87.3333 120.195 86.3307 119.697 85.5625 118.701C84.8008 117.705 84.4199 116.348 84.4199 114.629ZM86.2363 114.834C86.2363 116.025 86.4805 116.963 86.9688 117.646C87.457 118.324 88.1406 118.662 89.0195 118.662C90.1589 118.662 90.9954 118.145 91.5293 117.109V112.285C90.9759 111.276 90.1458 110.771 89.0391 110.771C88.1602 110.771 87.4733 111.113 86.9785 111.797C86.4837 112.48 86.2363 113.493 86.2363 114.834ZM101.93 120V110.83H100.26V109.434H101.93V108.35C101.93 107.217 102.232 106.341 102.838 105.723C103.443 105.104 104.299 104.795 105.406 104.795C105.823 104.795 106.236 104.85 106.646 104.961L106.549 106.426C106.243 106.367 105.917 106.338 105.572 106.338C104.986 106.338 104.534 106.51 104.215 106.855C103.896 107.194 103.736 107.682 103.736 108.32V109.434H105.992V110.83H103.736V120H101.93ZM107.516 114.619C107.516 113.584 107.717 112.653 108.121 111.826C108.531 110.999 109.098 110.361 109.82 109.912C110.549 109.463 111.38 109.238 112.311 109.238C113.749 109.238 114.911 109.736 115.797 110.732C116.689 111.729 117.135 113.053 117.135 114.707V114.834C117.135 115.863 116.936 116.787 116.539 117.607C116.148 118.421 115.585 119.056 114.85 119.512C114.12 119.967 113.281 120.195 112.33 120.195C110.898 120.195 109.736 119.697 108.844 118.701C107.958 117.705 107.516 116.387 107.516 114.746V114.619ZM109.332 114.834C109.332 116.006 109.602 116.947 110.143 117.656C110.689 118.366 111.419 118.721 112.33 118.721C113.248 118.721 113.977 118.363 114.518 117.646C115.058 116.924 115.328 115.915 115.328 114.619C115.328 113.46 115.051 112.523 114.498 111.807C113.951 111.084 113.222 110.723 112.311 110.723C111.419 110.723 110.699 111.077 110.152 111.787C109.605 112.497 109.332 113.512 109.332 114.834ZM124.508 111.055C124.234 111.009 123.938 110.986 123.619 110.986C122.434 110.986 121.63 111.491 121.207 112.5V120H119.4V109.434H121.158L121.188 110.654C121.78 109.71 122.62 109.238 123.707 109.238C124.059 109.238 124.326 109.284 124.508 109.375V111.055ZM135.611 113.662C134.003 113.2 132.831 112.633 132.096 111.963C131.367 111.286 131.002 110.452 131.002 109.463C131.002 108.343 131.448 107.419 132.34 106.689C133.238 105.954 134.404 105.586 135.836 105.586C136.812 105.586 137.682 105.775 138.443 106.152C139.212 106.53 139.804 107.051 140.221 107.715C140.644 108.379 140.855 109.105 140.855 109.893H138.971C138.971 109.033 138.697 108.359 138.15 107.871C137.604 107.376 136.832 107.129 135.836 107.129C134.911 107.129 134.189 107.334 133.668 107.744C133.154 108.148 132.896 108.711 132.896 109.434C132.896 110.013 133.141 110.505 133.629 110.908C134.124 111.305 134.96 111.67 136.139 112.002C137.324 112.334 138.248 112.702 138.912 113.105C139.583 113.503 140.077 113.968 140.396 114.502C140.722 115.036 140.885 115.664 140.885 116.387C140.885 117.539 140.436 118.464 139.537 119.16C138.639 119.85 137.438 120.195 135.934 120.195C134.957 120.195 134.046 120.01 133.199 119.639C132.353 119.261 131.699 118.747 131.236 118.096C130.781 117.445 130.553 116.706 130.553 115.879H132.438C132.438 116.738 132.753 117.419 133.385 117.92C134.023 118.415 134.872 118.662 135.934 118.662C136.923 118.662 137.682 118.46 138.209 118.057C138.736 117.653 139 117.103 139 116.406C139 115.71 138.756 115.173 138.268 114.795C137.779 114.411 136.894 114.033 135.611 113.662ZM151.939 114.834C151.939 116.442 151.572 117.738 150.836 118.721C150.1 119.704 149.104 120.195 147.848 120.195C146.565 120.195 145.556 119.788 144.82 118.975V124.062H143.014V109.434H144.664L144.752 110.605C145.488 109.694 146.51 109.238 147.818 109.238C149.088 109.238 150.09 109.717 150.826 110.674C151.568 111.631 151.939 112.962 151.939 114.668V114.834ZM150.133 114.629C150.133 113.438 149.879 112.497 149.371 111.807C148.863 111.117 148.167 110.771 147.281 110.771C146.188 110.771 145.367 111.257 144.82 112.227V117.275C145.361 118.239 146.188 118.721 147.301 118.721C148.167 118.721 148.854 118.379 149.361 117.695C149.876 117.005 150.133 115.983 150.133 114.629ZM156.207 120H154.4V109.434H156.207V120ZM154.254 106.631C154.254 106.338 154.342 106.09 154.518 105.889C154.7 105.687 154.967 105.586 155.318 105.586C155.67 105.586 155.937 105.687 156.119 105.889C156.301 106.09 156.393 106.338 156.393 106.631C156.393 106.924 156.301 107.168 156.119 107.363C155.937 107.559 155.67 107.656 155.318 107.656C154.967 107.656 154.7 107.559 154.518 107.363C154.342 107.168 154.254 106.924 154.254 106.631ZM160.816 109.434L160.875 110.762C161.682 109.746 162.737 109.238 164.039 109.238C166.272 109.238 167.398 110.498 167.418 113.018V120H165.611V113.008C165.605 112.246 165.429 111.683 165.084 111.318C164.745 110.954 164.215 110.771 163.492 110.771C162.906 110.771 162.392 110.928 161.949 111.24C161.507 111.553 161.161 111.963 160.914 112.471V120H159.107V109.434H160.816ZM171.852 109.434L171.91 110.762C172.717 109.746 173.772 109.238 175.074 109.238C177.307 109.238 178.434 110.498 178.453 113.018V120H176.646V113.008C176.64 112.246 176.464 111.683 176.119 111.318C175.781 110.954 175.25 110.771 174.527 110.771C173.941 110.771 173.427 110.928 172.984 111.24C172.542 111.553 172.197 111.963 171.949 112.471V120H170.143V109.434H171.852ZM181.119 122.832L180.094 122.129C180.706 121.276 181.025 120.397 181.051 119.492V117.861H182.818V119.277C182.818 119.935 182.656 120.592 182.33 121.25C182.011 121.908 181.607 122.435 181.119 122.832ZM12.5449 151C12.4408 150.792 12.3561 150.421 12.291 149.887C11.4512 150.759 10.4486 151.195 9.2832 151.195C8.24154 151.195 7.38542 150.902 6.71484 150.316C6.05078 149.724 5.71875 148.975 5.71875 148.07C5.71875 146.97 6.13542 146.117 6.96875 145.512C7.80859 144.9 8.98698 144.594 10.5039 144.594H12.2617V143.764C12.2617 143.132 12.0729 142.631 11.6953 142.26C11.3177 141.882 10.7611 141.693 10.0254 141.693C9.38086 141.693 8.84049 141.856 8.4043 142.182C7.9681 142.507 7.75 142.901 7.75 143.363H5.93359C5.93359 142.836 6.11914 142.328 6.49023 141.84C6.86784 141.345 7.37565 140.954 8.01367 140.668C8.6582 140.382 9.36458 140.238 10.1328 140.238C11.3503 140.238 12.304 140.544 12.9941 141.156C13.6842 141.762 14.0423 142.598 14.0684 143.666V148.529C14.0684 149.499 14.1921 150.271 14.4395 150.844V151H12.5449ZM9.54688 149.623C10.1133 149.623 10.6504 149.477 11.1582 149.184C11.666 148.891 12.0339 148.51 12.2617 148.041V145.873H10.8457C8.63216 145.873 7.52539 146.521 7.52539 147.816C7.52539 148.383 7.71419 148.826 8.0918 149.145C8.4694 149.464 8.95443 149.623 9.54688 149.623ZM18.8633 151H17.0566V136H18.8633V151ZM23.7266 151H21.9199V136H23.7266V151ZM26.1484 145.619C26.1484 144.584 26.3503 143.653 26.7539 142.826C27.1641 141.999 27.7305 141.361 28.4531 140.912C29.1823 140.463 30.0124 140.238 30.9434 140.238C32.3822 140.238 33.5443 140.736 34.4297 141.732C35.3216 142.729 35.7676 144.053 35.7676 145.707V145.834C35.7676 146.863 35.569 147.787 35.1719 148.607C34.7812 149.421 34.2181 150.056 33.4824 150.512C32.7533 150.967 31.9134 151.195 30.9629 151.195C29.5306 151.195 28.3685 150.697 27.4766 149.701C26.5911 148.705 26.1484 147.387 26.1484 145.746V145.619ZM27.9648 145.834C27.9648 147.006 28.235 147.947 28.7754 148.656C29.3223 149.366 30.0514 149.721 30.9629 149.721C31.8809 149.721 32.61 149.363 33.1504 148.646C33.6908 147.924 33.9609 146.915 33.9609 145.619C33.9609 144.46 33.6842 143.523 33.1309 142.807C32.584 142.084 31.8548 141.723 30.9434 141.723C30.0514 141.723 29.332 142.077 28.7852 142.787C28.2383 143.497 27.9648 144.512 27.9648 145.834ZM47.3887 148.51L49.4199 140.434H51.2266L48.1504 151H46.6855L44.1172 142.992L41.6172 151H40.1523L37.0859 140.434H38.8828L40.9629 148.344L43.4238 140.434H44.8789L47.3887 148.51ZM55.0352 151H53.2285V140.434H55.0352V151ZM53.082 137.631C53.082 137.338 53.1699 137.09 53.3457 136.889C53.528 136.687 53.7949 136.586 54.1465 136.586C54.498 136.586 54.765 136.687 54.9473 136.889C55.1296 137.09 55.2207 137.338 55.2207 137.631C55.2207 137.924 55.1296 138.168 54.9473 138.363C54.765 138.559 54.498 138.656 54.1465 138.656C53.7949 138.656 53.528 138.559 53.3457 138.363C53.1699 138.168 53.082 137.924 53.082 137.631ZM59.6445 140.434L59.7031 141.762C60.5104 140.746 61.5651 140.238 62.8672 140.238C65.1003 140.238 66.2266 141.498 66.2461 144.018V151H64.4395V144.008C64.4329 143.246 64.2572 142.683 63.9121 142.318C63.5736 141.954 63.043 141.771 62.3203 141.771C61.7344 141.771 61.2201 141.928 60.7773 142.24C60.3346 142.553 59.9896 142.963 59.7422 143.471V151H57.9355V140.434H59.6445ZM68.541 145.629C68.541 143.982 68.9219 142.673 69.6836 141.703C70.4453 140.727 71.4544 140.238 72.7109 140.238C74 140.238 75.0059 140.694 75.7285 141.605L75.8164 140.434H77.4668V150.746C77.4668 152.113 77.0599 153.191 76.2461 153.979C75.4388 154.766 74.3516 155.16 72.9844 155.16C72.2227 155.16 71.4772 154.997 70.748 154.672C70.0189 154.346 69.4622 153.9 69.0781 153.334L70.0156 152.25C70.7904 153.207 71.7376 153.686 72.8574 153.686C73.7363 153.686 74.4199 153.438 74.9082 152.943C75.403 152.449 75.6504 151.752 75.6504 150.854V149.945C74.9277 150.779 73.9414 151.195 72.6914 151.195C71.4544 151.195 70.4518 150.697 69.6836 149.701C68.9219 148.705 68.541 147.348 68.541 145.629ZM70.3574 145.834C70.3574 147.025 70.6016 147.963 71.0898 148.646C71.5781 149.324 72.2617 149.662 73.1406 149.662C74.2799 149.662 75.1165 149.145 75.6504 148.109V143.285C75.097 142.276 74.2669 141.771 73.1602 141.771C72.2812 141.771 71.5944 142.113 71.0996 142.797C70.6048 143.48 70.3574 144.493 70.3574 145.834ZM91.6855 149.955C90.9824 150.782 89.9505 151.195 88.5898 151.195C87.4635 151.195 86.6042 150.87 86.0117 150.219C85.4258 149.561 85.1296 148.591 85.123 147.309V140.434H86.9297V147.26C86.9297 148.861 87.5807 149.662 88.8828 149.662C90.263 149.662 91.181 149.148 91.6367 148.119V140.434H93.4434V151H91.7246L91.6855 149.955ZM102.35 148.197C102.35 147.709 102.164 147.331 101.793 147.064C101.428 146.791 100.787 146.557 99.8691 146.361C98.9577 146.166 98.2318 145.932 97.6914 145.658C97.1576 145.385 96.7604 145.059 96.5 144.682C96.2461 144.304 96.1191 143.855 96.1191 143.334C96.1191 142.468 96.4837 141.736 97.2129 141.137C97.9486 140.538 98.8861 140.238 100.025 140.238C101.223 140.238 102.193 140.548 102.936 141.166C103.684 141.785 104.059 142.576 104.059 143.539H102.242C102.242 143.044 102.031 142.618 101.607 142.26C101.191 141.902 100.663 141.723 100.025 141.723C99.3678 141.723 98.8535 141.866 98.4824 142.152C98.1113 142.439 97.9258 142.813 97.9258 143.275C97.9258 143.712 98.0983 144.04 98.4434 144.262C98.7884 144.483 99.4102 144.695 100.309 144.896C101.214 145.098 101.946 145.339 102.506 145.619C103.066 145.899 103.479 146.238 103.746 146.635C104.02 147.025 104.156 147.504 104.156 148.07C104.156 149.014 103.779 149.773 103.023 150.346C102.268 150.912 101.288 151.195 100.084 151.195C99.2376 151.195 98.4889 151.046 97.8379 150.746C97.1868 150.447 96.6758 150.03 96.3047 149.496C95.9401 148.956 95.7578 148.373 95.7578 147.748H97.5645C97.597 148.354 97.8379 148.835 98.2871 149.193C98.7428 149.545 99.3418 149.721 100.084 149.721C100.768 149.721 101.314 149.584 101.725 149.311C102.141 149.031 102.35 148.66 102.35 148.197ZM113.922 137.875V140.434H115.895V141.83H113.922V148.383C113.922 148.806 114.01 149.125 114.186 149.34C114.361 149.548 114.661 149.652 115.084 149.652C115.292 149.652 115.579 149.613 115.943 149.535V151C115.468 151.13 115.006 151.195 114.557 151.195C113.749 151.195 113.141 150.951 112.73 150.463C112.32 149.975 112.115 149.281 112.115 148.383V141.83H110.191V140.434H112.115V137.875H113.922ZM117.34 145.619C117.34 144.584 117.542 143.653 117.945 142.826C118.355 141.999 118.922 141.361 119.645 140.912C120.374 140.463 121.204 140.238 122.135 140.238C123.574 140.238 124.736 140.736 125.621 141.732C126.513 142.729 126.959 144.053 126.959 145.707V145.834C126.959 146.863 126.76 147.787 126.363 148.607C125.973 149.421 125.41 150.056 124.674 150.512C123.945 150.967 123.105 151.195 122.154 151.195C120.722 151.195 119.56 150.697 118.668 149.701C117.783 148.705 117.34 147.387 117.34 145.746V145.619ZM119.156 145.834C119.156 147.006 119.426 147.947 119.967 148.656C120.514 149.366 121.243 149.721 122.154 149.721C123.072 149.721 123.801 149.363 124.342 148.646C124.882 147.924 125.152 146.915 125.152 145.619C125.152 144.46 124.876 143.523 124.322 142.807C123.775 142.084 123.046 141.723 122.135 141.723C121.243 141.723 120.523 142.077 119.977 142.787C119.43 143.497 119.156 144.512 119.156 145.834ZM138.57 151.195C137.138 151.195 135.973 150.727 135.074 149.789C134.176 148.845 133.727 147.585 133.727 146.01V145.678C133.727 144.63 133.925 143.695 134.322 142.875C134.726 142.048 135.286 141.404 136.002 140.941C136.725 140.473 137.506 140.238 138.346 140.238C139.719 140.238 140.787 140.691 141.549 141.596C142.311 142.501 142.691 143.796 142.691 145.482V146.234H135.533C135.559 147.276 135.862 148.119 136.441 148.764C137.027 149.402 137.77 149.721 138.668 149.721C139.306 149.721 139.846 149.59 140.289 149.33C140.732 149.07 141.119 148.725 141.451 148.295L142.555 149.154C141.669 150.515 140.341 151.195 138.57 151.195ZM138.346 141.723C137.617 141.723 137.005 141.99 136.51 142.523C136.015 143.051 135.709 143.793 135.592 144.75H140.885V144.613C140.833 143.695 140.585 142.986 140.143 142.484C139.7 141.977 139.101 141.723 138.346 141.723ZM145.68 151V141.83H144.01V140.434H145.68V139.35C145.68 138.217 145.982 137.341 146.588 136.723C147.193 136.104 148.049 135.795 149.156 135.795C149.573 135.795 149.986 135.85 150.396 135.961L150.299 137.426C149.993 137.367 149.667 137.338 149.322 137.338C148.736 137.338 148.284 137.51 147.965 137.855C147.646 138.194 147.486 138.682 147.486 139.32V140.434H151.393V139.535C151.393 138.357 151.728 137.439 152.398 136.781C153.076 136.124 154.029 135.795 155.26 135.795C155.989 135.795 156.91 135.993 158.023 136.391L157.721 137.914C156.907 137.589 156.129 137.426 155.387 137.426C154.612 137.426 154.052 137.598 153.707 137.943C153.368 138.288 153.199 138.812 153.199 139.516V140.434H155.367V141.83H153.199V151H151.393V141.83H147.486V151H145.68ZM158.912 151H157.105V140.434H158.912V151ZM166.1 149.721C166.744 149.721 167.307 149.525 167.789 149.135C168.271 148.744 168.538 148.256 168.59 147.67H170.299C170.266 148.275 170.058 148.852 169.674 149.398C169.29 149.945 168.775 150.382 168.131 150.707C167.493 151.033 166.816 151.195 166.1 151.195C164.661 151.195 163.515 150.717 162.662 149.76C161.816 148.796 161.393 147.481 161.393 145.814V145.512C161.393 144.483 161.581 143.568 161.959 142.768C162.337 141.967 162.877 141.345 163.58 140.902C164.29 140.46 165.126 140.238 166.09 140.238C167.275 140.238 168.258 140.593 169.039 141.303C169.827 142.012 170.247 142.934 170.299 144.066H168.59C168.538 143.383 168.277 142.823 167.809 142.387C167.346 141.944 166.773 141.723 166.09 141.723C165.172 141.723 164.459 142.055 163.951 142.719C163.45 143.376 163.199 144.33 163.199 145.58V145.922C163.199 147.139 163.45 148.077 163.951 148.734C164.452 149.392 165.169 149.721 166.1 149.721ZM174.293 151H172.486V140.434H174.293V151ZM172.34 137.631C172.34 137.338 172.428 137.09 172.604 136.889C172.786 136.687 173.053 136.586 173.404 136.586C173.756 136.586 174.023 136.687 174.205 136.889C174.387 137.09 174.479 137.338 174.479 137.631C174.479 137.924 174.387 138.168 174.205 138.363C174.023 138.559 173.756 138.656 173.404 138.656C173.053 138.656 172.786 138.559 172.604 138.363C172.428 138.168 172.34 137.924 172.34 137.631ZM181.578 151.195C180.146 151.195 178.98 150.727 178.082 149.789C177.184 148.845 176.734 147.585 176.734 146.01V145.678C176.734 144.63 176.933 143.695 177.33 142.875C177.734 142.048 178.294 141.404 179.01 140.941C179.732 140.473 180.514 140.238 181.354 140.238C182.727 140.238 183.795 140.691 184.557 141.596C185.318 142.501 185.699 143.796 185.699 145.482V146.234H178.541C178.567 147.276 178.87 148.119 179.449 148.764C180.035 149.402 180.777 149.721 181.676 149.721C182.314 149.721 182.854 149.59 183.297 149.33C183.74 149.07 184.127 148.725 184.459 148.295L185.562 149.154C184.677 150.515 183.349 151.195 181.578 151.195ZM181.354 141.723C180.624 141.723 180.012 141.99 179.518 142.523C179.023 143.051 178.717 143.793 178.6 144.75H183.893V144.613C183.84 143.695 183.593 142.986 183.15 142.484C182.708 141.977 182.109 141.723 181.354 141.723ZM189.508 140.434L189.566 141.762C190.374 140.746 191.428 140.238 192.73 140.238C194.964 140.238 196.09 141.498 196.109 144.018V151H194.303V144.008C194.296 143.246 194.12 142.683 193.775 142.318C193.437 141.954 192.906 141.771 192.184 141.771C191.598 141.771 191.083 141.928 190.641 142.24C190.198 142.553 189.853 142.963 189.605 143.471V151H187.799V140.434H189.508ZM201.285 137.875V140.434H203.258V141.83H201.285V148.383C201.285 148.806 201.373 149.125 201.549 149.34C201.725 149.548 202.024 149.652 202.447 149.652C202.656 149.652 202.942 149.613 203.307 149.535V151C202.831 151.13 202.369 151.195 201.92 151.195C201.113 151.195 200.504 150.951 200.094 150.463C199.684 149.975 199.479 149.281 199.479 148.383V141.83H197.555V140.434H199.479V137.875H201.285ZM207.34 151H205.533V136H207.34V151ZM213.697 148.354L216.158 140.434H218.092L213.844 152.631C213.186 154.389 212.141 155.268 210.709 155.268L210.367 155.238L209.693 155.111V153.646L210.182 153.686C210.794 153.686 211.269 153.562 211.607 153.314C211.952 153.067 212.236 152.615 212.457 151.957L212.857 150.883L209.088 140.434H211.061L213.697 148.354ZM39.8008 176.629C39.8008 174.982 40.1816 173.673 40.9434 172.703C41.7051 171.727 42.7142 171.238 43.9707 171.238C45.2598 171.238 46.2656 171.694 46.9883 172.605L47.0762 171.434H48.7266V181.746C48.7266 183.113 48.3197 184.191 47.5059 184.979C46.6986 185.766 45.6113 186.16 44.2441 186.16C43.4824 186.16 42.737 185.997 42.0078 185.672C41.2786 185.346 40.722 184.9 40.3379 184.334L41.2754 183.25C42.0501 184.207 42.9974 184.686 44.1172 184.686C44.9961 184.686 45.6797 184.438 46.168 183.943C46.6628 183.449 46.9102 182.752 46.9102 181.854V180.945C46.1875 181.779 45.2012 182.195 43.9512 182.195C42.7142 182.195 41.7116 181.697 40.9434 180.701C40.1816 179.705 39.8008 178.348 39.8008 176.629ZM41.6172 176.834C41.6172 178.025 41.8613 178.963 42.3496 179.646C42.8379 180.324 43.5215 180.662 44.4004 180.662C45.5397 180.662 46.3763 180.145 46.9102 179.109V174.285C46.3568 173.276 45.5267 172.771 44.4199 172.771C43.541 172.771 42.8542 173.113 42.3594 173.797C41.8646 174.48 41.6172 175.493 41.6172 176.834ZM56.5684 173.055C56.2949 173.009 55.9987 172.986 55.6797 172.986C54.4948 172.986 53.6908 173.491 53.2676 174.5V182H51.4609V171.434H53.2188L53.248 172.654C53.8405 171.71 54.6803 171.238 55.7676 171.238C56.1191 171.238 56.3861 171.284 56.5684 171.375V173.055ZM57.5645 176.619C57.5645 175.584 57.7663 174.653 58.1699 173.826C58.5801 172.999 59.1465 172.361 59.8691 171.912C60.5983 171.463 61.4284 171.238 62.3594 171.238C63.7982 171.238 64.9603 171.736 65.8457 172.732C66.7376 173.729 67.1836 175.053 67.1836 176.707V176.834C67.1836 177.863 66.985 178.787 66.5879 179.607C66.1973 180.421 65.6341 181.056 64.8984 181.512C64.1693 181.967 63.3294 182.195 62.3789 182.195C60.9466 182.195 59.7845 181.697 58.8926 180.701C58.0072 179.705 57.5645 178.387 57.5645 176.746V176.619ZM59.3809 176.834C59.3809 178.006 59.651 178.947 60.1914 179.656C60.7383 180.366 61.4674 180.721 62.3789 180.721C63.2969 180.721 64.026 180.363 64.5664 179.646C65.1068 178.924 65.377 177.915 65.377 176.619C65.377 175.46 65.1003 174.523 64.5469 173.807C64 173.084 63.2708 172.723 62.3594 172.723C61.4674 172.723 60.748 173.077 60.2012 173.787C59.6543 174.497 59.3809 175.512 59.3809 176.834ZM78.8047 179.51L80.8359 171.434H82.6426L79.5664 182H78.1016L75.5332 173.992L73.0332 182H71.5684L68.502 171.434H70.2988L72.3789 179.344L74.8398 171.434H76.2949L78.8047 179.51ZM95.9727 182C95.8685 181.792 95.7839 181.421 95.7188 180.887C94.8789 181.759 93.8763 182.195 92.7109 182.195C91.6693 182.195 90.8132 181.902 90.1426 181.316C89.4785 180.724 89.1465 179.975 89.1465 179.07C89.1465 177.97 89.5632 177.117 90.3965 176.512C91.2363 175.9 92.4147 175.594 93.9316 175.594H95.6895V174.764C95.6895 174.132 95.5007 173.631 95.123 173.26C94.7454 172.882 94.1888 172.693 93.4531 172.693C92.8086 172.693 92.2682 172.856 91.832 173.182C91.3958 173.507 91.1777 173.901 91.1777 174.363H89.3613C89.3613 173.836 89.5469 173.328 89.918 172.84C90.2956 172.345 90.8034 171.954 91.4414 171.668C92.0859 171.382 92.7923 171.238 93.5605 171.238C94.778 171.238 95.7318 171.544 96.4219 172.156C97.112 172.762 97.4701 173.598 97.4961 174.666V179.529C97.4961 180.499 97.6198 181.271 97.8672 181.844V182H95.9727ZM92.9746 180.623C93.541 180.623 94.0781 180.477 94.5859 180.184C95.0938 179.891 95.4616 179.51 95.6895 179.041V176.873H94.2734C92.0599 176.873 90.9531 177.521 90.9531 178.816C90.9531 179.383 91.1419 179.826 91.5195 180.145C91.8971 180.464 92.3822 180.623 92.9746 180.623ZM102.037 171.434L102.096 172.762C102.903 171.746 103.958 171.238 105.26 171.238C107.493 171.238 108.619 172.498 108.639 175.018V182H106.832V175.008C106.826 174.246 106.65 173.683 106.305 173.318C105.966 172.954 105.436 172.771 104.713 172.771C104.127 172.771 103.613 172.928 103.17 173.24C102.727 173.553 102.382 173.963 102.135 174.471V182H100.328V171.434H102.037ZM110.924 176.629C110.924 175.008 111.308 173.706 112.076 172.723C112.844 171.733 113.85 171.238 115.094 171.238C116.331 171.238 117.311 171.661 118.033 172.508V167H119.84V182H118.18L118.092 180.867C117.369 181.753 116.363 182.195 115.074 182.195C113.85 182.195 112.851 181.694 112.076 180.691C111.308 179.689 110.924 178.38 110.924 176.766V176.629ZM112.73 176.834C112.73 178.032 112.978 178.969 113.473 179.646C113.967 180.324 114.651 180.662 115.523 180.662C116.669 180.662 117.506 180.148 118.033 179.119V174.266C117.493 173.27 116.663 172.771 115.543 172.771C114.658 172.771 113.967 173.113 113.473 173.797C112.978 174.48 112.73 175.493 112.73 176.834ZM133.766 179.197C133.766 178.709 133.58 178.331 133.209 178.064C132.844 177.791 132.203 177.557 131.285 177.361C130.374 177.166 129.648 176.932 129.107 176.658C128.574 176.385 128.176 176.059 127.916 175.682C127.662 175.304 127.535 174.855 127.535 174.334C127.535 173.468 127.9 172.736 128.629 172.137C129.365 171.538 130.302 171.238 131.441 171.238C132.639 171.238 133.609 171.548 134.352 172.166C135.1 172.785 135.475 173.576 135.475 174.539H133.658C133.658 174.044 133.447 173.618 133.023 173.26C132.607 172.902 132.079 172.723 131.441 172.723C130.784 172.723 130.27 172.866 129.898 173.152C129.527 173.439 129.342 173.813 129.342 174.275C129.342 174.712 129.514 175.04 129.859 175.262C130.204 175.483 130.826 175.695 131.725 175.896C132.63 176.098 133.362 176.339 133.922 176.619C134.482 176.899 134.895 177.238 135.162 177.635C135.436 178.025 135.572 178.504 135.572 179.07C135.572 180.014 135.195 180.773 134.439 181.346C133.684 181.912 132.704 182.195 131.5 182.195C130.654 182.195 129.905 182.046 129.254 181.746C128.603 181.447 128.092 181.03 127.721 180.496C127.356 179.956 127.174 179.373 127.174 178.748H128.98C129.013 179.354 129.254 179.835 129.703 180.193C130.159 180.545 130.758 180.721 131.5 180.721C132.184 180.721 132.73 180.584 133.141 180.311C133.557 180.031 133.766 179.66 133.766 179.197ZM142.164 180.721C142.809 180.721 143.372 180.525 143.854 180.135C144.335 179.744 144.602 179.256 144.654 178.67H146.363C146.331 179.275 146.122 179.852 145.738 180.398C145.354 180.945 144.84 181.382 144.195 181.707C143.557 182.033 142.88 182.195 142.164 182.195C140.725 182.195 139.579 181.717 138.727 180.76C137.88 179.796 137.457 178.481 137.457 176.814V176.512C137.457 175.483 137.646 174.568 138.023 173.768C138.401 172.967 138.941 172.345 139.645 171.902C140.354 171.46 141.191 171.238 142.154 171.238C143.339 171.238 144.322 171.593 145.104 172.303C145.891 173.012 146.311 173.934 146.363 175.066H144.654C144.602 174.383 144.342 173.823 143.873 173.387C143.411 172.944 142.838 172.723 142.154 172.723C141.236 172.723 140.523 173.055 140.016 173.719C139.514 174.376 139.264 175.33 139.264 176.58V176.922C139.264 178.139 139.514 179.077 140.016 179.734C140.517 180.392 141.233 180.721 142.164 180.721ZM154.918 182C154.814 181.792 154.729 181.421 154.664 180.887C153.824 181.759 152.822 182.195 151.656 182.195C150.615 182.195 149.758 181.902 149.088 181.316C148.424 180.724 148.092 179.975 148.092 179.07C148.092 177.97 148.508 177.117 149.342 176.512C150.182 175.9 151.36 175.594 152.877 175.594H154.635V174.764C154.635 174.132 154.446 173.631 154.068 173.26C153.691 172.882 153.134 172.693 152.398 172.693C151.754 172.693 151.214 172.856 150.777 173.182C150.341 173.507 150.123 173.901 150.123 174.363H148.307C148.307 173.836 148.492 173.328 148.863 172.84C149.241 172.345 149.749 171.954 150.387 171.668C151.031 171.382 151.738 171.238 152.506 171.238C153.723 171.238 154.677 171.544 155.367 172.156C156.057 172.762 156.415 173.598 156.441 174.666V179.529C156.441 180.499 156.565 181.271 156.812 181.844V182H154.918ZM151.92 180.623C152.486 180.623 153.023 180.477 153.531 180.184C154.039 179.891 154.407 179.51 154.635 179.041V176.873H153.219C151.005 176.873 149.898 177.521 149.898 178.816C149.898 179.383 150.087 179.826 150.465 180.145C150.842 180.464 151.327 180.623 151.92 180.623ZM161.236 182H159.43V167H161.236V182ZM168.521 182.195C167.089 182.195 165.924 181.727 165.025 180.789C164.127 179.845 163.678 178.585 163.678 177.01V176.678C163.678 175.63 163.876 174.695 164.273 173.875C164.677 173.048 165.237 172.404 165.953 171.941C166.676 171.473 167.457 171.238 168.297 171.238C169.671 171.238 170.738 171.691 171.5 172.596C172.262 173.501 172.643 174.796 172.643 176.482V177.234H165.484C165.51 178.276 165.813 179.119 166.393 179.764C166.979 180.402 167.721 180.721 168.619 180.721C169.257 180.721 169.798 180.59 170.24 180.33C170.683 180.07 171.07 179.725 171.402 179.295L172.506 180.154C171.62 181.515 170.292 182.195 168.521 182.195ZM168.297 172.723C167.568 172.723 166.956 172.99 166.461 173.523C165.966 174.051 165.66 174.793 165.543 175.75H170.836V175.613C170.784 174.695 170.536 173.986 170.094 173.484C169.651 172.977 169.052 172.723 168.297 172.723ZM174.781 181.053C174.781 180.74 174.872 180.48 175.055 180.271C175.243 180.063 175.523 179.959 175.895 179.959C176.266 179.959 176.546 180.063 176.734 180.271C176.93 180.48 177.027 180.74 177.027 181.053C177.027 181.352 176.93 181.603 176.734 181.805C176.546 182.007 176.266 182.107 175.895 182.107C175.523 182.107 175.243 182.007 175.055 181.805C174.872 181.603 174.781 181.352 174.781 181.053ZM178.6 171.785L177.574 171.082C178.18 170.236 178.492 169.344 178.512 168.406V167H180.299V168.27C180.292 168.921 180.13 169.572 179.811 170.223C179.498 170.867 179.094 171.388 178.6 171.785ZM181.598 171.785L180.572 171.082C181.178 170.236 181.49 169.344 181.51 168.406V167H183.297V168.27C183.29 168.921 183.128 169.572 182.809 170.223C182.496 170.867 182.092 171.388 181.598 171.785Z" fill="#180330"/>
<path d="M108.25 27.5H109.5V28.75H108.25V27.5ZM111.376 25H112.626V26.25H111.376V25ZM111.376 15H112.626V16.25H111.376V15ZM105.75 15H107V16.25H105.75V15ZM117 15H118.25V16.25H117V15ZM108.25 13.75H109.5V15H108.25V13.75ZM114.5 13.75H115.75V15H114.5V13.75ZM111.376 18.126H112.626V19.376H111.376V18.126ZM104.5 18.126H105.75V19.376H104.5V18.126ZM105.75 21.25H107V22.5H105.75V21.25ZM117 20.626H118.25V21.876H117V20.626ZM118.25 18.126H119.5V19.376H118.25V18.126ZM108.25 16.876H109.5V18.126H108.25V16.876ZM108.25 19.376H109.5V20.626H108.25V19.376ZM98.25 23.75H99.5V25H98.25V23.75ZM100.75 20.626H102V21.876H100.75V20.626ZM102.626 23.75H103.876V25H102.626V23.75ZM100.75 27.5H102V28.75H100.75V27.5ZM124.5 23.75H125.75V25H124.5V23.75ZM122 20.626H123.25V21.876H122V20.626ZM120.126 23.75H121.376V25H120.126V23.75ZM122 27.5H123.25V28.75H122V27.5ZM114.5 16.876H115.75V18.126H114.5V16.876ZM114.5 19.376H115.75V20.626H114.5V19.376ZM113.876 27.5H115.126V28.75H113.876V27.5ZM111.376 30H112.626V31.25H111.376V30ZM105.75 32.5H107V33.75H105.75V32.5ZM108.25 32.5H109.5V33.75H108.25V32.5ZM107 35H108.25V36.25H107V35ZM103.25 36.25H104.5V37.5H103.25V36.25ZM119.5 36.25H120.75V37.5H119.5V36.25ZM110.75 35H112V36.25H110.75V35ZM118.25 32.5H119.5V33.75H118.25V32.5ZM115.75 32.5H117V33.75H115.75V32.5ZM117 35H118.25V36.25H117V35ZM113.25 33.75H114.5V35H113.25V33.75ZM112.924 0.086C112.619 0.0308724 112.31 0.00209953 112 0C108 0 104.5 4.674 104.5 10C104.501 11.1134 104.653 12.2216 104.952 13.294L106.152 12.958C105.884 11.9948 105.749 10.9997 105.75 10C105.75 5.376 108.624 1.316 111.918 1.25L111.904 1.28C111.766 1.54738 111.619 1.80956 111.462 2.066C110.667 3.23597 110.254 4.62364 110.28 6.038C110.254 7.44955 110.668 8.83426 111.464 10C112.144 10.9734 112.495 12.139 112.464 13.326H113.714C113.741 11.9124 113.328 10.5254 112.53 9.358C111.85 8.38462 111.499 7.21902 111.53 6.032C111.5 4.84375 111.85 3.67692 112.53 2.702C112.629 2.538 112.727 2.37 112.824 2.198L112.912 2.034C113.004 1.862 113.094 1.682 113.178 1.49L113.208 1.43C116.028 2.276 118.246 5.974 118.246 9.994C118.247 10.9935 118.112 11.9885 117.846 12.952L119.046 13.286C119.345 12.2161 119.497 11.1108 119.5 10C119.5 5.084 116.612 0.728 112.924 0.086Z" fill="black"/>
<path d="M127.316 38.75L115.6 22.8C115.197 22.2216 114.66 21.7491 114.035 21.4229C113.41 21.0966 112.715 20.9263 112.01 20.9263C111.305 20.9263 110.61 21.0966 109.985 21.4229C109.36 21.7491 108.823 22.2216 108.42 22.8L96.684 38.75H92V40H132V38.75H127.316ZM98.236 38.75L109.436 23.522C109.725 23.1081 110.11 22.7702 110.558 22.5373C111.006 22.3044 111.503 22.1834 112.008 22.1846C112.513 22.1857 113.01 22.3091 113.457 22.5441C113.904 22.7791 114.287 23.1187 114.574 23.534L125.774 38.75H98.236Z" fill="black"/>
</svg>
