<svg width="228" height="292" viewBox="0 0 228 292" fill="none" xmlns="http://www.w3.org/2000/svg">
<path d="M74.4062 283.508C74.0208 284.06 73.4818 284.474 72.7891 284.75C72.1016 285.021 71.2995 285.156 70.3828 285.156C69.4557 285.156 68.6328 284.94 67.9141 284.508C67.1953 284.07 66.638 283.451 66.2422 282.648C65.8516 281.846 65.651 280.917 65.6406 279.859V278.867C65.6406 277.154 66.0391 275.826 66.8359 274.883C67.638 273.94 68.763 273.469 70.2109 273.469C71.3984 273.469 72.3542 273.773 73.0781 274.383C73.8021 274.987 74.2448 275.846 74.4062 276.961H72.9062C72.625 275.456 71.7292 274.703 70.2188 274.703C69.2135 274.703 68.4505 275.057 67.9297 275.766C67.4141 276.469 67.1536 277.49 67.1484 278.828V279.758C67.1484 281.034 67.4401 282.049 68.0234 282.805C68.6068 283.555 69.3958 283.93 70.3906 283.93C70.9531 283.93 71.4453 283.867 71.8672 283.742C72.2891 283.617 72.638 283.406 72.9141 283.109V280.555H70.2812V279.336H74.4062V283.508ZM80.7734 277.844C80.5547 277.807 80.3177 277.789 80.0625 277.789C79.1146 277.789 78.4714 278.193 78.1328 279V285H76.6875V276.547H78.0938L78.1172 277.523C78.5911 276.768 79.263 276.391 80.1328 276.391C80.4141 276.391 80.6276 276.427 80.7734 276.5V277.844ZM85.4609 285.156C84.3151 285.156 83.3828 284.781 82.6641 284.031C81.9453 283.276 81.5859 282.268 81.5859 281.008V280.742C81.5859 279.904 81.7448 279.156 82.0625 278.5C82.3854 277.839 82.8333 277.323 83.4062 276.953C83.9844 276.578 84.6094 276.391 85.2812 276.391C86.3802 276.391 87.2344 276.753 87.8438 277.477C88.4531 278.201 88.7578 279.237 88.7578 280.586V281.188H83.0312C83.0521 282.021 83.2943 282.695 83.7578 283.211C84.2266 283.721 84.8203 283.977 85.5391 283.977C86.0495 283.977 86.4818 283.872 86.8359 283.664C87.1901 283.456 87.5 283.18 87.7656 282.836L88.6484 283.523C87.9401 284.612 86.8776 285.156 85.4609 285.156ZM85.2812 277.578C84.6979 277.578 84.2083 277.792 83.8125 278.219C83.4167 278.641 83.1719 279.234 83.0781 280H87.3125V279.891C87.2708 279.156 87.0729 278.589 86.7188 278.188C86.3646 277.781 85.8854 277.578 85.2812 277.578ZM95.6562 285C95.5729 284.833 95.5052 284.536 95.4531 284.109C94.7812 284.807 93.9792 285.156 93.0469 285.156C92.2135 285.156 91.5286 284.922 90.9922 284.453C90.4609 283.979 90.1953 283.38 90.1953 282.656C90.1953 281.776 90.5286 281.094 91.1953 280.609C91.8672 280.12 92.8099 279.875 94.0234 279.875H95.4297V279.211C95.4297 278.706 95.2786 278.305 94.9766 278.008C94.6745 277.706 94.2292 277.555 93.6406 277.555C93.125 277.555 92.6927 277.685 92.3438 277.945C91.9948 278.206 91.8203 278.521 91.8203 278.891H90.3672C90.3672 278.469 90.5156 278.062 90.8125 277.672C91.1146 277.276 91.5208 276.964 92.0312 276.734C92.5469 276.505 93.112 276.391 93.7266 276.391C94.7005 276.391 95.4635 276.635 96.0156 277.125C96.5677 277.609 96.8542 278.279 96.875 279.133V283.023C96.875 283.799 96.974 284.417 97.1719 284.875V285H95.6562ZM93.2578 283.898C93.7109 283.898 94.1406 283.781 94.5469 283.547C94.9531 283.312 95.2474 283.008 95.4297 282.633V280.898H94.2969C92.526 280.898 91.6406 281.417 91.6406 282.453C91.6406 282.906 91.7917 283.26 92.0938 283.516C92.3958 283.771 92.7839 283.898 93.2578 283.898ZM101.102 274.5V276.547H102.68V277.664H101.102V282.906C101.102 283.245 101.172 283.5 101.312 283.672C101.453 283.839 101.693 283.922 102.031 283.922C102.198 283.922 102.427 283.891 102.719 283.828V285C102.339 285.104 101.969 285.156 101.609 285.156C100.964 285.156 100.477 284.961 100.148 284.57C99.8203 284.18 99.6562 283.625 99.6562 282.906V277.664H98.1172V276.547H99.6562V274.5H101.102ZM117.312 285H115.805V279.742H110.07V285H108.57V273.625H110.07V278.516H115.805V273.625H117.312V285ZM123.258 285.156C122.112 285.156 121.18 284.781 120.461 284.031C119.742 283.276 119.383 282.268 119.383 281.008V280.742C119.383 279.904 119.542 279.156 119.859 278.5C120.182 277.839 120.63 277.323 121.203 276.953C121.781 276.578 122.406 276.391 123.078 276.391C124.177 276.391 125.031 276.753 125.641 277.477C126.25 278.201 126.555 279.237 126.555 280.586V281.188H120.828C120.849 282.021 121.091 282.695 121.555 283.211C122.023 283.721 122.617 283.977 123.336 283.977C123.846 283.977 124.279 283.872 124.633 283.664C124.987 283.456 125.297 283.18 125.562 282.836L126.445 283.523C125.737 284.612 124.674 285.156 123.258 285.156ZM123.078 277.578C122.495 277.578 122.005 277.792 121.609 278.219C121.214 278.641 120.969 279.234 120.875 280H125.109V279.891C125.068 279.156 124.87 278.589 124.516 278.188C124.161 277.781 123.682 277.578 123.078 277.578ZM129.805 285H128.359V276.547H129.805V285ZM128.242 274.305C128.242 274.07 128.312 273.872 128.453 273.711C128.599 273.549 128.812 273.469 129.094 273.469C129.375 273.469 129.589 273.549 129.734 273.711C129.88 273.872 129.953 274.07 129.953 274.305C129.953 274.539 129.88 274.734 129.734 274.891C129.589 275.047 129.375 275.125 129.094 275.125C128.812 275.125 128.599 275.047 128.453 274.891C128.312 274.734 128.242 274.539 128.242 274.305ZM131.781 280.703C131.781 279.385 132.086 278.339 132.695 277.562C133.305 276.781 134.112 276.391 135.117 276.391C136.148 276.391 136.953 276.755 137.531 277.484L137.602 276.547H138.922V284.797C138.922 285.891 138.596 286.753 137.945 287.383C137.299 288.013 136.43 288.328 135.336 288.328C134.727 288.328 134.13 288.198 133.547 287.938C132.964 287.677 132.518 287.32 132.211 286.867L132.961 286C133.581 286.766 134.339 287.148 135.234 287.148C135.938 287.148 136.484 286.951 136.875 286.555C137.271 286.159 137.469 285.602 137.469 284.883V284.156C136.891 284.823 136.102 285.156 135.102 285.156C134.112 285.156 133.31 284.758 132.695 283.961C132.086 283.164 131.781 282.078 131.781 280.703ZM133.234 280.867C133.234 281.82 133.43 282.57 133.82 283.117C134.211 283.659 134.758 283.93 135.461 283.93C136.372 283.93 137.042 283.516 137.469 282.688V278.828C137.026 278.021 136.362 277.617 135.477 277.617C134.773 277.617 134.224 277.891 133.828 278.438C133.432 278.984 133.234 279.794 133.234 280.867ZM142.555 277.57C143.195 276.784 144.029 276.391 145.055 276.391C146.841 276.391 147.742 277.398 147.758 279.414V285H146.312V279.406C146.307 278.797 146.167 278.346 145.891 278.055C145.62 277.763 145.195 277.617 144.617 277.617C144.148 277.617 143.737 277.742 143.383 277.992C143.029 278.242 142.753 278.57 142.555 278.977V285H141.109V273H142.555V277.57ZM151.883 274.5V276.547H153.461V277.664H151.883V282.906C151.883 283.245 151.953 283.5 152.094 283.672C152.234 283.839 152.474 283.922 152.812 283.922C152.979 283.922 153.208 283.891 153.5 283.828V285C153.12 285.104 152.75 285.156 152.391 285.156C151.745 285.156 151.258 284.961 150.93 284.57C150.602 284.18 150.438 283.625 150.438 282.906V277.664H148.898V276.547H150.438V274.5H151.883ZM160.078 282.758C160.078 282.367 159.93 282.065 159.633 281.852C159.341 281.633 158.828 281.445 158.094 281.289C157.365 281.133 156.784 280.945 156.352 280.727C155.924 280.508 155.607 280.247 155.398 279.945C155.195 279.643 155.094 279.284 155.094 278.867C155.094 278.174 155.385 277.589 155.969 277.109C156.557 276.63 157.307 276.391 158.219 276.391C159.177 276.391 159.953 276.638 160.547 277.133C161.146 277.628 161.445 278.26 161.445 279.031H159.992C159.992 278.635 159.823 278.294 159.484 278.008C159.151 277.721 158.729 277.578 158.219 277.578C157.693 277.578 157.281 277.693 156.984 277.922C156.688 278.151 156.539 278.451 156.539 278.82C156.539 279.169 156.677 279.432 156.953 279.609C157.229 279.786 157.727 279.956 158.445 280.117C159.169 280.279 159.755 280.471 160.203 280.695C160.651 280.919 160.982 281.19 161.195 281.508C161.414 281.82 161.523 282.203 161.523 282.656C161.523 283.411 161.221 284.018 160.617 284.477C160.013 284.93 159.229 285.156 158.266 285.156C157.589 285.156 156.99 285.036 156.469 284.797C155.948 284.557 155.539 284.224 155.242 283.797C154.951 283.365 154.805 282.898 154.805 282.398H156.25C156.276 282.883 156.469 283.268 156.828 283.555C157.193 283.836 157.672 283.977 158.266 283.977C158.812 283.977 159.25 283.867 159.578 283.648C159.911 283.424 160.078 283.128 160.078 282.758Z" fill="#180330"/>
<path d="M61.4375 256.398H58.7656V261H57.2578V249.625H61.0234C62.3047 249.625 63.2891 249.917 63.9766 250.5C64.6693 251.083 65.0156 251.932 65.0156 253.047C65.0156 253.755 64.8229 254.372 64.4375 254.898C64.0573 255.424 63.526 255.818 62.8438 256.078L65.5156 260.906V261H63.9062L61.4375 256.398ZM58.7656 255.172H61.0703C61.8151 255.172 62.4062 254.979 62.8438 254.594C63.2865 254.208 63.5078 253.693 63.5078 253.047C63.5078 252.344 63.2969 251.805 62.875 251.43C62.4583 251.055 61.8542 250.865 61.0625 250.859H58.7656V255.172ZM69.6641 258.883L71.6328 252.547H73.1797L69.7812 262.305C69.2552 263.711 68.4193 264.414 67.2734 264.414L67 264.391L66.4609 264.289V263.117L66.8516 263.148C67.3411 263.148 67.7214 263.049 67.9922 262.852C68.2682 262.654 68.4948 262.292 68.6719 261.766L68.9922 260.906L65.9766 252.547H67.5547L69.6641 258.883ZM79.5703 261C79.487 260.833 79.4193 260.536 79.3672 260.109C78.6953 260.807 77.8932 261.156 76.9609 261.156C76.1276 261.156 75.4427 260.922 74.9062 260.453C74.375 259.979 74.1094 259.38 74.1094 258.656C74.1094 257.776 74.4427 257.094 75.1094 256.609C75.7812 256.12 76.724 255.875 77.9375 255.875H79.3438V255.211C79.3438 254.706 79.1927 254.305 78.8906 254.008C78.5885 253.706 78.1432 253.555 77.5547 253.555C77.0391 253.555 76.6068 253.685 76.2578 253.945C75.9089 254.206 75.7344 254.521 75.7344 254.891H74.2812C74.2812 254.469 74.4297 254.062 74.7266 253.672C75.0286 253.276 75.4349 252.964 75.9453 252.734C76.4609 252.505 77.026 252.391 77.6406 252.391C78.6146 252.391 79.3776 252.635 79.9297 253.125C80.4818 253.609 80.7682 254.279 80.7891 255.133V259.023C80.7891 259.799 80.888 260.417 81.0859 260.875V261H79.5703ZM77.1719 259.898C77.625 259.898 78.0547 259.781 78.4609 259.547C78.8672 259.312 79.1615 259.008 79.3438 258.633V256.898H78.2109C76.4401 256.898 75.5547 257.417 75.5547 258.453C75.5547 258.906 75.7057 259.26 76.0078 259.516C76.3099 259.771 76.6979 259.898 77.1719 259.898ZM84.4219 252.547L84.4688 253.609C85.1146 252.797 85.9583 252.391 87 252.391C88.7865 252.391 89.6875 253.398 89.7031 255.414V261H88.2578V255.406C88.2526 254.797 88.112 254.346 87.8359 254.055C87.5651 253.763 87.1406 253.617 86.5625 253.617C86.0938 253.617 85.6823 253.742 85.3281 253.992C84.974 254.242 84.6979 254.57 84.5 254.977V261H83.0547V252.547H84.4219ZM96.0781 261V249.625H99.7969C101.031 249.625 101.958 249.88 102.578 250.391C103.203 250.901 103.516 251.656 103.516 252.656C103.516 253.188 103.365 253.659 103.062 254.07C102.76 254.477 102.349 254.792 101.828 255.016C102.443 255.188 102.927 255.516 103.281 256C103.641 256.479 103.82 257.052 103.82 257.719C103.82 258.74 103.49 259.542 102.828 260.125C102.167 260.708 101.232 261 100.023 261H96.0781ZM97.5781 255.68V259.773H100.055C100.753 259.773 101.302 259.594 101.703 259.234C102.109 258.87 102.312 258.37 102.312 257.734C102.312 256.365 101.568 255.68 100.078 255.68H97.5781ZM97.5781 254.477H99.8438C100.5 254.477 101.023 254.312 101.414 253.984C101.81 253.656 102.008 253.211 102.008 252.648C102.008 252.023 101.826 251.57 101.461 251.289C101.096 251.003 100.542 250.859 99.7969 250.859H97.5781V254.477ZM105.438 256.695C105.438 255.867 105.599 255.122 105.922 254.461C106.25 253.799 106.703 253.289 107.281 252.93C107.865 252.57 108.529 252.391 109.273 252.391C110.424 252.391 111.354 252.789 112.062 253.586C112.776 254.383 113.133 255.443 113.133 256.766V256.867C113.133 257.69 112.974 258.43 112.656 259.086C112.344 259.737 111.893 260.245 111.305 260.609C110.721 260.974 110.049 261.156 109.289 261.156C108.143 261.156 107.214 260.758 106.5 259.961C105.792 259.164 105.438 258.109 105.438 256.797V256.695ZM106.891 256.867C106.891 257.805 107.107 258.557 107.539 259.125C107.977 259.693 108.56 259.977 109.289 259.977C110.023 259.977 110.607 259.69 111.039 259.117C111.471 258.539 111.688 257.732 111.688 256.695C111.688 255.768 111.466 255.018 111.023 254.445C110.586 253.867 110.003 253.578 109.273 253.578C108.56 253.578 107.984 253.862 107.547 254.43C107.109 254.997 106.891 255.81 106.891 256.867ZM116.312 252.547L116.359 253.609C117.005 252.797 117.849 252.391 118.891 252.391C120.677 252.391 121.578 253.398 121.594 255.414V261H120.148V255.406C120.143 254.797 120.003 254.346 119.727 254.055C119.456 253.763 119.031 253.617 118.453 253.617C117.984 253.617 117.573 253.742 117.219 253.992C116.865 254.242 116.589 254.57 116.391 254.977V261H114.945V252.547H116.312ZM125.344 261H123.898V252.547H125.344V261ZM123.781 250.305C123.781 250.07 123.852 249.872 123.992 249.711C124.138 249.549 124.352 249.469 124.633 249.469C124.914 249.469 125.128 249.549 125.273 249.711C125.419 249.872 125.492 250.07 125.492 250.305C125.492 250.539 125.419 250.734 125.273 250.891C125.128 251.047 124.914 251.125 124.633 251.125C124.352 251.125 124.138 251.047 123.992 250.891C123.852 250.734 123.781 250.539 123.781 250.305ZM128.375 261V253.664H127.039V252.547H128.375V251.68C128.375 250.773 128.617 250.073 129.102 249.578C129.586 249.083 130.271 248.836 131.156 248.836C131.49 248.836 131.82 248.88 132.148 248.969L132.07 250.141C131.826 250.094 131.565 250.07 131.289 250.07C130.82 250.07 130.458 250.208 130.203 250.484C129.948 250.755 129.82 251.146 129.82 251.656V252.547H131.625V253.664H129.82V261H128.375ZM138.445 261C138.362 260.833 138.294 260.536 138.242 260.109C137.57 260.807 136.768 261.156 135.836 261.156C135.003 261.156 134.318 260.922 133.781 260.453C133.25 259.979 132.984 259.38 132.984 258.656C132.984 257.776 133.318 257.094 133.984 256.609C134.656 256.12 135.599 255.875 136.812 255.875H138.219V255.211C138.219 254.706 138.068 254.305 137.766 254.008C137.464 253.706 137.018 253.555 136.43 253.555C135.914 253.555 135.482 253.685 135.133 253.945C134.784 254.206 134.609 254.521 134.609 254.891H133.156C133.156 254.469 133.305 254.062 133.602 253.672C133.904 253.276 134.31 252.964 134.82 252.734C135.336 252.505 135.901 252.391 136.516 252.391C137.49 252.391 138.253 252.635 138.805 253.125C139.357 253.609 139.643 254.279 139.664 255.133V259.023C139.664 259.799 139.763 260.417 139.961 260.875V261H138.445ZM136.047 259.898C136.5 259.898 136.93 259.781 137.336 259.547C137.742 259.312 138.036 259.008 138.219 258.633V256.898H137.086C135.315 256.898 134.43 257.417 134.43 258.453C134.43 258.906 134.581 259.26 134.883 259.516C135.185 259.771 135.573 259.898 136.047 259.898ZM145.32 259.977C145.836 259.977 146.286 259.82 146.672 259.508C147.057 259.195 147.271 258.805 147.312 258.336H148.68C148.654 258.82 148.487 259.281 148.18 259.719C147.872 260.156 147.461 260.505 146.945 260.766C146.435 261.026 145.893 261.156 145.32 261.156C144.169 261.156 143.253 260.773 142.57 260.008C141.893 259.237 141.555 258.185 141.555 256.852V256.609C141.555 255.786 141.706 255.055 142.008 254.414C142.31 253.773 142.742 253.276 143.305 252.922C143.872 252.568 144.542 252.391 145.312 252.391C146.26 252.391 147.047 252.674 147.672 253.242C148.302 253.81 148.638 254.547 148.68 255.453H147.312C147.271 254.906 147.062 254.458 146.688 254.109C146.318 253.755 145.859 253.578 145.312 253.578C144.578 253.578 144.008 253.844 143.602 254.375C143.201 254.901 143 255.664 143 256.664V256.938C143 257.911 143.201 258.661 143.602 259.188C144.003 259.714 144.576 259.977 145.32 259.977ZM151.875 261H150.43V252.547H151.875V261ZM150.312 250.305C150.312 250.07 150.383 249.872 150.523 249.711C150.669 249.549 150.883 249.469 151.164 249.469C151.445 249.469 151.659 249.549 151.805 249.711C151.951 249.872 152.023 250.07 152.023 250.305C152.023 250.539 151.951 250.734 151.805 250.891C151.659 251.047 151.445 251.125 151.164 251.125C150.883 251.125 150.669 251.047 150.523 250.891C150.383 250.734 150.312 250.539 150.312 250.305ZM155.562 252.547L155.609 253.609C156.255 252.797 157.099 252.391 158.141 252.391C159.927 252.391 160.828 253.398 160.844 255.414V261H159.398V255.406C159.393 254.797 159.253 254.346 158.977 254.055C158.706 253.763 158.281 253.617 157.703 253.617C157.234 253.617 156.823 253.742 156.469 253.992C156.115 254.242 155.839 254.57 155.641 254.977V261H154.195V252.547H155.562ZM162.641 256.695C162.641 255.867 162.802 255.122 163.125 254.461C163.453 253.799 163.906 253.289 164.484 252.93C165.068 252.57 165.732 252.391 166.477 252.391C167.628 252.391 168.557 252.789 169.266 253.586C169.979 254.383 170.336 255.443 170.336 256.766V256.867C170.336 257.69 170.177 258.43 169.859 259.086C169.547 259.737 169.096 260.245 168.508 260.609C167.924 260.974 167.253 261.156 166.492 261.156C165.346 261.156 164.417 260.758 163.703 259.961C162.995 259.164 162.641 258.109 162.641 256.797V256.695ZM164.094 256.867C164.094 257.805 164.31 258.557 164.742 259.125C165.18 259.693 165.763 259.977 166.492 259.977C167.227 259.977 167.81 259.69 168.242 259.117C168.674 258.539 168.891 257.732 168.891 256.695C168.891 255.768 168.669 255.018 168.227 254.445C167.789 253.867 167.206 253.578 166.477 253.578C165.763 253.578 165.188 253.862 164.75 254.43C164.312 254.997 164.094 255.81 164.094 256.867Z" fill="#180330"/>
<path d="M14.1465 73.8145L15.1816 74.5176C14.5762 75.3444 14.2637 76.2363 14.2441 77.1934V78.5215H12.4473V77.3887C12.4473 76.7246 12.6035 76.0671 12.916 75.416C13.235 74.765 13.6452 74.2311 14.1465 73.8145ZM17.2227 73.8145L18.2578 74.5176C17.6523 75.3444 17.3398 76.2363 17.3203 77.1934V78.5215H15.5234V77.3887C15.5234 76.7246 15.6797 76.0671 15.9922 75.416C16.3112 74.765 16.7214 74.2311 17.2227 73.8145ZM22.5742 74.7812L27.2227 86.3828L31.8711 74.7812H34.3027V89H32.4277V83.4629L32.6035 77.4863L27.9355 89H26.5L21.8418 77.5156L22.0273 83.4629V89H20.1523V74.7812H22.5742ZM43.8535 89C43.7493 88.7917 43.6647 88.4206 43.5996 87.8867C42.7598 88.7591 41.7572 89.1953 40.5918 89.1953C39.5501 89.1953 38.694 88.9023 38.0234 88.3164C37.3594 87.724 37.0273 86.9753 37.0273 86.0703C37.0273 84.9701 37.444 84.1172 38.2773 83.5117C39.1172 82.8997 40.2956 82.5938 41.8125 82.5938H43.5703V81.7637C43.5703 81.1322 43.3815 80.6309 43.0039 80.2598C42.6263 79.8822 42.0697 79.6934 41.334 79.6934C40.6895 79.6934 40.1491 79.8561 39.7129 80.1816C39.2767 80.5072 39.0586 80.901 39.0586 81.3633H37.2422C37.2422 80.8359 37.4277 80.3281 37.7988 79.8398C38.1764 79.3451 38.6842 78.9544 39.3223 78.668C39.9668 78.3815 40.6732 78.2383 41.4414 78.2383C42.6589 78.2383 43.6126 78.5443 44.3027 79.1562C44.9928 79.7617 45.3509 80.5983 45.377 81.666V86.5293C45.377 87.4993 45.5007 88.2708 45.748 88.8438V89H43.8535ZM40.8555 87.623C41.4219 87.623 41.959 87.4766 42.4668 87.1836C42.9746 86.8906 43.3424 86.5098 43.5703 86.041V83.873H42.1543C39.9408 83.873 38.834 84.5208 38.834 85.8164C38.834 86.3828 39.0228 86.8255 39.4004 87.1445C39.778 87.4635 40.263 87.623 40.8555 87.623ZM47.7793 83.6289C47.7793 81.9818 48.1602 80.6732 48.9219 79.7031C49.6836 78.7266 50.6927 78.2383 51.9492 78.2383C53.2383 78.2383 54.2441 78.694 54.9668 79.6055L55.0547 78.4336H56.7051V88.7461C56.7051 90.1133 56.2982 91.1908 55.4844 91.9785C54.6771 92.7663 53.5898 93.1602 52.2227 93.1602C51.4609 93.1602 50.7155 92.9974 49.9863 92.6719C49.2572 92.3464 48.7005 91.9004 48.3164 91.334L49.2539 90.25C50.0286 91.207 50.9759 91.6855 52.0957 91.6855C52.9746 91.6855 53.6582 91.4382 54.1465 90.9434C54.6413 90.4486 54.8887 89.752 54.8887 88.8535V87.9453C54.166 88.7786 53.1797 89.1953 51.9297 89.1953C50.6927 89.1953 49.6901 88.6973 48.9219 87.7012C48.1602 86.7051 47.7793 85.3477 47.7793 83.6289ZM49.5957 83.834C49.5957 85.0254 49.8398 85.9629 50.3281 86.6465C50.8164 87.3236 51.5 87.6621 52.3789 87.6621C53.5182 87.6621 54.3548 87.1445 54.8887 86.1094V81.2852C54.3353 80.276 53.5052 79.7715 52.3984 79.7715C51.5195 79.7715 50.8327 80.1133 50.3379 80.7969C49.8431 81.4805 49.5957 82.4928 49.5957 83.834ZM63.8242 89.1953C62.3919 89.1953 61.2266 88.7266 60.3281 87.7891C59.4297 86.8451 58.9805 85.5853 58.9805 84.0098V83.6777C58.9805 82.6296 59.179 81.6953 59.5762 80.875C59.9798 80.0482 60.5397 79.4036 61.2559 78.9414C61.9785 78.4727 62.7598 78.2383 63.5996 78.2383C64.9733 78.2383 66.041 78.6908 66.8027 79.5957C67.5645 80.5007 67.9453 81.7962 67.9453 83.4824V84.2344H60.7871C60.8132 85.276 61.1159 86.1191 61.6953 86.7637C62.2812 87.4017 63.0234 87.7207 63.9219 87.7207C64.5599 87.7207 65.1003 87.5905 65.543 87.3301C65.9857 87.0697 66.373 86.7246 66.7051 86.2949L67.8086 87.1543C66.9232 88.515 65.5951 89.1953 63.8242 89.1953ZM63.5996 79.7227C62.8704 79.7227 62.2585 79.9896 61.7637 80.5234C61.2689 81.0508 60.9629 81.793 60.8457 82.75H66.1387V82.6133C66.0866 81.6953 65.8392 80.9857 65.3965 80.4844C64.9538 79.9766 64.3548 79.7227 63.5996 79.7227ZM71.7539 78.4336L71.8125 79.7617C72.6198 78.7461 73.6745 78.2383 74.9766 78.2383C77.2096 78.2383 78.3359 79.498 78.3555 82.0176V89H76.5488V82.0078C76.5423 81.2461 76.3665 80.6829 76.0215 80.3184C75.6829 79.9538 75.1523 79.7715 74.4297 79.7715C73.8438 79.7715 73.3294 79.9277 72.8867 80.2402C72.444 80.5527 72.099 80.9629 71.8516 81.4707V89H70.0449V78.4336H71.7539ZM83.5312 75.875V78.4336H85.5039V79.8301H83.5312V86.3828C83.5312 86.806 83.6191 87.125 83.7949 87.3398C83.9707 87.5482 84.2702 87.6523 84.6934 87.6523C84.9017 87.6523 85.1882 87.6133 85.5527 87.5352V89C85.0775 89.1302 84.6152 89.1953 84.166 89.1953C83.3587 89.1953 82.75 88.9512 82.3398 88.4629C81.9297 87.9746 81.7246 87.2812 81.7246 86.3828V79.8301H79.8008V78.4336H81.7246V75.875H83.5312ZM86.9492 83.6191C86.9492 82.584 87.151 81.653 87.5547 80.8262C87.9648 79.9993 88.5312 79.3613 89.2539 78.9121C89.9831 78.4629 90.8132 78.2383 91.7441 78.2383C93.1829 78.2383 94.3451 78.7363 95.2305 79.7324C96.1224 80.7285 96.5684 82.0534 96.5684 83.707V83.834C96.5684 84.8626 96.3698 85.7871 95.9727 86.6074C95.582 87.4212 95.0189 88.056 94.2832 88.5117C93.554 88.9674 92.7142 89.1953 91.7637 89.1953C90.3314 89.1953 89.1693 88.6973 88.2773 87.7012C87.3919 86.7051 86.9492 85.3867 86.9492 83.7461V83.6191ZM88.7656 83.834C88.7656 85.0059 89.0358 85.9466 89.5762 86.6562C90.123 87.3659 90.8522 87.7207 91.7637 87.7207C92.6816 87.7207 93.4108 87.3626 93.9512 86.6465C94.4915 85.9238 94.7617 84.9147 94.7617 83.6191C94.7617 82.4603 94.485 81.5228 93.9316 80.8066C93.3848 80.084 92.6556 79.7227 91.7441 79.7227C90.8522 79.7227 90.1328 80.0775 89.5859 80.7871C89.0391 81.4967 88.7656 82.5124 88.7656 83.834ZM105.758 89H103.951V78.4336H105.758V89ZM103.805 75.6309C103.805 75.3379 103.893 75.0905 104.068 74.8887C104.251 74.6868 104.518 74.5859 104.869 74.5859C105.221 74.5859 105.488 74.6868 105.67 74.8887C105.852 75.0905 105.943 75.3379 105.943 75.6309C105.943 75.9238 105.852 76.168 105.67 76.3633C105.488 76.5586 105.221 76.6562 104.869 76.6562C104.518 76.6562 104.251 76.5586 104.068 76.3633C103.893 76.168 103.805 75.9238 103.805 75.6309ZM114.811 86.1973C114.811 85.709 114.625 85.3314 114.254 85.0645C113.889 84.791 113.248 84.5566 112.33 84.3613C111.419 84.166 110.693 83.9316 110.152 83.6582C109.618 83.3848 109.221 83.0592 108.961 82.6816C108.707 82.304 108.58 81.8548 108.58 81.334C108.58 80.4681 108.945 79.7357 109.674 79.1367C110.41 78.5378 111.347 78.2383 112.486 78.2383C113.684 78.2383 114.654 78.5475 115.396 79.166C116.145 79.7845 116.52 80.5755 116.52 81.5391H114.703C114.703 81.0443 114.492 80.6178 114.068 80.2598C113.652 79.9017 113.124 79.7227 112.486 79.7227C111.829 79.7227 111.314 79.8659 110.943 80.1523C110.572 80.4388 110.387 80.8132 110.387 81.2754C110.387 81.7116 110.559 82.0404 110.904 82.2617C111.249 82.4831 111.871 82.6947 112.77 82.8965C113.674 83.0983 114.407 83.3392 114.967 83.6191C115.527 83.8991 115.94 84.2376 116.207 84.6348C116.48 85.0254 116.617 85.5039 116.617 86.0703C116.617 87.0143 116.24 87.7728 115.484 88.3457C114.729 88.9121 113.749 89.1953 112.545 89.1953C111.699 89.1953 110.95 89.0456 110.299 88.7461C109.648 88.4466 109.137 88.0299 108.766 87.4961C108.401 86.9557 108.219 86.373 108.219 85.748H110.025C110.058 86.3535 110.299 86.8353 110.748 87.1934C111.204 87.5449 111.803 87.7207 112.545 87.7207C113.229 87.7207 113.775 87.584 114.186 87.3105C114.602 87.0306 114.811 86.6595 114.811 86.1973ZM128.316 89.1953C126.884 89.1953 125.719 88.7266 124.82 87.7891C123.922 86.8451 123.473 85.5853 123.473 84.0098V83.6777C123.473 82.6296 123.671 81.6953 124.068 80.875C124.472 80.0482 125.032 79.4036 125.748 78.9414C126.471 78.4727 127.252 78.2383 128.092 78.2383C129.465 78.2383 130.533 78.6908 131.295 79.5957C132.057 80.5007 132.438 81.7962 132.438 83.4824V84.2344H125.279C125.305 85.276 125.608 86.1191 126.188 86.7637C126.773 87.4017 127.516 87.7207 128.414 87.7207C129.052 87.7207 129.592 87.5905 130.035 87.3301C130.478 87.0697 130.865 86.7246 131.197 86.2949L132.301 87.1543C131.415 88.515 130.087 89.1953 128.316 89.1953ZM128.092 79.7227C127.363 79.7227 126.751 79.9896 126.256 80.5234C125.761 81.0508 125.455 81.793 125.338 82.75H130.631V82.6133C130.579 81.6953 130.331 80.9857 129.889 80.4844C129.446 79.9766 128.847 79.7227 128.092 79.7227ZM138.082 82.291L140.426 78.4336H142.535L139.078 83.6582L142.643 89H140.553L138.111 85.0449L135.67 89H133.57L137.135 83.6582L133.678 78.4336H135.768L138.082 82.291ZM153.385 83.834C153.385 85.4421 153.017 86.7376 152.281 87.7207C151.546 88.7038 150.549 89.1953 149.293 89.1953C148.01 89.1953 147.001 88.7884 146.266 87.9746V93.0625H144.459V78.4336H146.109L146.197 79.6055C146.933 78.694 147.955 78.2383 149.264 78.2383C150.533 78.2383 151.536 78.7168 152.271 79.6738C153.014 80.6309 153.385 81.9622 153.385 83.668V83.834ZM151.578 83.6289C151.578 82.4375 151.324 81.4967 150.816 80.8066C150.309 80.1165 149.612 79.7715 148.727 79.7715C147.633 79.7715 146.812 80.2565 146.266 81.2266V86.2754C146.806 87.2389 147.633 87.7207 148.746 87.7207C149.612 87.7207 150.299 87.3789 150.807 86.6953C151.321 86.0052 151.578 84.9831 151.578 83.6289ZM160.074 89.1953C158.642 89.1953 157.477 88.7266 156.578 87.7891C155.68 86.8451 155.23 85.5853 155.23 84.0098V83.6777C155.23 82.6296 155.429 81.6953 155.826 80.875C156.23 80.0482 156.79 79.4036 157.506 78.9414C158.229 78.4727 159.01 78.2383 159.85 78.2383C161.223 78.2383 162.291 78.6908 163.053 79.5957C163.814 80.5007 164.195 81.7962 164.195 83.4824V84.2344H157.037C157.063 85.276 157.366 86.1191 157.945 86.7637C158.531 87.4017 159.273 87.7207 160.172 87.7207C160.81 87.7207 161.35 87.5905 161.793 87.3301C162.236 87.0697 162.623 86.7246 162.955 86.2949L164.059 87.1543C163.173 88.515 161.845 89.1953 160.074 89.1953ZM159.85 79.7227C159.12 79.7227 158.508 79.9896 158.014 80.5234C157.519 81.0508 157.213 81.793 157.096 82.75H162.389V82.6133C162.337 81.6953 162.089 80.9857 161.646 80.4844C161.204 79.9766 160.605 79.7227 159.85 79.7227ZM168.004 78.4336L168.062 79.7617C168.87 78.7461 169.924 78.2383 171.227 78.2383C173.46 78.2383 174.586 79.498 174.605 82.0176V89H172.799V82.0078C172.792 81.2461 172.617 80.6829 172.271 80.3184C171.933 79.9538 171.402 79.7715 170.68 79.7715C170.094 79.7715 169.579 79.9277 169.137 80.2402C168.694 80.5527 168.349 80.9629 168.102 81.4707V89H166.295V78.4336H168.004ZM183.482 86.1973C183.482 85.709 183.297 85.3314 182.926 85.0645C182.561 84.791 181.92 84.5566 181.002 84.3613C180.09 84.166 179.365 83.9316 178.824 83.6582C178.29 83.3848 177.893 83.0592 177.633 82.6816C177.379 82.304 177.252 81.8548 177.252 81.334C177.252 80.4681 177.617 79.7357 178.346 79.1367C179.081 78.5378 180.019 78.2383 181.158 78.2383C182.356 78.2383 183.326 78.5475 184.068 79.166C184.817 79.7845 185.191 80.5755 185.191 81.5391H183.375C183.375 81.0443 183.163 80.6178 182.74 80.2598C182.324 79.9017 181.796 79.7227 181.158 79.7227C180.501 79.7227 179.986 79.8659 179.615 80.1523C179.244 80.4388 179.059 80.8132 179.059 81.2754C179.059 81.7116 179.231 82.0404 179.576 82.2617C179.921 82.4831 180.543 82.6947 181.441 82.8965C182.346 83.0983 183.079 83.3392 183.639 83.6191C184.199 83.8991 184.612 84.2376 184.879 84.6348C185.152 85.0254 185.289 85.5039 185.289 86.0703C185.289 87.0143 184.911 87.7728 184.156 88.3457C183.401 88.9121 182.421 89.1953 181.217 89.1953C180.37 89.1953 179.622 89.0456 178.971 88.7461C178.32 88.4466 177.809 88.0299 177.438 87.4961C177.073 86.9557 176.891 86.373 176.891 85.748H178.697C178.73 86.3535 178.971 86.8353 179.42 87.1934C179.876 87.5449 180.475 87.7207 181.217 87.7207C181.9 87.7207 182.447 87.584 182.857 87.3105C183.274 87.0306 183.482 86.6595 183.482 86.1973ZM189.605 89H187.799V78.4336H189.605V89ZM187.652 75.6309C187.652 75.3379 187.74 75.0905 187.916 74.8887C188.098 74.6868 188.365 74.5859 188.717 74.5859C189.068 74.5859 189.335 74.6868 189.518 74.8887C189.7 75.0905 189.791 75.3379 189.791 75.6309C189.791 75.9238 189.7 76.168 189.518 76.3633C189.335 76.5586 189.068 76.6562 188.717 76.6562C188.365 76.6562 188.098 76.5586 187.916 76.3633C187.74 76.168 187.652 75.9238 187.652 75.6309ZM195.992 86.5488L198.609 78.4336H200.455L196.666 89H195.289L191.461 78.4336H193.307L195.992 86.5488ZM206.441 89.1953C205.009 89.1953 203.844 88.7266 202.945 87.7891C202.047 86.8451 201.598 85.5853 201.598 84.0098V83.6777C201.598 82.6296 201.796 81.6953 202.193 80.875C202.597 80.0482 203.157 79.4036 203.873 78.9414C204.596 78.4727 205.377 78.2383 206.217 78.2383C207.59 78.2383 208.658 78.6908 209.42 79.5957C210.182 80.5007 210.562 81.7962 210.562 83.4824V84.2344H203.404C203.43 85.276 203.733 86.1191 204.312 86.7637C204.898 87.4017 205.641 87.7207 206.539 87.7207C207.177 87.7207 207.717 87.5905 208.16 87.3301C208.603 87.0697 208.99 86.7246 209.322 86.2949L210.426 87.1543C209.54 88.515 208.212 89.1953 206.441 89.1953ZM206.217 79.7227C205.488 79.7227 204.876 79.9896 204.381 80.5234C203.886 81.0508 203.58 81.793 203.463 82.75H208.756V82.6133C208.704 81.6953 208.456 80.9857 208.014 80.4844C207.571 79.9766 206.972 79.7227 206.217 79.7227ZM212.701 88.0527C212.701 87.7402 212.792 87.4798 212.975 87.2715C213.163 87.0632 213.443 86.959 213.814 86.959C214.186 86.959 214.465 87.0632 214.654 87.2715C214.85 87.4798 214.947 87.7402 214.947 88.0527C214.947 88.3522 214.85 88.6029 214.654 88.8047C214.465 89.0065 214.186 89.1074 213.814 89.1074C213.443 89.1074 213.163 89.0065 212.975 88.8047C212.792 88.6029 212.701 88.3522 212.701 88.0527ZM7.7793 113.662C6.17122 113.2 4.99935 112.633 4.26367 111.963C3.53451 111.286 3.16992 110.452 3.16992 109.463C3.16992 108.343 3.61589 107.419 4.50781 106.689C5.40625 105.954 6.57161 105.586 8.00391 105.586C8.98047 105.586 9.84961 105.775 10.6113 106.152C11.3796 106.53 11.972 107.051 12.3887 107.715C12.8118 108.379 13.0234 109.105 13.0234 109.893H11.1387C11.1387 109.033 10.8652 108.359 10.3184 107.871C9.77148 107.376 9 107.129 8.00391 107.129C7.07943 107.129 6.35677 107.334 5.83594 107.744C5.32161 108.148 5.06445 108.711 5.06445 109.434C5.06445 110.013 5.30859 110.505 5.79688 110.908C6.29167 111.305 7.12826 111.67 8.30664 112.002C9.49154 112.334 10.416 112.702 11.0801 113.105C11.7507 113.503 12.2454 113.968 12.5645 114.502C12.89 115.036 13.0527 115.664 13.0527 116.387C13.0527 117.539 12.6035 118.464 11.7051 119.16C10.8066 119.85 9.60547 120.195 8.10156 120.195C7.125 120.195 6.21354 120.01 5.36719 119.639C4.52083 119.261 3.86654 118.747 3.4043 118.096C2.94857 117.445 2.7207 116.706 2.7207 115.879H4.60547C4.60547 116.738 4.92122 117.419 5.55273 117.92C6.19076 118.415 7.04036 118.662 8.10156 118.662C9.09115 118.662 9.84961 118.46 10.377 118.057C10.9043 117.653 11.168 117.103 11.168 116.406C11.168 115.71 10.9238 115.173 10.4355 114.795C9.94727 114.411 9.06185 114.033 7.7793 113.662ZM16.9883 110.713C17.7891 109.73 18.8307 109.238 20.1133 109.238C22.3464 109.238 23.4727 110.498 23.4922 113.018V120H21.6855V113.008C21.679 112.246 21.5033 111.683 21.1582 111.318C20.8197 110.954 20.2891 110.771 19.5664 110.771C18.9805 110.771 18.4661 110.928 18.0234 111.24C17.5807 111.553 17.2357 111.963 16.9883 112.471V120H15.1816V105H16.9883V110.713ZM25.7188 114.619C25.7188 113.584 25.9206 112.653 26.3242 111.826C26.7344 110.999 27.3008 110.361 28.0234 109.912C28.7526 109.463 29.5827 109.238 30.5137 109.238C31.9525 109.238 33.1146 109.736 34 110.732C34.8919 111.729 35.3379 113.053 35.3379 114.707V114.834C35.3379 115.863 35.1393 116.787 34.7422 117.607C34.3516 118.421 33.7884 119.056 33.0527 119.512C32.3236 119.967 31.4837 120.195 30.5332 120.195C29.1009 120.195 27.9388 119.697 27.0469 118.701C26.1615 117.705 25.7188 116.387 25.7188 114.746V114.619ZM27.5352 114.834C27.5352 116.006 27.8053 116.947 28.3457 117.656C28.8926 118.366 29.6217 118.721 30.5332 118.721C31.4512 118.721 32.1803 118.363 32.7207 117.646C33.2611 116.924 33.5312 115.915 33.5312 114.619C33.5312 113.46 33.2546 112.523 32.7012 111.807C32.1543 111.084 31.4251 110.723 30.5137 110.723C29.6217 110.723 28.9023 111.077 28.3555 111.787C27.8086 112.497 27.5352 113.512 27.5352 114.834ZM46.5293 114.834C46.5293 116.442 46.1615 117.738 45.4258 118.721C44.6901 119.704 43.694 120.195 42.4375 120.195C41.1549 120.195 40.1458 119.788 39.4102 118.975V124.062H37.6035V109.434H39.2539L39.3418 110.605C40.0775 109.694 41.0996 109.238 42.4082 109.238C43.6777 109.238 44.6803 109.717 45.416 110.674C46.1582 111.631 46.5293 112.962 46.5293 114.668V114.834ZM44.7227 114.629C44.7227 113.438 44.4688 112.497 43.9609 111.807C43.4531 111.117 42.7565 110.771 41.8711 110.771C40.7773 110.771 39.957 111.257 39.4102 112.227V117.275C39.9505 118.239 40.7773 118.721 41.8906 118.721C42.7565 118.721 43.4434 118.379 43.9512 117.695C44.4655 117.005 44.7227 115.983 44.7227 114.629ZM50.7969 120H48.9902V109.434H50.7969V120ZM48.8438 106.631C48.8438 106.338 48.9316 106.09 49.1074 105.889C49.2897 105.687 49.5566 105.586 49.9082 105.586C50.2598 105.586 50.5267 105.687 50.709 105.889C50.8913 106.09 50.9824 106.338 50.9824 106.631C50.9824 106.924 50.8913 107.168 50.709 107.363C50.5267 107.559 50.2598 107.656 49.9082 107.656C49.5566 107.656 49.2897 107.559 49.1074 107.363C48.9316 107.168 48.8438 106.924 48.8438 106.631ZM54.5859 120V110.83H52.916V109.434H54.5859V108.35C54.5859 107.217 54.8887 106.341 55.4941 105.723C56.0996 105.104 56.9557 104.795 58.0625 104.795C58.4792 104.795 58.8926 104.85 59.3027 104.961L59.2051 106.426C58.8991 106.367 58.5736 106.338 58.2285 106.338C57.6426 106.338 57.1901 106.51 56.8711 106.855C56.5521 107.194 56.3926 107.682 56.3926 108.32V109.434H58.6484V110.83H56.3926V120H54.5859ZM64.1074 117.354L66.5684 109.434H68.502L64.2539 121.631C63.5964 123.389 62.5514 124.268 61.1191 124.268L60.7773 124.238L60.1035 124.111V122.646L60.5918 122.686C61.2038 122.686 61.679 122.562 62.0176 122.314C62.3626 122.067 62.6458 121.615 62.8672 120.957L63.2676 119.883L59.498 109.434H61.4707L64.1074 117.354ZM77.0469 120H75.2402V109.434H77.0469V120ZM75.0938 106.631C75.0938 106.338 75.1816 106.09 75.3574 105.889C75.5397 105.687 75.8066 105.586 76.1582 105.586C76.5098 105.586 76.7767 105.687 76.959 105.889C77.1413 106.09 77.2324 106.338 77.2324 106.631C77.2324 106.924 77.1413 107.168 76.959 107.363C76.7767 107.559 76.5098 107.656 76.1582 107.656C75.8066 107.656 75.5397 107.559 75.3574 107.363C75.1816 107.168 75.0938 106.924 75.0938 106.631ZM86.0996 117.197C86.0996 116.709 85.9141 116.331 85.543 116.064C85.1784 115.791 84.5371 115.557 83.6191 115.361C82.7077 115.166 81.9818 114.932 81.4414 114.658C80.9076 114.385 80.5104 114.059 80.25 113.682C79.9961 113.304 79.8691 112.855 79.8691 112.334C79.8691 111.468 80.2337 110.736 80.9629 110.137C81.6986 109.538 82.6361 109.238 83.7754 109.238C84.9733 109.238 85.9434 109.548 86.6855 110.166C87.4342 110.785 87.8086 111.576 87.8086 112.539H85.9922C85.9922 112.044 85.7806 111.618 85.3574 111.26C84.9408 110.902 84.4134 110.723 83.7754 110.723C83.1178 110.723 82.6035 110.866 82.2324 111.152C81.8613 111.439 81.6758 111.813 81.6758 112.275C81.6758 112.712 81.8483 113.04 82.1934 113.262C82.5384 113.483 83.1602 113.695 84.0586 113.896C84.9635 114.098 85.696 114.339 86.2559 114.619C86.8158 114.899 87.2292 115.238 87.4961 115.635C87.7695 116.025 87.9062 116.504 87.9062 117.07C87.9062 118.014 87.5286 118.773 86.7734 119.346C86.0182 119.912 85.0384 120.195 83.834 120.195C82.9876 120.195 82.2389 120.046 81.5879 119.746C80.9368 119.447 80.4258 119.03 80.0547 118.496C79.6901 117.956 79.5078 117.373 79.5078 116.748H81.3145C81.347 117.354 81.5879 117.835 82.0371 118.193C82.4928 118.545 83.0918 118.721 83.834 118.721C84.5176 118.721 85.0645 118.584 85.4746 118.311C85.8913 118.031 86.0996 117.66 86.0996 117.197ZM97.1836 120H95.377V105H97.1836V120ZM102.047 120H100.24V109.434H102.047V120ZM100.094 106.631C100.094 106.338 100.182 106.09 100.357 105.889C100.54 105.687 100.807 105.586 101.158 105.586C101.51 105.586 101.777 105.687 101.959 105.889C102.141 106.09 102.232 106.338 102.232 106.631C102.232 106.924 102.141 107.168 101.959 107.363C101.777 107.559 101.51 107.656 101.158 107.656C100.807 107.656 100.54 107.559 100.357 107.363C100.182 107.168 100.094 106.924 100.094 106.631ZM106.646 109.434L106.695 110.605C107.47 109.694 108.515 109.238 109.83 109.238C111.308 109.238 112.314 109.805 112.848 110.938C113.199 110.43 113.655 110.02 114.215 109.707C114.781 109.395 115.449 109.238 116.217 109.238C118.535 109.238 119.713 110.465 119.752 112.92V120H117.945V113.027C117.945 112.272 117.773 111.709 117.428 111.338C117.083 110.96 116.503 110.771 115.689 110.771C115.019 110.771 114.462 110.973 114.02 111.377C113.577 111.774 113.32 112.311 113.248 112.988V120H111.432V113.076C111.432 111.54 110.68 110.771 109.176 110.771C107.991 110.771 107.18 111.276 106.744 112.285V120H104.938V109.434H106.646ZM124.449 120H122.643V109.434H124.449V120ZM122.496 106.631C122.496 106.338 122.584 106.09 122.76 105.889C122.942 105.687 123.209 105.586 123.561 105.586C123.912 105.586 124.179 105.687 124.361 105.889C124.544 106.09 124.635 106.338 124.635 106.631C124.635 106.924 124.544 107.168 124.361 107.363C124.179 107.559 123.912 107.656 123.561 107.656C123.209 107.656 122.942 107.559 122.76 107.363C122.584 107.168 122.496 106.924 122.496 106.631ZM129.801 106.875V109.434H131.773V110.83H129.801V117.383C129.801 117.806 129.889 118.125 130.064 118.34C130.24 118.548 130.54 118.652 130.963 118.652C131.171 118.652 131.458 118.613 131.822 118.535V120C131.347 120.13 130.885 120.195 130.436 120.195C129.628 120.195 129.02 119.951 128.609 119.463C128.199 118.975 127.994 118.281 127.994 117.383V110.83H126.07V109.434H127.994V106.875H129.801ZM135.855 120H134.049V109.434H135.855V120ZM133.902 106.631C133.902 106.338 133.99 106.09 134.166 105.889C134.348 105.687 134.615 105.586 134.967 105.586C135.318 105.586 135.585 105.687 135.768 105.889C135.95 106.09 136.041 106.338 136.041 106.631C136.041 106.924 135.95 107.168 135.768 107.363C135.585 107.559 135.318 107.656 134.967 107.656C134.615 107.656 134.348 107.559 134.166 107.363C133.99 107.168 133.902 106.924 133.902 106.631ZM140.465 109.434L140.523 110.762C141.331 109.746 142.385 109.238 143.688 109.238C145.921 109.238 147.047 110.498 147.066 113.018V120H145.26V113.008C145.253 112.246 145.077 111.683 144.732 111.318C144.394 110.954 143.863 110.771 143.141 110.771C142.555 110.771 142.04 110.928 141.598 111.24C141.155 111.553 140.81 111.963 140.562 112.471V120H138.756V109.434H140.465ZM149.361 114.629C149.361 112.982 149.742 111.673 150.504 110.703C151.266 109.727 152.275 109.238 153.531 109.238C154.82 109.238 155.826 109.694 156.549 110.605L156.637 109.434H158.287V119.746C158.287 121.113 157.88 122.191 157.066 122.979C156.259 123.766 155.172 124.16 153.805 124.16C153.043 124.16 152.298 123.997 151.568 123.672C150.839 123.346 150.283 122.9 149.898 122.334L150.836 121.25C151.611 122.207 152.558 122.686 153.678 122.686C154.557 122.686 155.24 122.438 155.729 121.943C156.223 121.449 156.471 120.752 156.471 119.854V118.945C155.748 119.779 154.762 120.195 153.512 120.195C152.275 120.195 151.272 119.697 150.504 118.701C149.742 117.705 149.361 116.348 149.361 114.629ZM151.178 114.834C151.178 116.025 151.422 116.963 151.91 117.646C152.398 118.324 153.082 118.662 153.961 118.662C155.1 118.662 155.937 118.145 156.471 117.109V112.285C155.917 111.276 155.087 110.771 153.98 110.771C153.102 110.771 152.415 111.113 151.92 111.797C151.425 112.48 151.178 113.493 151.178 114.834ZM161.061 119.053C161.061 118.74 161.152 118.48 161.334 118.271C161.523 118.063 161.803 117.959 162.174 117.959C162.545 117.959 162.825 118.063 163.014 118.271C163.209 118.48 163.307 118.74 163.307 119.053C163.307 119.352 163.209 119.603 163.014 119.805C162.825 120.007 162.545 120.107 162.174 120.107C161.803 120.107 161.523 120.007 161.334 119.805C161.152 119.603 161.061 119.352 161.061 119.053ZM173.961 105.781L178.609 117.383L183.258 105.781H185.689V120H183.814V114.463L183.99 108.486L179.322 120H177.887L173.229 108.516L173.414 114.463V120H171.539V105.781H173.961ZM188.238 114.619C188.238 113.584 188.44 112.653 188.844 111.826C189.254 110.999 189.82 110.361 190.543 109.912C191.272 109.463 192.102 109.238 193.033 109.238C194.472 109.238 195.634 109.736 196.52 110.732C197.411 111.729 197.857 113.053 197.857 114.707V114.834C197.857 115.863 197.659 116.787 197.262 117.607C196.871 118.421 196.308 119.056 195.572 119.512C194.843 119.967 194.003 120.195 193.053 120.195C191.62 120.195 190.458 119.697 189.566 118.701C188.681 117.705 188.238 116.387 188.238 114.746V114.619ZM190.055 114.834C190.055 116.006 190.325 116.947 190.865 117.656C191.412 118.366 192.141 118.721 193.053 118.721C193.971 118.721 194.7 118.363 195.24 117.646C195.781 116.924 196.051 115.915 196.051 114.619C196.051 113.46 195.774 112.523 195.221 111.807C194.674 111.084 193.945 110.723 193.033 110.723C192.141 110.723 191.422 111.077 190.875 111.787C190.328 112.497 190.055 113.512 190.055 114.834ZM202.086 120H200.279V105H202.086V120ZM207.438 106.875V109.434H209.41V110.83H207.438V117.383C207.438 117.806 207.525 118.125 207.701 118.34C207.877 118.548 208.176 118.652 208.6 118.652C208.808 118.652 209.094 118.613 209.459 118.535V120C208.984 120.13 208.521 120.195 208.072 120.195C207.265 120.195 206.656 119.951 206.246 119.463C205.836 118.975 205.631 118.281 205.631 117.383V110.83H203.707V109.434H205.631V106.875H207.438ZM213.492 120H211.686V109.434H213.492V120ZM211.539 106.631C211.539 106.338 211.627 106.09 211.803 105.889C211.985 105.687 212.252 105.586 212.604 105.586C212.955 105.586 213.222 105.687 213.404 105.889C213.587 106.09 213.678 106.338 213.678 106.631C213.678 106.924 213.587 107.168 213.404 107.363C213.222 107.559 212.955 107.656 212.604 107.656C212.252 107.656 211.985 107.559 211.803 107.363C211.627 107.168 211.539 106.924 211.539 106.631ZM218.102 109.434L218.16 110.762C218.967 109.746 220.022 109.238 221.324 109.238C223.557 109.238 224.684 110.498 224.703 113.018V120H222.896V113.008C222.89 112.246 222.714 111.683 222.369 111.318C222.031 110.954 221.5 110.771 220.777 110.771C220.191 110.771 219.677 110.928 219.234 111.24C218.792 111.553 218.447 111.963 218.199 112.471V120H216.393V109.434H218.102ZM3.73633 151H1.92969V140.434H3.73633V151ZM1.7832 137.631C1.7832 137.338 1.87109 137.09 2.04688 136.889C2.22917 136.687 2.49609 136.586 2.84766 136.586C3.19922 136.586 3.46615 136.687 3.64844 136.889C3.83073 137.09 3.92188 137.338 3.92188 137.631C3.92188 137.924 3.83073 138.168 3.64844 138.363C3.46615 138.559 3.19922 138.656 2.84766 138.656C2.49609 138.656 2.22917 138.559 2.04688 138.363C1.87109 138.168 1.7832 137.924 1.7832 137.631ZM12.7891 148.197C12.7891 147.709 12.6035 147.331 12.2324 147.064C11.8678 146.791 11.2266 146.557 10.3086 146.361C9.39714 146.166 8.67122 145.932 8.13086 145.658C7.59701 145.385 7.19987 145.059 6.93945 144.682C6.68555 144.304 6.55859 143.855 6.55859 143.334C6.55859 142.468 6.92318 141.736 7.65234 141.137C8.38802 140.538 9.32552 140.238 10.4648 140.238C11.6628 140.238 12.6328 140.548 13.375 141.166C14.1237 141.785 14.498 142.576 14.498 143.539H12.6816C12.6816 143.044 12.4701 142.618 12.0469 142.26C11.6302 141.902 11.1029 141.723 10.4648 141.723C9.80729 141.723 9.29297 141.866 8.92188 142.152C8.55078 142.439 8.36523 142.813 8.36523 143.275C8.36523 143.712 8.53776 144.04 8.88281 144.262C9.22786 144.483 9.84961 144.695 10.748 144.896C11.653 145.098 12.3854 145.339 12.9453 145.619C13.5052 145.899 13.9186 146.238 14.1855 146.635C14.459 147.025 14.5957 147.504 14.5957 148.07C14.5957 149.014 14.2181 149.773 13.4629 150.346C12.7077 150.912 11.7279 151.195 10.5234 151.195C9.67708 151.195 8.92839 151.046 8.27734 150.746C7.6263 150.447 7.11523 150.03 6.74414 149.496C6.37956 148.956 6.19727 148.373 6.19727 147.748H8.00391C8.03646 148.354 8.27734 148.835 8.72656 149.193C9.18229 149.545 9.78125 149.721 10.5234 149.721C11.207 149.721 11.7539 149.584 12.1641 149.311C12.5807 149.031 12.7891 148.66 12.7891 148.197ZM18.6582 140.434L18.7168 141.762C19.5241 140.746 20.5788 140.238 21.8809 140.238C24.1139 140.238 25.2402 141.498 25.2598 144.018V151H23.4531V144.008C23.4466 143.246 23.2708 142.683 22.9258 142.318C22.5872 141.954 22.0566 141.771 21.334 141.771C20.748 141.771 20.2337 141.928 19.791 142.24C19.3483 142.553 19.0033 142.963 18.7559 143.471V151H16.9492V140.434H18.6582ZM27.3301 140.785L26.3047 140.082C26.9102 139.236 27.2227 138.344 27.2422 137.406V136H29.0293V137.27C29.0228 137.921 28.86 138.572 28.541 139.223C28.2285 139.867 27.8249 140.388 27.3301 140.785ZM33.6582 137.875V140.434H35.6309V141.83H33.6582V148.383C33.6582 148.806 33.7461 149.125 33.9219 149.34C34.0977 149.548 34.3971 149.652 34.8203 149.652C35.0286 149.652 35.3151 149.613 35.6797 149.535V151C35.2044 151.13 34.7422 151.195 34.293 151.195C33.4857 151.195 32.877 150.951 32.4668 150.463C32.0566 149.975 31.8516 149.281 31.8516 148.383V141.83H29.9277V140.434H31.8516V137.875H33.6582ZM45.1621 137.875V140.434H47.1348V141.83H45.1621V148.383C45.1621 148.806 45.25 149.125 45.4258 149.34C45.6016 149.548 45.901 149.652 46.3242 149.652C46.5326 149.652 46.819 149.613 47.1836 149.535V151C46.7083 151.13 46.2461 151.195 45.7969 151.195C44.9896 151.195 44.3809 150.951 43.9707 150.463C43.5605 149.975 43.3555 149.281 43.3555 148.383V141.83H41.4316V140.434H43.3555V137.875H45.1621ZM51.0605 141.713C51.8613 140.73 52.903 140.238 54.1855 140.238C56.4186 140.238 57.5449 141.498 57.5645 144.018V151H55.7578V144.008C55.7513 143.246 55.5755 142.683 55.2305 142.318C54.8919 141.954 54.3613 141.771 53.6387 141.771C53.0527 141.771 52.5384 141.928 52.0957 142.24C51.653 142.553 51.3079 142.963 51.0605 143.471V151H49.2539V136H51.0605V141.713ZM64.6543 151.195C63.222 151.195 62.0566 150.727 61.1582 149.789C60.2598 148.845 59.8105 147.585 59.8105 146.01V145.678C59.8105 144.63 60.0091 143.695 60.4062 142.875C60.8099 142.048 61.3698 141.404 62.0859 140.941C62.8086 140.473 63.5898 140.238 64.4297 140.238C65.8034 140.238 66.8711 140.691 67.6328 141.596C68.3945 142.501 68.7754 143.796 68.7754 145.482V146.234H61.6172C61.6432 147.276 61.946 148.119 62.5254 148.764C63.1113 149.402 63.8535 149.721 64.752 149.721C65.39 149.721 65.9303 149.59 66.373 149.33C66.8158 149.07 67.2031 148.725 67.5352 148.295L68.6387 149.154C67.7533 150.515 66.4251 151.195 64.6543 151.195ZM64.4297 141.723C63.7005 141.723 63.0885 141.99 62.5938 142.523C62.099 143.051 61.793 143.793 61.6758 144.75H66.9688V144.613C66.9167 143.695 66.6693 142.986 66.2266 142.484C65.7839 141.977 65.1849 141.723 64.4297 141.723ZM75.9824 142.055C75.709 142.009 75.4128 141.986 75.0938 141.986C73.9089 141.986 73.1048 142.491 72.6816 143.5V151H70.875V140.434H72.6328L72.6621 141.654C73.2546 140.71 74.0944 140.238 75.1816 140.238C75.5332 140.238 75.8001 140.284 75.9824 140.375V142.055ZM81.8418 151.195C80.4095 151.195 79.2441 150.727 78.3457 149.789C77.4473 148.845 76.998 147.585 76.998 146.01V145.678C76.998 144.63 77.1966 143.695 77.5938 142.875C77.9974 142.048 78.5573 141.404 79.2734 140.941C79.9961 140.473 80.7773 140.238 81.6172 140.238C82.9909 140.238 84.0586 140.691 84.8203 141.596C85.582 142.501 85.9629 143.796 85.9629 145.482V146.234H78.8047C78.8307 147.276 79.1335 148.119 79.7129 148.764C80.2988 149.402 81.041 149.721 81.9395 149.721C82.5775 149.721 83.1178 149.59 83.5605 149.33C84.0033 149.07 84.3906 148.725 84.7227 148.295L85.8262 149.154C84.9408 150.515 83.6126 151.195 81.8418 151.195ZM81.6172 141.723C80.888 141.723 80.276 141.99 79.7812 142.523C79.2865 143.051 78.9805 143.793 78.8633 144.75H84.1562V144.613C84.1042 143.695 83.8568 142.986 83.4141 142.484C82.9714 141.977 82.3724 141.723 81.6172 141.723ZM96.4805 148.354L98.9414 140.434H100.875L96.627 152.631C95.9694 154.389 94.9245 155.268 93.4922 155.268L93.1504 155.238L92.4766 155.111V153.646L92.9648 153.686C93.5768 153.686 94.0521 153.562 94.3906 153.314C94.7357 153.067 95.0189 152.615 95.2402 151.957L95.6406 150.883L91.8711 140.434H93.8438L96.4805 148.354ZM106.744 151.195C105.312 151.195 104.146 150.727 103.248 149.789C102.35 148.845 101.9 147.585 101.9 146.01V145.678C101.9 144.63 102.099 143.695 102.496 142.875C102.9 142.048 103.46 141.404 104.176 140.941C104.898 140.473 105.68 140.238 106.52 140.238C107.893 140.238 108.961 140.691 109.723 141.596C110.484 142.501 110.865 143.796 110.865 145.482V146.234H103.707C103.733 147.276 104.036 148.119 104.615 148.764C105.201 149.402 105.943 149.721 106.842 149.721C107.48 149.721 108.02 149.59 108.463 149.33C108.906 149.07 109.293 148.725 109.625 148.295L110.729 149.154C109.843 150.515 108.515 151.195 106.744 151.195ZM106.52 141.723C105.79 141.723 105.178 141.99 104.684 142.523C104.189 143.051 103.883 143.793 103.766 144.75H109.059V144.613C109.007 143.695 108.759 142.986 108.316 142.484C107.874 141.977 107.275 141.723 106.52 141.723ZM115.416 137.875V140.434H117.389V141.83H115.416V148.383C115.416 148.806 115.504 149.125 115.68 149.34C115.855 149.548 116.155 149.652 116.578 149.652C116.786 149.652 117.073 149.613 117.438 149.535V151C116.962 151.13 116.5 151.195 116.051 151.195C115.243 151.195 114.635 150.951 114.225 150.463C113.814 149.975 113.609 149.281 113.609 148.383V141.83H111.686V140.434H113.609V137.875H115.416ZM119.547 150.053C119.547 149.74 119.638 149.48 119.82 149.271C120.009 149.063 120.289 148.959 120.66 148.959C121.031 148.959 121.311 149.063 121.5 149.271C121.695 149.48 121.793 149.74 121.793 150.053C121.793 150.352 121.695 150.603 121.5 150.805C121.311 151.007 121.031 151.107 120.66 151.107C120.289 151.107 120.009 151.007 119.82 150.805C119.638 150.603 119.547 150.352 119.547 150.053ZM139.459 138.324H134.889V151H133.023V138.324H128.463V136.781H139.459V138.324ZM143.092 141.713C143.893 140.73 144.934 140.238 146.217 140.238C148.45 140.238 149.576 141.498 149.596 144.018V151H147.789V144.008C147.783 143.246 147.607 142.683 147.262 142.318C146.923 141.954 146.393 141.771 145.67 141.771C145.084 141.771 144.57 141.928 144.127 142.24C143.684 142.553 143.339 142.963 143.092 143.471V151H141.285V136H143.092V141.713ZM156.686 151.195C155.253 151.195 154.088 150.727 153.189 149.789C152.291 148.845 151.842 147.585 151.842 146.01V145.678C151.842 144.63 152.04 143.695 152.438 142.875C152.841 142.048 153.401 141.404 154.117 140.941C154.84 140.473 155.621 140.238 156.461 140.238C157.835 140.238 158.902 140.691 159.664 141.596C160.426 142.501 160.807 143.796 160.807 145.482V146.234H153.648C153.674 147.276 153.977 148.119 154.557 148.764C155.143 149.402 155.885 149.721 156.783 149.721C157.421 149.721 157.962 149.59 158.404 149.33C158.847 149.07 159.234 148.725 159.566 148.295L160.67 149.154C159.785 150.515 158.456 151.195 156.686 151.195ZM156.461 141.723C155.732 141.723 155.12 141.99 154.625 142.523C154.13 143.051 153.824 143.793 153.707 144.75H159V144.613C158.948 143.695 158.701 142.986 158.258 142.484C157.815 141.977 157.216 141.723 156.461 141.723ZM168.014 142.055C167.74 142.009 167.444 141.986 167.125 141.986C165.94 141.986 165.136 142.491 164.713 143.5V151H162.906V140.434H164.664L164.693 141.654C165.286 140.71 166.126 140.238 167.213 140.238C167.564 140.238 167.831 140.284 168.014 140.375V142.055ZM173.873 151.195C172.441 151.195 171.275 150.727 170.377 149.789C169.479 148.845 169.029 147.585 169.029 146.01V145.678C169.029 144.63 169.228 143.695 169.625 142.875C170.029 142.048 170.589 141.404 171.305 140.941C172.027 140.473 172.809 140.238 173.648 140.238C175.022 140.238 176.09 140.691 176.852 141.596C177.613 142.501 177.994 143.796 177.994 145.482V146.234H170.836C170.862 147.276 171.165 148.119 171.744 148.764C172.33 149.402 173.072 149.721 173.971 149.721C174.609 149.721 175.149 149.59 175.592 149.33C176.035 149.07 176.422 148.725 176.754 148.295L177.857 149.154C176.972 150.515 175.644 151.195 173.873 151.195ZM173.648 141.723C172.919 141.723 172.307 141.99 171.812 142.523C171.318 143.051 171.012 143.793 170.895 144.75H176.188V144.613C176.135 143.695 175.888 142.986 175.445 142.484C175.003 141.977 174.404 141.723 173.648 141.723ZM191.578 151C191.474 150.792 191.389 150.421 191.324 149.887C190.484 150.759 189.482 151.195 188.316 151.195C187.275 151.195 186.419 150.902 185.748 150.316C185.084 149.724 184.752 148.975 184.752 148.07C184.752 146.97 185.169 146.117 186.002 145.512C186.842 144.9 188.02 144.594 189.537 144.594H191.295V143.764C191.295 143.132 191.106 142.631 190.729 142.26C190.351 141.882 189.794 141.693 189.059 141.693C188.414 141.693 187.874 141.856 187.438 142.182C187.001 142.507 186.783 142.901 186.783 143.363H184.967C184.967 142.836 185.152 142.328 185.523 141.84C185.901 141.345 186.409 140.954 187.047 140.668C187.691 140.382 188.398 140.238 189.166 140.238C190.383 140.238 191.337 140.544 192.027 141.156C192.717 141.762 193.076 142.598 193.102 143.666V148.529C193.102 149.499 193.225 150.271 193.473 150.844V151H191.578ZM188.58 149.623C189.146 149.623 189.684 149.477 190.191 149.184C190.699 148.891 191.067 148.51 191.295 148.041V145.873H189.879C187.665 145.873 186.559 146.521 186.559 147.816C186.559 148.383 186.747 148.826 187.125 149.145C187.503 149.464 187.988 149.623 188.58 149.623ZM201.041 142.055C200.768 142.009 200.471 141.986 200.152 141.986C198.967 141.986 198.163 142.491 197.74 143.5V151H195.934V140.434H197.691L197.721 141.654C198.313 140.71 199.153 140.238 200.24 140.238C200.592 140.238 200.859 140.284 201.041 140.375V142.055ZM206.9 151.195C205.468 151.195 204.303 150.727 203.404 149.789C202.506 148.845 202.057 147.585 202.057 146.01V145.678C202.057 144.63 202.255 143.695 202.652 142.875C203.056 142.048 203.616 141.404 204.332 140.941C205.055 140.473 205.836 140.238 206.676 140.238C208.049 140.238 209.117 140.691 209.879 141.596C210.641 142.501 211.021 143.796 211.021 145.482V146.234H203.863C203.889 147.276 204.192 148.119 204.771 148.764C205.357 149.402 206.1 149.721 206.998 149.721C207.636 149.721 208.176 149.59 208.619 149.33C209.062 149.07 209.449 148.725 209.781 148.295L210.885 149.154C209.999 150.515 208.671 151.195 206.9 151.195ZM206.676 141.723C205.947 141.723 205.335 141.99 204.84 142.523C204.345 143.051 204.039 143.793 203.922 144.75H209.215V144.613C209.163 143.695 208.915 142.986 208.473 142.484C208.03 141.977 207.431 141.723 206.676 141.723ZM224.605 151C224.501 150.792 224.417 150.421 224.352 149.887C223.512 150.759 222.509 151.195 221.344 151.195C220.302 151.195 219.446 150.902 218.775 150.316C218.111 149.724 217.779 148.975 217.779 148.07C217.779 146.97 218.196 146.117 219.029 145.512C219.869 144.9 221.048 144.594 222.564 144.594H224.322V143.764C224.322 143.132 224.133 142.631 223.756 142.26C223.378 141.882 222.822 141.693 222.086 141.693C221.441 141.693 220.901 141.856 220.465 142.182C220.029 142.507 219.811 142.901 219.811 143.363H217.994C217.994 142.836 218.18 142.328 218.551 141.84C218.928 141.345 219.436 140.954 220.074 140.668C220.719 140.382 221.425 140.238 222.193 140.238C223.411 140.238 224.365 140.544 225.055 141.156C225.745 141.762 226.103 142.598 226.129 143.666V148.529C226.129 149.499 226.253 150.271 226.5 150.844V151H224.605ZM221.607 149.623C222.174 149.623 222.711 149.477 223.219 149.184C223.727 148.891 224.094 148.51 224.322 148.041V145.873H222.906C220.693 145.873 219.586 146.521 219.586 147.816C219.586 148.383 219.775 148.826 220.152 149.145C220.53 149.464 221.015 149.623 221.607 149.623ZM5.31836 182H3.51172V167H5.31836V182ZM7.74023 176.619C7.74023 175.584 7.94206 174.653 8.3457 173.826C8.75586 172.999 9.32227 172.361 10.0449 171.912C10.7741 171.463 11.6042 171.238 12.5352 171.238C13.974 171.238 15.1361 171.736 16.0215 172.732C16.9134 173.729 17.3594 175.053 17.3594 176.707V176.834C17.3594 177.863 17.1608 178.787 16.7637 179.607C16.373 180.421 15.8099 181.056 15.0742 181.512C14.3451 181.967 13.5052 182.195 12.5547 182.195C11.1224 182.195 9.96029 181.697 9.06836 180.701C8.18294 179.705 7.74023 178.387 7.74023 176.746V176.619ZM9.55664 176.834C9.55664 178.006 9.82682 178.947 10.3672 179.656C10.9141 180.366 11.6432 180.721 12.5547 180.721C13.4727 180.721 14.2018 180.363 14.7422 179.646C15.2826 178.924 15.5527 177.915 15.5527 176.619C15.5527 175.46 15.276 174.523 14.7227 173.807C14.1758 173.084 13.4466 172.723 12.5352 172.723C11.6432 172.723 10.9238 173.077 10.377 173.787C9.83008 174.497 9.55664 175.512 9.55664 176.834ZM22.0762 168.875V171.434H24.0488V172.83H22.0762V179.383C22.0762 179.806 22.1641 180.125 22.3398 180.34C22.5156 180.548 22.8151 180.652 23.2383 180.652C23.4466 180.652 23.7331 180.613 24.0977 180.535V182C23.6224 182.13 23.1602 182.195 22.7109 182.195C21.9036 182.195 21.2949 181.951 20.8848 181.463C20.4746 180.975 20.2695 180.281 20.2695 179.383V172.83H18.3457V171.434H20.2695V168.875H22.0762ZM30.6504 176.619C30.6504 175.584 30.8522 174.653 31.2559 173.826C31.666 172.999 32.2324 172.361 32.9551 171.912C33.6842 171.463 34.5143 171.238 35.4453 171.238C36.8841 171.238 38.0462 171.736 38.9316 172.732C39.8236 173.729 40.2695 175.053 40.2695 176.707V176.834C40.2695 177.863 40.071 178.787 39.6738 179.607C39.2832 180.421 38.7201 181.056 37.9844 181.512C37.2552 181.967 36.4154 182.195 35.4648 182.195C34.0326 182.195 32.8704 181.697 31.9785 180.701C31.0931 179.705 30.6504 178.387 30.6504 176.746V176.619ZM32.4668 176.834C32.4668 178.006 32.737 178.947 33.2773 179.656C33.8242 180.366 34.5534 180.721 35.4648 180.721C36.3828 180.721 37.112 180.363 37.6523 179.646C38.1927 178.924 38.4629 177.915 38.4629 176.619C38.4629 175.46 38.1862 174.523 37.6328 173.807C37.0859 173.084 36.3568 172.723 35.4453 172.723C34.5534 172.723 33.834 173.077 33.2871 173.787C32.7402 174.497 32.4668 175.512 32.4668 176.834ZM43.4238 182V172.83H41.7539V171.434H43.4238V170.35C43.4238 169.217 43.7266 168.341 44.332 167.723C44.9375 167.104 45.7936 166.795 46.9004 166.795C47.3171 166.795 47.7305 166.85 48.1406 166.961L48.043 168.426C47.737 168.367 47.4115 168.338 47.0664 168.338C46.4805 168.338 46.028 168.51 45.709 168.855C45.39 169.194 45.2305 169.682 45.2305 170.32V171.434H47.4863V172.83H45.2305V182H43.4238ZM53.9707 176.619C53.9707 175.584 54.1725 174.653 54.5762 173.826C54.9863 172.999 55.5527 172.361 56.2754 171.912C57.0046 171.463 57.8346 171.238 58.7656 171.238C60.2044 171.238 61.3665 171.736 62.252 172.732C63.1439 173.729 63.5898 175.053 63.5898 176.707V176.834C63.5898 177.863 63.3913 178.787 62.9941 179.607C62.6035 180.421 62.0404 181.056 61.3047 181.512C60.5755 181.967 59.7357 182.195 58.7852 182.195C57.3529 182.195 56.1908 181.697 55.2988 180.701C54.4134 179.705 53.9707 178.387 53.9707 176.746V176.619ZM55.7871 176.834C55.7871 178.006 56.0573 178.947 56.5977 179.656C57.1445 180.366 57.8737 180.721 58.7852 180.721C59.7031 180.721 60.4323 180.363 60.9727 179.646C61.513 178.924 61.7832 177.915 61.7832 176.619C61.7832 175.46 61.5065 174.523 60.9531 173.807C60.4062 173.084 59.6771 172.723 58.7656 172.723C57.8737 172.723 57.1543 173.077 56.6074 173.787C56.0605 174.497 55.7871 175.512 55.7871 176.834ZM74.7812 176.834C74.7812 178.442 74.4134 179.738 73.6777 180.721C72.9421 181.704 71.946 182.195 70.6895 182.195C69.4069 182.195 68.3978 181.788 67.6621 180.975V186.062H65.8555V171.434H67.5059L67.5938 172.605C68.3294 171.694 69.3516 171.238 70.6602 171.238C71.9297 171.238 72.9323 171.717 73.668 172.674C74.4102 173.631 74.7812 174.962 74.7812 176.668V176.834ZM72.9746 176.629C72.9746 175.438 72.7207 174.497 72.2129 173.807C71.7051 173.117 71.0085 172.771 70.123 172.771C69.0293 172.771 68.209 173.257 67.6621 174.227V179.275C68.2025 180.239 69.0293 180.721 70.1426 180.721C71.0085 180.721 71.6953 180.379 72.2031 179.695C72.7174 179.005 72.9746 177.983 72.9746 176.629ZM79.5371 168.875V171.434H81.5098V172.83H79.5371V179.383C79.5371 179.806 79.625 180.125 79.8008 180.34C79.9766 180.548 80.276 180.652 80.6992 180.652C80.9076 180.652 81.194 180.613 81.5586 180.535V182C81.0833 182.13 80.6211 182.195 80.1719 182.195C79.3646 182.195 78.7559 181.951 78.3457 181.463C77.9355 180.975 77.7305 180.281 77.7305 179.383V172.83H75.8066V171.434H77.7305V168.875H79.5371ZM85.5918 182H83.7852V171.434H85.5918V182ZM83.6387 168.631C83.6387 168.338 83.7266 168.09 83.9023 167.889C84.0846 167.687 84.3516 167.586 84.7031 167.586C85.0547 167.586 85.3216 167.687 85.5039 167.889C85.6862 168.09 85.7773 168.338 85.7773 168.631C85.7773 168.924 85.6862 169.168 85.5039 169.363C85.3216 169.559 85.0547 169.656 84.7031 169.656C84.3516 169.656 84.0846 169.559 83.9023 169.363C83.7266 169.168 83.6387 168.924 83.6387 168.631ZM88.0137 176.619C88.0137 175.584 88.2155 174.653 88.6191 173.826C89.0293 172.999 89.5957 172.361 90.3184 171.912C91.0475 171.463 91.8776 171.238 92.8086 171.238C94.2474 171.238 95.4095 171.736 96.2949 172.732C97.1868 173.729 97.6328 175.053 97.6328 176.707V176.834C97.6328 177.863 97.4342 178.787 97.0371 179.607C96.6465 180.421 96.0833 181.056 95.3477 181.512C94.6185 181.967 93.7786 182.195 92.8281 182.195C91.3958 182.195 90.2337 181.697 89.3418 180.701C88.4564 179.705 88.0137 178.387 88.0137 176.746V176.619ZM89.8301 176.834C89.8301 178.006 90.1003 178.947 90.6406 179.656C91.1875 180.366 91.9167 180.721 92.8281 180.721C93.7461 180.721 94.4753 180.363 95.0156 179.646C95.556 178.924 95.8262 177.915 95.8262 176.619C95.8262 175.46 95.5495 174.523 94.9961 173.807C94.4492 173.084 93.7201 172.723 92.8086 172.723C91.9167 172.723 91.1973 173.077 90.6504 173.787C90.1035 174.497 89.8301 175.512 89.8301 176.834ZM101.607 171.434L101.666 172.762C102.473 171.746 103.528 171.238 104.83 171.238C107.063 171.238 108.189 172.498 108.209 175.018V182H106.402V175.008C106.396 174.246 106.22 173.683 105.875 173.318C105.536 172.954 105.006 172.771 104.283 172.771C103.697 172.771 103.183 172.928 102.74 173.24C102.298 173.553 101.952 173.963 101.705 174.471V182H99.8984V171.434H101.607ZM117.086 179.197C117.086 178.709 116.9 178.331 116.529 178.064C116.165 177.791 115.523 177.557 114.605 177.361C113.694 177.166 112.968 176.932 112.428 176.658C111.894 176.385 111.497 176.059 111.236 175.682C110.982 175.304 110.855 174.855 110.855 174.334C110.855 173.468 111.22 172.736 111.949 172.137C112.685 171.538 113.622 171.238 114.762 171.238C115.96 171.238 116.93 171.548 117.672 172.166C118.421 172.785 118.795 173.576 118.795 174.539H116.979C116.979 174.044 116.767 173.618 116.344 173.26C115.927 172.902 115.4 172.723 114.762 172.723C114.104 172.723 113.59 172.866 113.219 173.152C112.848 173.439 112.662 173.813 112.662 174.275C112.662 174.712 112.835 175.04 113.18 175.262C113.525 175.483 114.146 175.695 115.045 175.896C115.95 176.098 116.682 176.339 117.242 176.619C117.802 176.899 118.215 177.238 118.482 177.635C118.756 178.025 118.893 178.504 118.893 179.07C118.893 180.014 118.515 180.773 117.76 181.346C117.005 181.912 116.025 182.195 114.82 182.195C113.974 182.195 113.225 182.046 112.574 181.746C111.923 181.447 111.412 181.03 111.041 180.496C110.676 179.956 110.494 179.373 110.494 178.748H112.301C112.333 179.354 112.574 179.835 113.023 180.193C113.479 180.545 114.078 180.721 114.82 180.721C115.504 180.721 116.051 180.584 116.461 180.311C116.878 180.031 117.086 179.66 117.086 179.197ZM135.152 176.834C135.152 178.449 134.781 179.747 134.039 180.73C133.297 181.707 132.301 182.195 131.051 182.195C129.716 182.195 128.684 181.723 127.955 180.779L127.867 182H126.207V167H128.014V172.596C128.743 171.691 129.749 171.238 131.031 171.238C132.314 171.238 133.32 171.723 134.049 172.693C134.785 173.663 135.152 174.992 135.152 176.678V176.834ZM133.346 176.629C133.346 175.398 133.108 174.448 132.633 173.777C132.158 173.107 131.474 172.771 130.582 172.771C129.391 172.771 128.535 173.325 128.014 174.432V179.002C128.567 180.109 129.43 180.662 130.602 180.662C131.467 180.662 132.141 180.327 132.623 179.656C133.105 178.986 133.346 177.977 133.346 176.629ZM143.961 180.955C143.258 181.782 142.226 182.195 140.865 182.195C139.739 182.195 138.88 181.87 138.287 181.219C137.701 180.561 137.405 179.591 137.398 178.309V171.434H139.205V178.26C139.205 179.861 139.856 180.662 141.158 180.662C142.538 180.662 143.456 180.148 143.912 179.119V171.434H145.719V182H144L143.961 180.955ZM150.924 168.875V171.434H152.896V172.83H150.924V179.383C150.924 179.806 151.012 180.125 151.188 180.34C151.363 180.548 151.663 180.652 152.086 180.652C152.294 180.652 152.581 180.613 152.945 180.535V182C152.47 182.13 152.008 182.195 151.559 182.195C150.751 182.195 150.143 181.951 149.732 181.463C149.322 180.975 149.117 180.281 149.117 179.383V172.83H147.193V171.434H149.117V168.875H150.924ZM161.686 171.434L161.744 172.762C162.551 171.746 163.606 171.238 164.908 171.238C167.141 171.238 168.268 172.498 168.287 175.018V182H166.48V175.008C166.474 174.246 166.298 173.683 165.953 173.318C165.615 172.954 165.084 172.771 164.361 172.771C163.775 172.771 163.261 172.928 162.818 173.24C162.376 173.553 162.031 173.963 161.783 174.471V182H159.977V171.434H161.686ZM170.533 176.619C170.533 175.584 170.735 174.653 171.139 173.826C171.549 172.999 172.115 172.361 172.838 171.912C173.567 171.463 174.397 171.238 175.328 171.238C176.767 171.238 177.929 171.736 178.814 172.732C179.706 173.729 180.152 175.053 180.152 176.707V176.834C180.152 177.863 179.954 178.787 179.557 179.607C179.166 180.421 178.603 181.056 177.867 181.512C177.138 181.967 176.298 182.195 175.348 182.195C173.915 182.195 172.753 181.697 171.861 180.701C170.976 179.705 170.533 178.387 170.533 176.746V176.619ZM172.35 176.834C172.35 178.006 172.62 178.947 173.16 179.656C173.707 180.366 174.436 180.721 175.348 180.721C176.266 180.721 176.995 180.363 177.535 179.646C178.076 178.924 178.346 177.915 178.346 176.619C178.346 175.46 178.069 174.523 177.516 173.807C176.969 173.084 176.24 172.723 175.328 172.723C174.436 172.723 173.717 173.077 173.17 173.787C172.623 174.497 172.35 175.512 172.35 176.834ZM184.127 171.434L184.186 172.762C184.993 171.746 186.048 171.238 187.35 171.238C189.583 171.238 190.709 172.498 190.729 175.018V182H188.922V175.008C188.915 174.246 188.74 173.683 188.395 173.318C188.056 172.954 187.525 172.771 186.803 172.771C186.217 172.771 185.702 172.928 185.26 173.24C184.817 173.553 184.472 173.963 184.225 174.471V182H182.418V171.434H184.127ZM197.838 182.195C196.406 182.195 195.24 181.727 194.342 180.789C193.443 179.845 192.994 178.585 192.994 177.01V176.678C192.994 175.63 193.193 174.695 193.59 173.875C193.993 173.048 194.553 172.404 195.27 171.941C195.992 171.473 196.773 171.238 197.613 171.238C198.987 171.238 200.055 171.691 200.816 172.596C201.578 173.501 201.959 174.796 201.959 176.482V177.234H194.801C194.827 178.276 195.13 179.119 195.709 179.764C196.295 180.402 197.037 180.721 197.936 180.721C198.574 180.721 199.114 180.59 199.557 180.33C199.999 180.07 200.387 179.725 200.719 179.295L201.822 180.154C200.937 181.515 199.609 182.195 197.838 182.195ZM197.613 172.723C196.884 172.723 196.272 172.99 195.777 173.523C195.283 174.051 194.977 174.793 194.859 175.75H200.152V175.613C200.1 174.695 199.853 173.986 199.41 173.484C198.967 172.977 198.368 172.723 197.613 172.723ZM208.541 176.619C208.541 175.584 208.743 174.653 209.146 173.826C209.557 172.999 210.123 172.361 210.846 171.912C211.575 171.463 212.405 171.238 213.336 171.238C214.775 171.238 215.937 171.736 216.822 172.732C217.714 173.729 218.16 175.053 218.16 176.707V176.834C218.16 177.863 217.962 178.787 217.564 179.607C217.174 180.421 216.611 181.056 215.875 181.512C215.146 181.967 214.306 182.195 213.355 182.195C211.923 182.195 210.761 181.697 209.869 180.701C208.984 179.705 208.541 178.387 208.541 176.746V176.619ZM210.357 176.834C210.357 178.006 210.628 178.947 211.168 179.656C211.715 180.366 212.444 180.721 213.355 180.721C214.273 180.721 215.003 180.363 215.543 179.646C216.083 178.924 216.354 177.915 216.354 176.619C216.354 175.46 216.077 174.523 215.523 173.807C214.977 173.084 214.247 172.723 213.336 172.723C212.444 172.723 211.725 173.077 211.178 173.787C210.631 174.497 210.357 175.512 210.357 176.834ZM221.314 182V172.83H219.645V171.434H221.314V170.35C221.314 169.217 221.617 168.341 222.223 167.723C222.828 167.104 223.684 166.795 224.791 166.795C225.208 166.795 225.621 166.85 226.031 166.961L225.934 168.426C225.628 168.367 225.302 168.338 224.957 168.338C224.371 168.338 223.919 168.51 223.6 168.855C223.281 169.194 223.121 169.682 223.121 170.32V171.434H225.377V172.83H223.121V182H221.314ZM47.6719 199.875V202.434H49.6445V203.83H47.6719V210.383C47.6719 210.806 47.7598 211.125 47.9355 211.34C48.1113 211.548 48.4108 211.652 48.834 211.652C49.0423 211.652 49.3288 211.613 49.6934 211.535V213C49.2181 213.13 48.7559 213.195 48.3066 213.195C47.4993 213.195 46.8906 212.951 46.4805 212.463C46.0703 211.975 45.8652 211.281 45.8652 210.383V203.83H43.9414V202.434H45.8652V199.875H47.6719ZM53.5703 203.713C54.3711 202.73 55.4128 202.238 56.6953 202.238C58.9284 202.238 60.0547 203.498 60.0742 206.018V213H58.2676V206.008C58.2611 205.246 58.0853 204.683 57.7402 204.318C57.4017 203.954 56.8711 203.771 56.1484 203.771C55.5625 203.771 55.0482 203.928 54.6055 204.24C54.1628 204.553 53.8177 204.963 53.5703 205.471V213H51.7637V198H53.5703V203.713ZM67.1641 213.195C65.7318 213.195 64.5664 212.727 63.668 211.789C62.7695 210.845 62.3203 209.585 62.3203 208.01V207.678C62.3203 206.63 62.5189 205.695 62.916 204.875C63.3197 204.048 63.8796 203.404 64.5957 202.941C65.3184 202.473 66.0996 202.238 66.9395 202.238C68.3132 202.238 69.3809 202.691 70.1426 203.596C70.9043 204.501 71.2852 205.796 71.2852 207.482V208.234H64.127C64.153 209.276 64.4557 210.119 65.0352 210.764C65.6211 211.402 66.3633 211.721 67.2617 211.721C67.8997 211.721 68.4401 211.59 68.8828 211.33C69.3255 211.07 69.7129 210.725 70.0449 210.295L71.1484 211.154C70.263 212.515 68.9349 213.195 67.1641 213.195ZM66.9395 203.723C66.2103 203.723 65.5983 203.99 65.1035 204.523C64.6087 205.051 64.3027 205.793 64.1855 206.75H69.4785V206.613C69.4264 205.695 69.179 204.986 68.7363 204.484C68.2936 203.977 67.6947 203.723 66.9395 203.723ZM75.084 202.434L75.1328 203.605C75.9076 202.694 76.9525 202.238 78.2676 202.238C79.7454 202.238 80.7513 202.805 81.2852 203.938C81.6367 203.43 82.0924 203.02 82.6523 202.707C83.2188 202.395 83.8861 202.238 84.6543 202.238C86.972 202.238 88.1504 203.465 88.1895 205.92V213H86.3828V206.027C86.3828 205.272 86.2103 204.709 85.8652 204.338C85.5202 203.96 84.9408 203.771 84.127 203.771C83.4564 203.771 82.8997 203.973 82.457 204.377C82.0143 204.774 81.7572 205.311 81.6855 205.988V213H79.8691V206.076C79.8691 204.54 79.1172 203.771 77.6133 203.771C76.4284 203.771 75.6178 204.276 75.1816 205.285V213H73.375V202.434H75.084ZM102.408 213C102.304 212.792 102.219 212.421 102.154 211.887C101.314 212.759 100.312 213.195 99.1465 213.195C98.1048 213.195 97.2487 212.902 96.5781 212.316C95.9141 211.724 95.582 210.975 95.582 210.07C95.582 208.97 95.9987 208.117 96.832 207.512C97.6719 206.9 98.8503 206.594 100.367 206.594H102.125V205.764C102.125 205.132 101.936 204.631 101.559 204.26C101.181 203.882 100.624 203.693 99.8887 203.693C99.2441 203.693 98.7038 203.856 98.2676 204.182C97.8314 204.507 97.6133 204.901 97.6133 205.363H95.7969C95.7969 204.836 95.9824 204.328 96.3535 203.84C96.7311 203.345 97.2389 202.954 97.877 202.668C98.5215 202.382 99.2279 202.238 99.9961 202.238C101.214 202.238 102.167 202.544 102.857 203.156C103.548 203.762 103.906 204.598 103.932 205.666V210.529C103.932 211.499 104.055 212.271 104.303 212.844V213H102.408ZM99.4102 211.623C99.9766 211.623 100.514 211.477 101.021 211.184C101.529 210.891 101.897 210.51 102.125 210.041V207.873H100.709C98.4954 207.873 97.3887 208.521 97.3887 209.816C97.3887 210.383 97.5775 210.826 97.9551 211.145C98.3327 211.464 98.8177 211.623 99.4102 211.623ZM111.871 204.055C111.598 204.009 111.301 203.986 110.982 203.986C109.798 203.986 108.993 204.491 108.57 205.5V213H106.764V202.434H108.521L108.551 203.654C109.143 202.71 109.983 202.238 111.07 202.238C111.422 202.238 111.689 202.284 111.871 202.375V204.055ZM117.73 213.195C116.298 213.195 115.133 212.727 114.234 211.789C113.336 210.845 112.887 209.585 112.887 208.01V207.678C112.887 206.63 113.085 205.695 113.482 204.875C113.886 204.048 114.446 203.404 115.162 202.941C115.885 202.473 116.666 202.238 117.506 202.238C118.88 202.238 119.947 202.691 120.709 203.596C121.471 204.501 121.852 205.796 121.852 207.482V208.234H114.693C114.719 209.276 115.022 210.119 115.602 210.764C116.188 211.402 116.93 211.721 117.828 211.721C118.466 211.721 119.007 211.59 119.449 211.33C119.892 211.07 120.279 210.725 120.611 210.295L121.715 211.154C120.829 212.515 119.501 213.195 117.73 213.195ZM117.506 203.723C116.777 203.723 116.165 203.99 115.67 204.523C115.175 205.051 114.869 205.793 114.752 206.75H120.045V206.613C119.993 205.695 119.745 204.986 119.303 204.484C118.86 203.977 118.261 203.723 117.506 203.723ZM128.482 207.629C128.482 205.982 128.863 204.673 129.625 203.703C130.387 202.727 131.396 202.238 132.652 202.238C133.941 202.238 134.947 202.694 135.67 203.605L135.758 202.434H137.408V212.746C137.408 214.113 137.001 215.191 136.188 215.979C135.38 216.766 134.293 217.16 132.926 217.16C132.164 217.16 131.419 216.997 130.689 216.672C129.96 216.346 129.404 215.9 129.02 215.334L129.957 214.25C130.732 215.207 131.679 215.686 132.799 215.686C133.678 215.686 134.361 215.438 134.85 214.943C135.344 214.449 135.592 213.752 135.592 212.854V211.945C134.869 212.779 133.883 213.195 132.633 213.195C131.396 213.195 130.393 212.697 129.625 211.701C128.863 210.705 128.482 209.348 128.482 207.629ZM130.299 207.834C130.299 209.025 130.543 209.963 131.031 210.646C131.52 211.324 132.203 211.662 133.082 211.662C134.221 211.662 135.058 211.145 135.592 210.109V205.285C135.038 204.276 134.208 203.771 133.102 203.771C132.223 203.771 131.536 204.113 131.041 204.797C130.546 205.48 130.299 206.493 130.299 207.834ZM145.25 204.055C144.977 204.009 144.68 203.986 144.361 203.986C143.176 203.986 142.372 204.491 141.949 205.5V213H140.143V202.434H141.9L141.93 203.654C142.522 202.71 143.362 202.238 144.449 202.238C144.801 202.238 145.068 202.284 145.25 202.375V204.055ZM151.109 213.195C149.677 213.195 148.512 212.727 147.613 211.789C146.715 210.845 146.266 209.585 146.266 208.01V207.678C146.266 206.63 146.464 205.695 146.861 204.875C147.265 204.048 147.825 203.404 148.541 202.941C149.264 202.473 150.045 202.238 150.885 202.238C152.258 202.238 153.326 202.691 154.088 203.596C154.85 204.501 155.23 205.796 155.23 207.482V208.234H148.072C148.098 209.276 148.401 210.119 148.98 210.764C149.566 211.402 150.309 211.721 151.207 211.721C151.845 211.721 152.385 211.59 152.828 211.33C153.271 211.07 153.658 210.725 153.99 210.295L155.094 211.154C154.208 212.515 152.88 213.195 151.109 213.195ZM150.885 203.723C150.156 203.723 149.544 203.99 149.049 204.523C148.554 205.051 148.248 205.793 148.131 206.75H153.424V206.613C153.372 205.695 153.124 204.986 152.682 204.484C152.239 203.977 151.64 203.723 150.885 203.723ZM163.854 213C163.749 212.792 163.665 212.421 163.6 211.887C162.76 212.759 161.757 213.195 160.592 213.195C159.55 213.195 158.694 212.902 158.023 212.316C157.359 211.724 157.027 210.975 157.027 210.07C157.027 208.97 157.444 208.117 158.277 207.512C159.117 206.9 160.296 206.594 161.812 206.594H163.57V205.764C163.57 205.132 163.382 204.631 163.004 204.26C162.626 203.882 162.07 203.693 161.334 203.693C160.689 203.693 160.149 203.856 159.713 204.182C159.277 204.507 159.059 204.901 159.059 205.363H157.242C157.242 204.836 157.428 204.328 157.799 203.84C158.176 203.345 158.684 202.954 159.322 202.668C159.967 202.382 160.673 202.238 161.441 202.238C162.659 202.238 163.613 202.544 164.303 203.156C164.993 203.762 165.351 204.598 165.377 205.666V210.529C165.377 211.499 165.501 212.271 165.748 212.844V213H163.854ZM160.855 211.623C161.422 211.623 161.959 211.477 162.467 211.184C162.975 210.891 163.342 210.51 163.57 210.041V207.873H162.154C159.941 207.873 158.834 208.521 158.834 209.816C158.834 210.383 159.023 210.826 159.4 211.145C159.778 211.464 160.263 211.623 160.855 211.623ZM170.66 199.875V202.434H172.633V203.83H170.66V210.383C170.66 210.806 170.748 211.125 170.924 211.34C171.1 211.548 171.399 211.652 171.822 211.652C172.031 211.652 172.317 211.613 172.682 211.535V213C172.206 213.13 171.744 213.195 171.295 213.195C170.488 213.195 169.879 212.951 169.469 212.463C169.059 211.975 168.854 211.281 168.854 210.383V203.83H166.93V202.434H168.854V199.875H170.66ZM174.791 212.053C174.791 211.74 174.882 211.48 175.064 211.271C175.253 211.063 175.533 210.959 175.904 210.959C176.275 210.959 176.555 211.063 176.744 211.271C176.939 211.48 177.037 211.74 177.037 212.053C177.037 212.352 176.939 212.603 176.744 212.805C176.555 213.007 176.275 213.107 175.904 213.107C175.533 213.107 175.253 213.007 175.064 212.805C174.882 212.603 174.791 212.352 174.791 212.053ZM178.609 202.785L177.584 202.082C178.189 201.236 178.502 200.344 178.521 199.406V198H180.309V199.27C180.302 199.921 180.139 200.572 179.82 201.223C179.508 201.867 179.104 202.388 178.609 202.785ZM181.607 202.785L180.582 202.082C181.188 201.236 181.5 200.344 181.52 199.406V198H183.307V199.27C183.3 199.921 183.137 200.572 182.818 201.223C182.506 201.867 182.102 202.388 181.607 202.785Z" fill="#180330"/>
<path d="M128.83 13.3127C128.697 13.1957 128.512 13.1256 128.315 13.1179C128.117 13.1101 127.924 13.1652 127.777 13.2712C127.631 13.3771 127.543 13.5252 127.533 13.6828C127.524 13.8405 127.593 13.9947 127.725 14.1117C130.578 16.6252 132.263 19.8449 132.497 23.2317C132.731 26.6185 131.501 29.9668 129.013 32.7159C126.524 35.4649 122.928 37.4479 118.827 38.3328C114.726 39.2176 110.368 38.9506 106.484 37.5764C102.6 36.2022 99.4251 33.8044 97.4911 30.7843C95.5571 27.7642 94.9813 24.3052 95.8602 20.9866C96.7391 17.6681 99.0193 14.6913 102.319 12.5548C105.619 10.4183 109.737 9.25184 113.986 9.25066C118.214 9.25264 122.314 10.4047 125.612 12.5169C125.765 12.6159 125.961 12.6622 126.157 12.6457C126.353 12.6292 126.533 12.5513 126.657 12.429C126.781 12.3068 126.839 12.1502 126.818 11.9938C126.797 11.8373 126.7 11.6938 126.547 11.5949C124.296 10.1506 121.681 9.11214 118.881 8.55075L122.336 5.19501C122.43 5.10294 122.488 4.9903 122.501 4.87174C122.514 4.75318 122.482 4.63419 122.41 4.53025L119.44 0.303615C119.375 0.211499 119.28 0.134834 119.166 0.0814811C119.052 0.028128 118.922 6.54018e-06 118.789 0L109.182 0C109.05 6.54018e-06 108.92 0.028128 108.806 0.0814811C108.691 0.134834 108.597 0.211499 108.532 0.303615L105.562 4.53185C105.489 4.63566 105.457 4.75473 105.47 4.8734C105.483 4.99206 105.541 5.10474 105.636 5.19661L109.086 8.55235C104.849 9.40987 101.08 11.3523 98.3561 14.0825C95.6325 16.8126 94.1042 20.1801 94.0051 23.6696C93.9061 27.1591 95.2417 30.5784 97.8076 33.4043C100.374 36.2302 104.028 38.307 108.213 39.3169C112.398 40.3269 116.881 40.2143 120.978 38.9965C125.075 37.7786 128.559 35.5226 130.898 32.5736C133.236 29.6246 134.3 26.1451 133.927 22.6675C133.553 19.1898 131.763 15.9057 128.83 13.3175V13.3127ZM117.238 8.2775C116.408 8.16796 115.571 8.10071 114.73 8.07615V5.41393H120.19L117.238 8.2775ZM120.488 4.22823H115.665L118.647 1.59797L120.488 4.22823ZM117.112 1.18729L113.986 3.9374L110.86 1.18729H117.112ZM109.325 1.59797L112.307 4.22184H107.483L109.325 1.59797ZM107.781 5.41393H113.241V8.07615C112.401 8.10035 111.563 8.16706 110.734 8.2759L107.781 5.41393Z" fill="black"/>
<path d="M113.986 11.7564C111.346 11.7546 108.75 12.2955 106.447 13.3271C104.145 14.3587 102.214 15.8463 100.841 17.6465C100.749 17.7806 100.726 17.9376 100.776 18.085C100.826 18.2324 100.945 18.3588 101.108 18.4381C101.272 18.5174 101.467 18.5434 101.654 18.5109C101.84 18.4784 102.004 18.3897 102.112 18.2633C103.85 15.9793 106.566 14.2752 109.757 13.4662C112.948 12.6573 116.397 12.7981 119.468 13.8628C122.539 14.9274 125.023 16.8438 126.46 19.2576C127.898 21.6713 128.193 24.4192 127.29 26.9929C126.387 29.5667 124.347 31.7923 121.547 33.2581C118.748 34.7239 115.378 35.3308 112.062 34.9666C108.746 34.6024 105.706 33.2917 103.507 31.2768C101.307 29.262 100.095 26.6793 100.096 24.0064C100.094 22.7829 100.348 21.5678 100.847 20.411C100.889 20.2675 100.863 20.1165 100.774 19.9874C100.685 19.8582 100.539 19.7601 100.364 19.7121C100.19 19.6641 99.9992 19.6697 99.8294 19.7276C99.6596 19.7856 99.5228 19.8919 99.4457 20.0259C98.3795 22.4871 98.3205 25.1552 99.2772 27.645C100.234 30.1347 102.157 32.3173 104.768 33.8777C107.38 35.438 110.545 36.2954 113.807 36.3259C117.068 36.3565 120.258 35.5587 122.914 34.0477C125.571 32.5368 127.558 30.3908 128.587 27.9197C129.617 25.4485 129.636 22.7801 128.643 20.2995C127.649 17.8189 125.694 15.6546 123.06 14.1191C120.425 12.5835 117.248 11.7561 113.986 11.7564Z" fill="black"/>
</svg>
