<svg width="78" height="28" viewBox="0 0 78 28" fill="none" xmlns="http://www.w3.org/2000/svg">
<g clip-path="url(#clip0_1_17)">
<path d="M9.4991 16.9052C7.08175 16.2616 4.99395 15.7057 4.99395 13.5314C5.00338 13.156 5.08821 12.7863 5.24335 12.4447C5.39848 12.103 5.62071 11.7964 5.8967 11.5432C6.17269 11.29 6.49674 11.0955 6.84939 10.9714C7.20204 10.8472 7.57601 10.796 7.94885 10.8208C9.9892 10.8208 10.6028 12.1444 11.1989 13.4249C11.6903 14.4846 12.1544 15.4855 13.4024 15.4855C13.6372 15.498 13.8721 15.4627 14.093 15.3815C14.3138 15.3003 14.516 15.175 14.6874 15.0132C14.8588 14.8514 14.9959 14.6563 15.0902 14.4398C15.1846 14.2234 15.2344 13.9899 15.2367 13.7535C15.2367 11.5185 12.428 9.20775 7.7298 9.20775C3.4632 9.20775 0.36855 11.4774 0.36855 14.6048C0.36855 18.7789 3.68875 19.6426 6.617 20.405C9.01615 21.0289 11.0877 21.5679 11.0877 23.7134C11.0877 25.412 9.87285 26.424 7.8377 26.424C5.5328 26.424 4.88995 25.0717 4.26855 23.7637C3.76935 22.7138 3.29745 21.7221 1.9812 21.7221C0.74035 21.7221 0 22.4094 0 23.5651C0 25.7269 2.93215 27.9626 7.8377 27.9626C12.4748 27.9626 15.7138 25.7884 15.7138 22.6759C15.7138 18.56 12.4118 17.68 9.4991 16.9045V16.9052ZM40.1427 9.20775C39.8584 9.18298 39.5722 9.21977 39.3033 9.31563C39.0344 9.41149 38.7891 9.5642 38.5839 9.76345C38.3787 9.9627 38.2184 10.2039 38.1138 10.4707C38.0092 10.7375 37.9627 11.0237 37.9776 11.3101C37.9776 12.5449 38.6835 13.2819 39.431 14.0632C40.2558 14.9243 41.108 15.8161 41.108 17.4932C41.108 22.1735 38.0608 25.9425 35.5387 25.9425C35.2835 25.9537 35.0286 25.9121 34.79 25.8202C34.5514 25.7282 34.3341 25.588 34.1517 25.4081C33.6018 24.8463 33.334 23.8526 33.3567 22.4551L33.4308 10.238C33.4426 10.0861 33.4199 9.93345 33.3644 9.79163C33.3089 9.64982 33.222 9.52254 33.1104 9.41942C32.9512 9.31066 32.7698 9.23892 32.5796 9.20942C32.3894 9.17993 32.195 9.19341 32.0106 9.24891L28.405 9.98716C28.1998 10.0028 28.0073 10.0932 27.8637 10.2414C27.72 10.3896 27.6352 10.5854 27.625 10.792V10.9025C27.625 11.2696 27.8974 11.5192 28.186 11.7831C28.4407 11.9653 28.6493 12.205 28.7951 12.4831C28.9408 12.7611 29.0196 13.0696 29.0251 13.3838V18.4927C29.0251 23.1561 26.6611 25.9406 24.3757 25.9406C24.1296 25.9485 23.8846 25.9052 23.656 25.8134C23.4274 25.7217 23.22 25.5835 23.0471 25.4075C22.4907 24.8391 22.2086 23.8441 22.2313 22.527L22.3048 10.2348C22.3168 10.1036 22.2997 9.97141 22.2547 9.8477C22.2098 9.72399 22.1381 9.61185 22.0448 9.51938C21.8736 9.41562 21.6834 9.34762 21.4855 9.31944C21.2876 9.29127 21.086 9.3035 20.893 9.3554L16.9832 9.98585C16.7854 10.0108 16.6028 10.1051 16.4675 10.2523C16.3323 10.3995 16.2532 10.59 16.2442 10.7901V10.9005C16.2442 11.2677 16.5172 11.5172 16.8057 11.7812C17.0604 11.9634 17.269 12.2031 17.4146 12.4812C17.5602 12.7592 17.6389 13.0677 17.6443 13.3818V20.895C17.6443 27.3041 21.7607 27.9959 23.53 27.9959C24.7493 28.028 25.9562 27.7437 27.0343 27.1703C28.1124 26.597 29.0253 25.754 29.6849 24.7228C30.0567 25.7304 30.7399 26.5918 31.6343 27.1808C32.5286 27.7698 33.5871 28.0555 34.6548 27.9959C39.2275 27.9959 43.8562 23.6108 43.8562 15.2301C43.8562 11.5127 42.434 9.20317 40.1434 9.20317L40.1427 9.20775ZM53.9279 17.9851C52.2346 18.2526 50.5168 18.329 48.8066 18.2131C48.7414 17.667 48.7095 17.1174 48.711 16.5674C48.711 13.3237 50.481 10.9691 52.9191 10.9691C53.828 10.979 54.6985 11.3387 55.3514 11.9742C56.0044 12.6097 56.3901 13.4726 56.4291 14.3853C56.4681 17.0639 55.1844 17.7074 53.926 17.9851H53.9279ZM61.076 21.6548C60.8978 21.5905 60.7038 21.5855 60.5226 21.6406C60.3414 21.6956 60.1826 21.8078 60.0698 21.9606L60.0548 21.9841C59.2852 23.5305 57.1838 24.6104 54.9432 24.6104C52.2925 24.6104 50.2275 22.9817 49.2492 20.1332C51.0975 20.3478 52.9676 20.2782 54.795 19.9268C58.5774 19.1088 60.8361 17.0371 60.8361 14.3833C60.852 13.7664 60.7417 13.1528 60.5121 12.5804C60.2824 12.0081 59.9383 11.4892 59.501 11.056C58.2816 9.84147 56.2978 9.18357 53.9175 9.2084C48.672 9.24695 44.8643 13.1362 44.8643 18.4568C44.8643 24.1655 48.607 28.0012 54.1762 28.0012C56.121 28.0587 58.0138 27.3645 59.4646 26.0614C60.5198 25.1115 61.2342 23.8385 61.4972 22.4394V22.4323C61.525 22.274 61.4984 22.1109 61.4219 21.9697C61.3454 21.8286 61.2234 21.7177 61.076 21.6555V21.6548ZM68.9793 25.8537C68.7283 25.7058 68.5187 25.4964 68.3699 25.2451C68.2211 24.9937 68.1381 24.7087 68.1285 24.4164V0.890979C68.1344 0.741678 68.1019 0.593363 68.0343 0.460296C67.9667 0.327228 67.8662 0.213886 67.7424 0.131168C67.5642 0.0402083 67.3658 -0.00356823 67.1661 0.00397679C66.9664 0.0115218 66.7719 0.070139 66.601 0.174287L62.8804 2.0258C62.5502 2.19174 62.1764 2.37924 62.1764 2.81762V2.92738C62.1764 3.25012 62.415 3.48009 62.6906 3.74664C63.0689 4.11054 63.5395 4.02496 63.5395 4.90498V24.417C63.5362 24.7016 63.4647 24.9812 63.3311 25.2321C63.1975 25.483 63.0056 25.6978 62.7718 25.8583C62.6067 25.9637 62.4675 26.1053 62.3644 26.2723C62.2613 26.4394 62.197 26.6277 62.1764 26.8232V26.9349C62.1764 27.357 62.5352 27.6301 63.0897 27.6301H68.6888C69.2478 27.6301 69.6391 27.3439 69.6391 26.9349V26.8232C69.6391 26.3861 69.318 26.1274 68.9793 25.8537ZM77.3403 25.8537C77.0894 25.7056 76.88 25.4962 76.7313 25.2449C76.5827 24.9936 76.4997 24.7086 76.4901 24.4164V0.890979C76.4958 0.740998 76.4629 0.592063 76.3946 0.458603C76.3263 0.325143 76.2248 0.211681 76.1001 0.129208C75.9219 0.0384264 75.7237 -0.00525191 75.5241 0.0022922C75.3245 0.0098363 75.1301 0.0683542 74.9593 0.172327L71.24 2.0258C70.9105 2.19174 70.5374 2.37924 70.5374 2.81762V2.92738C70.5374 3.25012 70.7753 3.48009 71.0515 3.74664C71.4298 4.11054 71.9004 4.02496 71.9004 4.90498V24.417C71.8972 24.7017 71.8257 24.9813 71.6919 25.2323C71.5582 25.4832 71.3661 25.6979 71.1321 25.8583C70.9671 25.9638 70.828 26.1054 70.725 26.2724C70.6221 26.4395 70.5579 26.6278 70.5374 26.8232V26.9349C70.5374 27.357 70.8955 27.6301 71.4506 27.6301H77.0491C77.6087 27.6301 77.9994 27.3439 77.9994 26.9349V26.8232C77.9994 26.3861 77.6789 26.1274 77.3396 25.8537" fill="#550088"/>
</g>
<defs>
<clipPath id="clip0_1_17">
<rect width="78" height="28" fill="white"/>
</clipPath>
</defs>
</svg>
