<svg width="144" height="20" viewBox="0 0 144 20" fill="none" xmlns="http://www.w3.org/2000/svg">
<path d="M104.002 4.75912C102.961 4.73728 101.925 4.86305 100.967 5.12771C100.008 5.39236 99.149 5.78957 98.4496 6.29181L98.7214 5.39199C98.745 5.3299 98.7463 5.26512 98.7253 5.20264C98.7042 5.14017 98.6614 5.08169 98.6001 5.03172C98.5387 4.98175 98.4606 4.94163 98.3716 4.91447C98.2827 4.88731 98.1853 4.87384 98.0871 4.8751C97.865 4.88148 97.6525 4.93572 97.4829 5.02928C97.3133 5.12284 97.1963 5.25043 97.1502 5.39199L93.1569 19.0212C93.1334 19.0833 93.132 19.1481 93.1531 19.2105C93.1741 19.273 93.217 19.3315 93.2783 19.3815C93.3396 19.4314 93.4178 19.4716 93.5067 19.4987C93.5957 19.5259 93.693 19.5394 93.7913 19.5381C94.0134 19.5319 94.2261 19.4777 94.3957 19.3841C94.5653 19.2905 94.6823 19.1628 94.7281 19.0212L96.2087 13.9472C96.6782 14.4656 97.3661 14.8854 98.1909 15.1571C99.0157 15.4287 99.9428 15.5408 100.862 15.4799C102.902 15.5211 104.886 15.0426 106.392 14.1462C108.049 13.0406 109.119 11.6183 109.443 10.088C110.048 8.73719 109.809 7.28564 108.778 6.04886C108.208 5.59393 107.474 5.23779 106.641 5.01208C105.808 4.78638 104.903 4.69811 104.005 4.75512L104.002 4.75912ZM101.131 14.5481C97.7523 14.5481 96.4176 13.0164 97.2639 10.111C98.1101 7.18663 100.256 5.69493 103.609 5.69493C107.295 5.69493 108.655 7.14663 107.778 10.111C106.903 13.1554 104.788 14.5481 101.131 14.5481ZM138.418 9.54914C136.421 9.04924 134.52 8.59434 134.885 7.36059C135.066 6.74371 135.822 5.70893 138.905 5.70893C139.62 5.67044 140.339 5.75068 140.994 5.94213C141.649 6.13358 142.219 6.43 142.65 6.8037C142.706 6.84848 142.776 6.88434 142.856 6.90845C142.936 6.93256 143.023 6.94428 143.111 6.94267C143.316 6.93348 143.511 6.88242 143.669 6.79677C143.826 6.71113 143.938 6.59528 143.988 6.46577C144.02 6.34937 143.988 6.22949 143.898 6.12684V6.10685C143.349 5.64252 142.63 5.27535 141.806 5.039C140.982 4.80266 140.081 4.7047 139.184 4.75412C136.042 4.75412 133.775 5.75392 133.322 7.36059C132.747 9.29119 135.346 9.92706 137.642 10.5039C139.606 11.0038 141.482 11.4598 141.147 12.6335C140.665 14.3042 138.004 14.5431 136.464 14.5431C135.626 14.6025 134.779 14.516 134.009 14.2923C133.239 14.0687 132.574 13.7161 132.082 13.2704C132.029 13.2242 131.959 13.1872 131.879 13.1628C131.798 13.1384 131.71 13.1273 131.621 13.1304C131.417 13.1397 131.222 13.191 131.064 13.2768C130.907 13.3627 130.796 13.4787 130.746 13.6083C130.714 13.7244 130.746 13.8441 130.837 13.9462C131.445 14.4854 132.257 14.9133 133.194 15.1886C134.131 15.4639 135.161 15.5773 136.184 15.5179C139.749 15.5179 142.197 14.4441 142.71 12.6535C143.254 10.7229 140.686 10.087 138.421 9.54914H138.418ZM133.643 2.05068H131.981L132.314 0.958899C132.338 0.896812 132.339 0.832025 132.318 0.769553C132.297 0.70708 132.254 0.648596 132.193 0.598626C132.131 0.548655 132.053 0.508539 131.964 0.481381C131.875 0.454222 131.778 0.440749 131.68 0.442005C131.459 0.451321 131.249 0.506604 131.08 0.599685C130.911 0.692766 130.793 0.818707 130.743 0.958899L130.41 2.05368H128.748C128.527 2.0633 128.317 2.1187 128.149 2.21173C127.98 2.30476 127.862 2.43053 127.811 2.57057C127.787 2.63279 127.786 2.69771 127.807 2.7603C127.828 2.82289 127.871 2.88148 127.933 2.93154C127.994 2.9816 128.072 3.02179 128.162 3.049C128.251 3.07621 128.348 3.08971 128.447 3.08846H130.109L129.781 4.18224C129.758 4.24438 129.757 4.3092 129.778 4.37172C129.799 4.43424 129.841 4.49277 129.903 4.54281C129.964 4.59285 130.042 4.63306 130.131 4.66034C130.22 4.68761 130.317 4.70123 130.416 4.70013C130.637 4.69076 130.847 4.63533 131.016 4.54206C131.184 4.44878 131.303 4.32262 131.353 4.18224L131.686 3.08846H133.348C133.569 3.07893 133.779 3.02345 133.947 2.9302C134.116 2.83695 134.234 2.71087 134.285 2.57057C134.305 2.51595 134.309 2.45921 134.296 2.40362C134.283 2.34804 134.253 2.29469 134.208 2.24666C134.163 2.19863 134.104 2.15685 134.034 2.12373C133.964 2.09062 133.885 2.06681 133.801 2.05368C133.764 2.07367 133.704 2.05368 133.643 2.05368V2.05068ZM1.11812 12.6385C2.24281 13.0348 3.4951 13.253 4.7735 13.2754C6.04367 13.2754 6.70716 12.8175 6.70716 12.2806C6.70716 11.7437 6.2249 11.3808 4.86411 10.8679C4.04382 10.6304 3.33639 10.254 2.81557 9.77798C2.29474 9.30195 1.97959 8.74371 1.90295 8.16143C1.90295 6.09285 4.59226 4.62015 8.52103 4.62015C9.82398 4.58166 11.1214 4.75338 12.2977 5.12005L11.2702 7.20262C10.3984 6.94103 9.4503 6.80463 8.49031 6.8027C7.22168 6.8027 6.40613 7.18063 6.40613 7.7775C6.40613 8.25541 6.97901 8.59334 8.12785 8.99126C9.00255 9.23127 9.76165 9.62039 10.3252 10.1176C10.8888 10.6149 11.2359 11.2018 11.3301 11.8167C11.3301 14.1642 8.43042 15.4969 4.41871 15.4779C2.87125 15.4996 1.34385 15.247 0 14.7471C0.0307175 14.7471 1.11812 12.6385 1.11812 12.6385ZM12.2378 15.4009L16.5874 0.442005H21.0584L19.3382 6.23182L19.3981 6.19183C19.9528 5.71064 20.6679 5.31766 21.4897 5.04247C22.3115 4.76729 23.2185 4.61708 24.1424 4.60315C26.4693 4.60315 27.7978 5.59795 27.7978 7.24961C27.781 7.91802 27.6699 8.58401 27.466 9.23921L25.7136 15.3869H21.2411L22.9306 9.41817C23.0524 8.97733 23.1141 8.53035 23.1149 8.08244C23.1149 7.44557 22.7217 6.96767 21.7249 6.96767C20.3043 6.96767 18.7638 8.22141 18.1924 10.167L16.7119 15.3799L12.2409 15.3999L12.2378 15.4009ZM43.9936 8.71831C43.9936 12.3796 40.4288 15.4839 35.1408 15.4839C34.3058 15.5122 33.4712 15.4241 32.6926 15.2256C31.9141 15.0272 31.2096 14.7228 30.6262 14.3329C30.0428 13.943 29.5939 13.4765 29.3096 12.9647C29.0252 12.4528 28.912 11.9074 28.9773 11.3648C28.9773 7.8025 32.5421 4.60315 37.9207 4.60315C38.7499 4.57931 39.5773 4.67084 40.3477 4.87165C41.1182 5.07247 41.814 5.37793 42.3887 5.76767C42.9635 6.15741 43.4039 6.62246 43.6806 7.13179C43.9574 7.64112 44.0641 8.18301 43.9936 8.72131V8.71831ZM33.5696 11.3018C33.5696 12.3766 34.2039 13.2324 35.7444 13.2324C38.102 13.2324 39.4305 10.447 39.4305 8.63333C39.4305 7.75751 38.9175 6.86269 37.3156 6.86269C34.8997 6.84869 33.5696 9.61413 33.5696 11.3018ZM42.9384 19.5591L46.0486 8.7783C46.4278 7.48666 46.7301 6.18595 46.9548 4.8791H50.9127L50.6409 6.54975H50.7023C51.2135 6.02051 51.9096 5.57738 52.7337 5.25648C53.5579 4.93558 54.487 4.74598 55.4451 4.70313C58.7088 4.70313 60.0389 6.43378 60.0389 8.40238C60.0389 11.9836 56.5939 15.5249 51.3366 15.5249C50.4178 15.5713 49.4994 15.4316 48.7072 15.125H48.6166L47.3787 19.5621L42.9384 19.5591ZM49.3139 12.8345C49.8263 13.1189 50.4839 13.268 51.1569 13.2524C53.665 13.2524 55.3867 10.5459 55.3867 8.63633C55.3867 7.83649 54.9628 7.00466 53.6036 7.00466C52.0324 7.00466 50.5825 8.21841 50.0711 10.069L49.3139 12.8345ZM60.1894 15.4009L63.2105 4.8791H67.7136L64.6603 15.4009H60.1894ZM65.9904 3.78432C65.6886 3.77453 65.393 3.72504 65.1215 3.63883C64.8499 3.55262 64.608 3.43148 64.4103 3.28273C64.2127 3.13397 64.0634 2.96069 63.9715 2.77333C63.8795 2.58598 63.8469 2.38844 63.8755 2.19265C63.8617 1.73733 64.1231 1.29668 64.6033 0.965536C65.0836 0.634391 65.7444 0.439215 66.4435 0.422009C66.75 0.421575 67.0533 0.46216 67.3347 0.541243C67.6161 0.620327 67.8695 0.736221 68.0792 0.881729C68.2889 1.02724 68.4504 1.19926 68.5537 1.3871C68.657 1.57495 68.6999 1.77461 68.6797 1.97369C68.6935 2.20453 68.6359 2.43481 68.5103 2.65087C68.3846 2.86692 68.1936 3.06433 67.9484 3.23137C67.7033 3.3984 67.4091 3.53166 67.0833 3.62322C66.7575 3.71477 66.4067 3.76276 66.0518 3.76433C66.0518 3.78432 65.9904 3.78432 65.9904 3.78432ZM68.5584 15.4009L70.9159 7.08464H68.8302L69.4661 4.8761H71.5503L71.6716 4.33821C71.9219 3.06508 72.8399 1.88727 74.2703 1.00389C75.4993 0.33984 77.0537 -0.0149418 78.6506 0.00409485C79.4754 -0.0207251 80.299 0.0674947 81.0681 0.263042L80.1926 2.57057C79.7352 2.46826 79.2555 2.41459 78.7719 2.4116C77.2914 2.4116 76.3852 3.34641 76.1133 4.3612L75.9598 4.89909H79.073L78.4694 7.10264H75.3884L73.0308 15.4239L68.5584 15.4039V15.4009ZM84.6636 4.8791L85.3946 9.59413C85.5482 10.43 85.6665 11.2458 85.7878 12.0816H85.8477C86.2117 11.5237 86.5435 10.7079 87.1778 9.57414L89.8978 4.8751H94.5807L89.1114 12.5735C87.7018 14.7292 85.7153 16.7048 83.2444 18.4083C82.0108 19.1687 80.5044 19.7159 78.8626 20L77.6231 17.4935C78.5238 17.2914 79.378 17.0102 80.1619 16.6577C81.1692 16.193 82.0049 15.5881 82.6086 14.887C82.6694 14.8184 82.7087 14.7426 82.7242 14.664C82.7398 14.5854 82.7313 14.5056 82.6992 14.4291L80.0191 4.8591C79.95 4.8791 84.6636 4.8791 84.6636 4.8791ZM129.987 5.87889C129.767 5.88821 129.556 5.94349 129.388 6.03657C129.219 6.12965 129.101 6.25559 129.05 6.39579L127.539 11.5687C126.723 14.1952 124.277 14.5531 121.95 14.5531C117.811 14.5531 117.689 13.0014 118.143 11.4697L119.926 5.40099C119.949 5.3389 119.951 5.27412 119.93 5.21164C119.909 5.14917 119.866 5.09069 119.804 5.04072C119.743 4.99075 119.665 4.95063 119.576 4.92347C119.487 4.89631 119.39 4.88284 119.291 4.8841C119.071 4.89325 118.86 4.94848 118.691 5.04159C118.523 5.13469 118.405 5.26072 118.354 5.40099L116.573 11.4647C116.155 12.392 116.296 13.388 116.966 14.2502C117.751 15.066 119.322 15.4839 121.68 15.4839C122.667 15.5246 123.656 15.4364 124.59 15.2246C125.524 15.0127 126.384 14.6814 127.118 14.2502C128.205 13.4741 128.91 12.504 129.142 11.4647L130.623 6.37079C130.645 6.30971 130.644 6.24623 130.622 6.18526C130.6 6.12429 130.556 6.06746 130.495 6.01915C130.434 5.97083 130.356 5.93234 130.268 5.90663C130.181 5.88093 130.085 5.8687 129.989 5.87089L129.987 5.87889ZM115.696 0.462001C115.474 0.468217 115.261 0.522391 115.091 0.615981C114.922 0.709571 114.805 0.837253 114.759 0.978895L110.709 14.8471C110.686 14.9092 110.685 14.974 110.706 15.0365C110.727 15.0989 110.77 15.1574 110.831 15.2073C110.893 15.2573 110.971 15.2974 111.06 15.3245C111.149 15.3517 111.247 15.3652 111.345 15.364C111.565 15.3544 111.775 15.2991 111.943 15.206C112.112 15.1129 112.23 14.9871 112.28 14.8471L116.33 0.978895C116.354 0.916808 116.355 0.852021 116.334 0.789548C116.313 0.727076 116.27 0.668591 116.209 0.618621C116.148 0.568651 116.069 0.528535 115.98 0.501376C115.891 0.474218 115.794 0.460745 115.696 0.462001Z" fill="black"/>
</svg>
